<svg width="34" height="59" viewBox="0 0 34 59" fill="none" xmlns="http://www.w3.org/2000/svg">
<g clip-path="url(#clip0_1_4676)">
<path d="M27.323 25.5635V20.895L23.5254 23.0854V27.7576L27.323 25.5635Z" fill="white"/>
<path d="M27.3228 13.5873L23.3832 11.311L16.9505 15.0264L10.5178 11.311L6.57812 13.5873V17.725L13.1193 21.504V29.3421L16.9505 31.555L20.7817 29.3421V21.504L27.3228 17.725V13.5873Z" fill="white"/>
<path d="M33.9016 13.9272V9.78949L29.9619 7.51318L26.127 9.72596L30.0666 12.0023V16.14L33.9016 13.9272Z" fill="white"/>
<path d="M3.83495 16.1405V12.0028L7.77456 9.72645L3.9396 7.51367L0 9.78998V13.9277L3.83495 16.1405Z" fill="white"/>
<path d="M6.57812 25.5635L10.3757 27.7576V23.0854L6.57812 20.895V25.5635Z" fill="white"/>
<path d="M20.7816 32.5117L16.9503 34.7245L13.1191 32.5117V36.9372L16.9503 39.15L20.7816 36.9372V32.5117Z" fill="white"/>
<path d="M20.6401 9.72623L16.9509 7.5957L13.2617 9.72623L16.9509 11.8568L20.6401 9.72623Z" fill="white"/>
<path d="M30.0664 19.3095V27.1476L23.5254 30.9263V35.3521L33.9014 29.3603V17.0967L30.0664 19.3095Z" fill="white"/>
<path d="M10.3761 30.9263L3.83495 27.1476V19.3095L0 17.0967V29.3603L10.3761 35.3521V30.9263Z" fill="white"/>
<path d="M10.5166 8.14087L16.9493 4.42926L23.382 8.14087L27.217 5.9281L16.9493 0L6.68164 5.9281L10.5166 8.14087Z" fill="white"/>
<path d="M5.6776 56.579C5.89781 56.579 6.08751 56.5536 6.2467 56.5032C6.40589 56.4528 6.5359 56.3827 6.63672 56.2924C6.74019 56.1996 6.81581 56.0908 6.86357 55.9661C6.91132 55.8388 6.9352 55.6993 6.9352 55.5481C6.9352 55.2536 6.8304 55.0216 6.6208 54.8518C6.4112 54.6793 6.0968 54.5929 5.6776 54.5929H4.44387V56.579H5.6776ZM4.44387 52.0978V54.0437H5.46269C5.68025 54.0437 5.86863 54.0199 6.02782 53.9721C6.18966 53.9243 6.32232 53.858 6.42579 53.7731C6.53192 53.6882 6.61019 53.5862 6.6606 53.4668C6.71101 53.3448 6.73621 53.2121 6.73621 53.0688C6.73621 52.7319 6.63539 52.4863 6.43375 52.3324C6.23211 52.1759 5.91904 52.0978 5.49453 52.0978H4.44387ZM5.49453 51.4887C5.84475 51.4887 6.14588 51.5232 6.39793 51.5922C6.65264 51.6612 6.86091 51.7594 7.02276 51.8867C7.18725 52.0141 7.30797 52.1706 7.38491 52.3563C7.46186 52.5394 7.50033 52.7463 7.50033 52.9772C7.50033 53.1178 7.47778 53.2531 7.43267 53.3831C7.39022 53.5104 7.32522 53.6298 7.23766 53.7413C7.15011 53.8527 7.03868 53.9535 6.90336 54.0437C6.77071 54.1313 6.61417 54.2029 6.43375 54.2586C6.85295 54.3382 7.16735 54.4883 7.37695 54.7085C7.58921 54.9261 7.69534 55.2126 7.69534 55.5681C7.69534 55.8096 7.65023 56.0298 7.56002 56.2288C7.47247 56.4278 7.34246 56.5987 7.17001 56.742C7.0002 56.8853 6.7906 56.9967 6.54121 57.0763C6.29181 57.1533 6.00792 57.1919 5.68954 57.1919H3.67578V51.4887H5.49453ZM9.31701 53.1602V57.1919H8.60862V53.1602H9.31701ZM9.46824 51.8947C9.46824 51.9636 9.45365 52.0288 9.42447 52.0898C9.39793 52.1482 9.36079 52.2013 9.31303 52.249C9.26793 52.2941 9.21354 52.3298 9.14986 52.3563C9.08884 52.3828 9.02384 52.3961 8.95486 52.3961C8.88587 52.3961 8.82087 52.3828 8.75985 52.3563C8.70148 52.3298 8.64974 52.2941 8.60464 52.249C8.55953 52.2013 8.52371 52.1482 8.49718 52.0898C8.47065 52.0288 8.45739 51.9636 8.45739 51.8947C8.45739 51.8257 8.47065 51.7608 8.49718 51.6998C8.52371 51.6361 8.55953 51.5816 8.60464 51.5365C8.64974 51.4887 8.70148 51.4516 8.75985 51.4251C8.82087 51.3985 8.88587 51.3853 8.95486 51.3853C9.02384 51.3853 9.08884 51.3985 9.14986 51.4251C9.21354 51.4516 9.26793 51.4887 9.31303 51.5365C9.36079 51.5816 9.39793 51.6361 9.42447 51.6998C9.45365 51.7608 9.46824 51.8257 9.46824 51.8947ZM11.1496 53.7454C11.2371 53.6472 11.33 53.5582 11.4282 53.4786C11.5263 53.399 11.6298 53.3315 11.7386 53.2758C11.85 53.2174 11.9668 53.1735 12.0888 53.1443C12.2135 53.1125 12.3475 53.0966 12.4908 53.0966C12.711 53.0966 12.9047 53.1337 13.0718 53.208C13.2416 53.2796 13.3822 53.3831 13.4937 53.5184C13.6077 53.6511 13.694 53.8117 13.7523 54.0001C13.8107 54.1885 13.8399 54.3966 13.8399 54.6248V57.1919H13.1275V54.6248C13.1275 54.3197 13.0572 54.0835 12.9166 53.9164C12.7786 53.7466 12.5677 53.6617 12.2838 53.6617C12.0742 53.6617 11.8779 53.7121 11.6948 53.8129C11.5144 53.9137 11.3472 54.0505 11.1934 54.223V57.1919H10.481V53.1602H10.9068C11.0076 53.1602 11.07 53.2095 11.0939 53.3076L11.1496 53.7454ZM17.1042 55.3771C16.7779 55.3877 16.4993 55.4142 16.2685 55.4567C16.0403 55.4965 15.8532 55.5496 15.7073 55.6159C15.5641 55.6822 15.4593 55.7603 15.3929 55.8505C15.3292 55.9408 15.2974 56.0416 15.2974 56.153C15.2974 56.2591 15.3147 56.3508 15.3491 56.4278C15.3836 56.5047 15.4301 56.5684 15.4884 56.6188C15.5495 56.6665 15.6198 56.7022 15.6994 56.7261C15.7816 56.7473 15.8692 56.7579 15.962 56.7579C16.0867 56.7579 16.2008 56.7461 16.3043 56.7223C16.4078 56.6957 16.5046 56.6586 16.5948 56.6108C16.6877 56.5631 16.7752 56.5059 16.8575 56.4395C16.9424 56.3732 17.0246 56.2978 17.1042 56.2129V55.3771ZM14.8159 53.7295C15.0387 53.5146 15.2788 53.3539 15.5362 53.2478C15.7936 53.1417 16.0788 53.0886 16.3918 53.0886C16.6174 53.0886 16.8177 53.1257 16.9928 53.2C17.1679 53.2743 17.3151 53.3778 17.4345 53.5104C17.5539 53.6431 17.6441 53.8038 17.7052 53.9921C17.7662 54.1805 17.7967 54.3875 17.7967 54.613V57.1919H17.4823C17.4133 57.1919 17.3602 57.1813 17.3231 57.16C17.286 57.1362 17.2568 57.0911 17.2355 57.0247L17.156 56.6427C17.0498 56.7408 16.9464 56.8284 16.8455 56.9053C16.7447 56.9796 16.6386 57.0433 16.5272 57.0964C16.4157 57.1468 16.2963 57.1851 16.169 57.2119C16.0443 57.2411 15.905 57.2555 15.7511 57.2555C15.5946 57.2555 15.4473 57.2343 15.3093 57.1919C15.1714 57.1468 15.0507 57.0804 14.9472 56.9929C14.8464 56.9053 14.7654 56.7951 14.7044 56.6624C14.6461 56.5271 14.6169 56.3679 14.6169 56.1848C14.6169 56.0257 14.6606 55.8732 14.7482 55.7273C14.8358 55.5787 14.9777 55.4473 15.174 55.3332C15.3704 55.2191 15.6264 55.1262 15.9421 55.0546C16.2579 54.9806 16.6452 54.9379 17.1042 54.9272V54.613C17.1042 54.2999 17.0366 54.0638 16.9012 53.9046C16.7659 53.7427 16.5683 53.6617 16.3083 53.6617C16.1332 53.6617 15.9859 53.6844 15.8665 53.7295C15.7498 53.7719 15.6476 53.8209 15.5601 53.8766C15.4752 53.9296 15.4009 53.9789 15.3372 54.024C15.2762 54.0664 15.2152 54.0877 15.1541 54.0877C15.1064 54.0877 15.0653 54.0756 15.0308 54.0517C14.9963 54.0252 14.9671 53.9933 14.9432 53.9562L14.8159 53.7295ZM19.5444 53.7454C19.6319 53.6472 19.7248 53.5582 19.823 53.4786C19.9211 53.399 20.0246 53.3315 20.1334 53.2758C20.2448 53.2174 20.3615 53.1735 20.4836 53.1443C20.6083 53.1125 20.7423 53.0966 20.8855 53.0966C21.1058 53.0966 21.2994 53.1337 21.4666 53.208C21.6364 53.2796 21.777 53.3831 21.8884 53.5184C22.0025 53.6511 22.0888 53.8117 22.1471 54.0001C22.2055 54.1885 22.2347 54.3966 22.2347 54.6248V57.1919H21.5223V54.6248C21.5223 54.3197 21.452 54.0835 21.3114 53.9164C21.1734 53.7466 20.9625 53.6617 20.6786 53.6617C20.469 53.6617 20.2727 53.7121 20.0896 53.8129C19.9092 53.9137 19.742 54.0505 19.5881 54.223V57.1919H18.8758V53.1602H19.3016C19.4024 53.1602 19.4648 53.2095 19.4887 53.3076L19.5444 53.7454ZM26.1199 53.8766C26.0986 53.9058 26.0774 53.9285 26.0562 53.9444C26.035 53.9603 26.0058 53.9683 25.9686 53.9683C25.9288 53.9683 25.8851 53.9523 25.8373 53.9205C25.7896 53.886 25.7299 53.8489 25.6582 53.8091C25.5892 53.7693 25.503 53.7333 25.3995 53.7015C25.2987 53.667 25.174 53.6499 25.0254 53.6499C24.8264 53.6499 24.6513 53.6856 24.5001 53.7572C24.3489 53.8262 24.2215 53.927 24.1181 54.0597C24.0172 54.1923 23.9403 54.353 23.8872 54.5414C23.8368 54.7297 23.8116 54.9405 23.8116 55.174C23.8116 55.4181 23.8395 55.6356 23.8952 55.8267C23.9509 56.015 24.0292 56.1742 24.13 56.3042C24.2335 56.4316 24.3568 56.5298 24.5001 56.5987C24.646 56.6651 24.8092 56.6984 24.9896 56.6984C25.1621 56.6984 25.304 56.6783 25.4155 56.6385C25.5269 56.5961 25.6184 56.5498 25.6901 56.4994C25.7643 56.449 25.8254 56.4039 25.8731 56.3641C25.9235 56.3216 25.9726 56.3004 26.0204 56.3004C26.0787 56.3004 26.1238 56.3228 26.1557 56.3679L26.3547 56.6267C26.2671 56.7355 26.1676 56.8284 26.0562 56.9053C25.9448 56.9823 25.824 57.0471 25.694 57.1002C25.5667 57.1506 25.4327 57.1877 25.2921 57.2119C25.1515 57.2358 25.0082 57.2476 24.8623 57.2476C24.6102 57.2476 24.3754 57.201 24.1579 57.1082C23.9429 57.0153 23.7559 56.8814 23.5967 56.7063C23.4375 56.5286 23.3128 56.311 23.2226 56.0537C23.1324 55.7963 23.0873 55.503 23.0873 55.174C23.0873 54.8742 23.1284 54.5971 23.2107 54.3424C23.2956 54.0877 23.4176 53.8686 23.5768 53.6856C23.7387 53.4998 23.9363 53.3554 24.1698 53.2519C24.4059 53.1484 24.6765 53.0966 24.9817 53.0966C25.2655 53.0966 25.5149 53.1431 25.7299 53.236C25.9474 53.3262 26.1398 53.4547 26.3069 53.6219L26.1199 53.8766ZM29.7433 54.7362C29.7433 54.5717 29.7195 54.422 29.6717 54.2866C29.6266 54.1487 29.5591 54.0305 29.4688 53.9323C29.3813 53.8315 29.2738 53.7545 29.1465 53.7015C29.0191 53.6458 28.8745 53.618 28.7127 53.618C28.3731 53.618 28.1038 53.7174 27.9048 53.9164C27.7084 54.1127 27.5864 54.386 27.5386 54.7362H29.7433ZM30.3164 56.6267C30.2289 56.7329 30.1242 56.8257 30.0022 56.9053C29.8801 56.9823 29.7486 57.0459 29.608 57.0964C29.4701 57.1468 29.3269 57.1839 29.1783 57.2078C29.0297 57.2343 28.8825 57.2476 28.7365 57.2476C28.458 57.2476 28.2006 57.201 27.9645 57.1082C27.731 57.0126 27.528 56.8747 27.3556 56.6943C27.1858 56.5112 27.0531 56.2857 26.9576 56.0177C26.8621 55.7497 26.8143 55.442 26.8143 55.0944C26.8143 54.8132 26.8568 54.5505 26.9417 54.3064C27.0292 54.0623 27.1539 53.8515 27.3158 53.6738C27.4776 53.4933 27.6753 53.3527 27.9088 53.2519C28.1422 53.1484 28.4049 53.0966 28.6967 53.0966C28.9382 53.0966 29.1611 53.1378 29.3653 53.2201C29.5724 53.2997 29.7501 53.4164 29.8987 53.5703C30.0499 53.7215 30.1678 53.9099 30.2527 54.1354C30.3376 54.3583 30.3801 54.613 30.3801 54.8995C30.3801 55.011 30.3683 55.0853 30.3444 55.1224C30.3205 55.1595 30.2754 55.1781 30.2091 55.1781H27.5148C27.5227 55.4328 27.5572 55.6542 27.6182 55.8426C27.6819 56.031 27.7695 56.189 27.8809 56.3163C27.9923 56.441 28.125 56.5351 28.2789 56.5987C28.4328 56.6598 28.6052 56.6904 28.7962 56.6904C28.974 56.6904 29.1266 56.6704 29.2539 56.6306C29.3839 56.5881 29.4954 56.543 29.5883 56.4953C29.6811 56.4475 29.7581 56.4039 29.8191 56.3641C29.8828 56.3216 29.937 56.3004 29.9821 56.3004C30.0405 56.3004 30.0856 56.3228 30.1174 56.3679L30.3164 56.6267Z" fill="white"/>
</g>
<defs>
<clipPath id="clip0_1_4676">
<rect width="33.9016" height="58.9594" fill="white"/>
</clipPath>
</defs>
</svg>
