<svg width="70" height="66" viewBox="0 0 70 66" fill="none" xmlns="http://www.w3.org/2000/svg">
<path d="M28.7153 13.6549C22.302 12.6789 17.5082 18.3941 15.5 21.2506C22.3019 21.2506 25.0227 25.5331 25.0227 25.5331C25.0227 25.5331 24.0511 27.8702 23.6624 30.9864C25.6058 30.0104 28.3266 29.041 28.3266 29.041C31.2418 30.4021 32.7965 33.3235 32.7965 38C39.4042 36.8292 42.125 30.0126 40.5702 25.7301C46.2062 22.8064 55.729 4.69366 54.3686 0.0216352C41.1533 -0.564384 32.0192 10.926 28.7153 13.6549Z" fill="white"/>
<path d="M12.9997 44.37V45.1129H10.8268V51H9.99111V45.1129H7.79968V44.37H12.9997ZM16.256 46.1993C17.426 46.1993 18.0946 46.9329 18.0946 48.0564V51H17.3053V48.1957C17.3053 47.3414 16.8967 46.905 16.1074 46.905C15.2717 46.905 14.7238 47.6386 14.7238 48.4557V51H13.9346V44.2493H14.7238V46.8307H14.9003C15.1324 46.4779 15.6153 46.1993 16.256 46.1993ZM23.5965 48.3814V48.6507H20.0308C20.0493 49.7557 20.5601 50.4336 21.5258 50.4336C22.1758 50.4336 22.5751 50.155 22.7143 49.7093H23.5129C23.3551 50.5079 22.6865 51.1207 21.5258 51.1207C20.0679 51.1207 19.2508 50.0436 19.2508 48.6136C19.2508 47.1743 20.0865 46.1993 21.5072 46.1993C22.8908 46.1993 23.5779 47.23 23.5965 48.3814ZM21.4886 46.8864C20.6343 46.8864 20.1886 47.3971 20.0772 47.9914H22.7793C22.7236 47.4064 22.2872 46.8864 21.4886 46.8864ZM30.2976 44.37C31.7369 44.37 32.5447 45.1221 32.5447 46.3479C32.5447 47.5921 31.7369 48.3443 30.2976 48.3443H28.329V51H27.4933V44.37H30.2976ZM30.1583 47.6014C31.2912 47.6014 31.6997 47.1279 31.6997 46.3571C31.6997 45.5864 31.2912 45.1129 30.1583 45.1129H28.329V47.6014H30.1583ZM36.3399 46.32V47.0629H35.9778C35.0585 47.0629 34.5013 47.6386 34.5013 48.66V51H33.712V46.32H34.4735V46.8864H34.6592C34.8913 46.5986 35.337 46.32 36.0149 46.32H36.3399ZM39.3815 46.1993C40.8393 46.1993 41.6843 47.2671 41.6843 48.66C41.6843 50.0529 40.8393 51.1207 39.3815 51.1207C37.9143 51.1207 37.0786 50.0529 37.0786 48.66C37.0786 47.2671 37.9143 46.1993 39.3815 46.1993ZM39.3815 50.4336C40.4122 50.4336 40.895 49.5793 40.895 48.66C40.895 47.75 40.4122 46.8864 39.3815 46.8864C38.3415 46.8864 37.8679 47.75 37.8679 48.66C37.8679 49.5793 38.3415 50.4336 39.3815 50.4336ZM46.3147 44.2493H47.104V51H46.3426V50.4893H46.1569C45.8969 50.8143 45.4419 51.1207 44.7083 51.1207C43.4083 51.1207 42.6283 50.0529 42.6283 48.66C42.6283 47.2579 43.4083 46.1993 44.7083 46.1993C45.4419 46.1993 45.869 46.4964 46.129 46.8307H46.3147V44.2493ZM44.8569 50.4336C45.8969 50.4336 46.324 49.57 46.324 48.66C46.324 47.7407 45.8969 46.8864 44.8569 46.8864C43.9097 46.8864 43.4176 47.62 43.4176 48.66C43.4176 49.7 43.9097 50.4336 44.8569 50.4336ZM50.3748 51.1207C49.2048 51.1207 48.5547 50.3871 48.5547 49.2636V46.32H49.344V49.1243C49.344 49.9786 49.734 50.415 50.5233 50.415C51.359 50.415 51.8976 49.6814 51.8976 48.8643V46.32H52.6869V51H51.9255V50.4893H51.749C51.5076 50.8421 51.0155 51.1207 50.3748 51.1207ZM57.3723 49.6071H58.1616C57.9945 50.5171 57.2795 51.1207 56.193 51.1207C54.7352 51.1207 53.918 50.0529 53.918 48.66C53.918 47.2579 54.7352 46.1993 56.193 46.1993C57.298 46.1993 57.9759 46.7936 58.1338 47.6571H57.3445C57.1959 47.1836 56.8338 46.8864 56.193 46.8864C55.1345 46.8864 54.7073 47.7036 54.7073 48.6414C54.7073 49.5886 55.1438 50.4336 56.193 50.4336C56.8616 50.4336 57.2516 50.1271 57.3723 49.6071ZM60.5642 46.32H61.827V47.0071H60.5642V49.6629C60.5642 50.1179 60.7684 50.2943 61.3813 50.2943H61.827V51H61.307C60.2856 51 59.7749 50.7771 59.7749 49.7929V47.0071H58.8277V46.32H59.7749V44.9086H60.5642V46.32ZM21.9145 57.1993C23.0845 57.1993 23.753 57.9329 23.753 59.0564V62H22.9638V59.1957C22.9638 58.3414 22.5552 57.905 21.7659 57.905C20.9302 57.905 20.3823 58.6386 20.3823 59.4557V62H19.593V55.2493H20.3823V57.8307H20.5588C20.7909 57.4779 21.2738 57.1993 21.9145 57.1993ZM27.2121 57.1993C28.67 57.1993 29.515 58.2671 29.515 59.66C29.515 61.0529 28.67 62.1207 27.2121 62.1207C25.745 62.1207 24.9093 61.0529 24.9093 59.66C24.9093 58.2671 25.745 57.1993 27.2121 57.1993ZM27.2121 61.4336C28.2428 61.4336 28.7257 60.5793 28.7257 59.66C28.7257 58.75 28.2428 57.8864 27.2121 57.8864C26.1721 57.8864 25.6985 58.75 25.6985 59.66C25.6985 60.5793 26.1721 61.4336 27.2121 61.4336ZM32.4925 62.1207C31.3225 62.1207 30.6725 61.3871 30.6725 60.2636V57.32H31.4618V60.1243C31.4618 60.9786 31.8518 61.415 32.6411 61.415C33.4768 61.415 34.0154 60.6814 34.0154 59.8643V57.32H34.8046V62H34.0432V61.4893H33.8668C33.6254 61.8421 33.1332 62.1207 32.4925 62.1207ZM37.6422 59.1586L38.5429 59.3071C39.3972 59.4371 39.9265 59.855 39.9265 60.6721C39.9265 61.4243 39.2487 62.1207 37.9951 62.1207C36.7044 62.1207 36.0358 61.545 35.9337 60.6536H36.7229C36.8065 61.1829 37.3079 61.4336 37.9579 61.4336C38.6544 61.4336 39.1372 61.1921 39.1372 60.6907C39.1372 60.31 38.8865 60.0964 38.3387 60.0129L37.4194 59.8643C36.6487 59.7436 36.1101 59.3443 36.1101 58.5921C36.1101 57.8214 36.7229 57.1993 37.9672 57.1993C39.0444 57.1993 39.7037 57.7379 39.7965 58.5364H39.0165C38.9608 58.0907 38.4594 57.8864 37.9208 57.8864C37.3358 57.8864 36.8994 58.1186 36.8994 58.5457C36.8994 58.8893 37.1315 59.075 37.6422 59.1586ZM45.1422 59.3814V59.6507H41.5765C41.5951 60.7557 42.1058 61.4336 43.0715 61.4336C43.7215 61.4336 44.1208 61.155 44.2601 60.7093H45.0587C44.9008 61.5079 44.2322 62.1207 43.0715 62.1207C41.6137 62.1207 40.7965 61.0436 40.7965 59.6136C40.7965 58.1743 41.6322 57.1993 43.053 57.1993C44.4365 57.1993 45.1237 58.23 45.1422 59.3814ZM43.0344 57.8864C42.1801 57.8864 41.7344 58.3971 41.623 58.9914H44.3251C44.2694 58.4064 43.833 57.8864 43.0344 57.8864Z" fill="white"/>
</svg>
