<svg width="38" height="68" viewBox="0 0 38 68" fill="none" xmlns="http://www.w3.org/2000/svg">
<path d="M9.45071 50.37H10.2679V57H8.96786L5.84786 51.4564H5.66214V57H4.845V50.37H6.145L9.265 55.9136H9.45071V50.37ZM13.8858 52.1993C15.3437 52.1993 16.1887 53.2671 16.1887 54.66C16.1887 56.0529 15.3437 57.1207 13.8858 57.1207C12.4187 57.1207 11.5829 56.0529 11.5829 54.66C11.5829 53.2671 12.4187 52.1993 13.8858 52.1993ZM13.8858 56.4336C14.9165 56.4336 15.3994 55.5793 15.3994 54.66C15.3994 53.75 14.9165 52.8864 13.8858 52.8864C12.8458 52.8864 12.3722 53.75 12.3722 54.66C12.3722 55.5793 12.8458 56.4336 13.8858 56.4336ZM17.4205 50.2493H18.2098V52.8307H18.3955C18.6555 52.4964 19.0826 52.1993 19.8162 52.1993C21.1162 52.1993 21.8962 53.2579 21.8962 54.66C21.8962 56.0529 21.1162 57.1207 19.8162 57.1207C19.0826 57.1207 18.6276 56.8143 18.3676 56.4893H18.1819V57H17.4205V50.2493ZM19.6676 56.4336C20.6148 56.4336 21.1069 55.7 21.1069 54.66C21.1069 53.62 20.6148 52.8864 19.6676 52.8864C18.6276 52.8864 18.2005 53.7407 18.2005 54.66C18.2005 55.57 18.6276 56.4336 19.6676 56.4336ZM24.0062 51.1779H23.0962V50.2493H24.0062V51.1779ZM23.9412 52.32V57H23.1519V52.32H23.9412ZM28.4718 57V56.4986H28.2861C27.9982 56.8607 27.4875 57.1207 26.8189 57.1207C25.7325 57.1207 25.1289 56.3964 25.1289 55.5979C25.1289 54.8457 25.6118 54.0471 26.9211 54.0471H28.4439V53.8614C28.4439 53.295 28.1096 52.8864 27.3018 52.8864C26.6146 52.8864 26.2525 53.1464 26.2153 53.5364H25.4261C25.4818 52.6914 26.2339 52.1993 27.2832 52.1993C28.4532 52.1993 29.2146 52.7657 29.2146 53.815V57H28.4718ZM27.0046 56.4336C27.7939 56.4336 28.4439 55.8579 28.4439 55.1243V54.7064H27.0418C26.2803 54.7064 25.9182 55.0314 25.9182 55.5793C25.9182 56.1086 26.3175 56.4336 27.0046 56.4336ZM31.9784 54.1586L32.8792 54.3071C33.7334 54.4371 34.2627 54.855 34.2627 55.6721C34.2627 56.4243 33.5849 57.1207 32.3313 57.1207C31.0406 57.1207 30.372 56.545 30.2699 55.6536H31.0592C31.1427 56.1829 31.6442 56.4336 32.2942 56.4336C32.9906 56.4336 33.4734 56.1921 33.4734 55.6907C33.4734 55.31 33.2227 55.0964 32.6749 55.0129L31.7556 54.8643C30.9849 54.7436 30.4463 54.3443 30.4463 53.5921C30.4463 52.8214 31.0592 52.1993 32.3034 52.1993C33.3806 52.1993 34.0399 52.7379 34.1327 53.5364H33.3527C33.297 53.0907 32.7956 52.8864 32.257 52.8864C31.672 52.8864 31.2356 53.1186 31.2356 53.5457C31.2356 53.8893 31.4677 54.075 31.9784 54.1586Z" fill="white"/>
<path d="M38 19C38 29.4934 29.4934 38 19 38C8.50659 38 0 29.4934 0 19C0 8.50659 8.50659 0 19 0C29.4934 0 38 8.50659 38 19ZM6.86517 19C6.86517 25.7019 12.2981 31.1348 19 31.1348C25.7019 31.1348 31.1348 25.7019 31.1348 19C31.1348 12.2981 25.7019 6.86517 19 6.86517C12.2981 6.86517 6.86517 12.2981 6.86517 19Z" fill="white"/>
<rect x="22.1152" y="3.50781" width="5.49093" height="30.4" transform="rotate(21.229 22.1152 3.50781)" fill="white"/>
</svg>
