<svg width="41" height="68" viewBox="0 0 41 68" fill="none" xmlns="http://www.w3.org/2000/svg">
<path fill-rule="evenodd" clip-rule="evenodd" d="M17.9272 0.106194C17.4184 0.319643 17.1293 0.638627 16.7992 1.35056L16.4932 2.01098L16.4887 14.0307C16.4862 20.7712 16.4321 26.2781 16.3657 26.5689C16.2084 27.2553 15.6325 28.0659 14.9632 28.5425C14.2577 29.045 12.7768 29.1848 11.8718 28.8347C11.2675 28.6008 10.3411 27.6966 10.0667 27.0729C9.94921 26.806 9.89029 24.592 9.84218 18.6536L9.777 10.5965L9.47248 9.96999C8.89785 8.7877 8.78653 8.75363 5.33173 8.70383C1.4543 8.64796 0.958668 8.78004 0.28966 10.0477L0 10.5965L0.000651939 19.0499L0.00117309 27.5033L0.366572 28.692C1.71436 33.0768 5.0667 36.4376 9.27199 37.62C10.6708 38.0132 14.6037 38.1322 16.1889 37.8294C20.4641 37.0124 23.9788 33.6523 25.1253 29.2864C25.4112 28.1978 25.4202 27.979 25.4202 22.0878V16.0119L23.4738 15.9752C21.5154 15.9384 21.1829 15.8598 21.1843 15.4345C21.1847 15.3161 21.605 14.5656 22.1183 13.7665C22.6315 12.9674 23.5142 11.5706 24.0798 10.6625C24.6453 9.75443 25.7942 7.95491 26.6329 6.66352C27.9849 4.58174 28.1944 4.31982 28.4808 4.35205C28.7402 4.38137 29.2999 5.09225 31.3172 7.95478C33.9296 11.6619 36.0233 14.7345 36.2956 15.2609C36.6058 15.8604 36.3452 15.9459 34.2082 15.9459C32.4286 15.9459 32.2624 15.9664 32.1383 16.2013C31.9227 16.6096 31.9593 22.4386 32.1795 22.7436C32.6805 23.4378 35.7632 22.1149 37.5189 20.4522C38.6396 19.391 39.9349 17.2929 40.3417 15.8798C40.9222 13.8637 41.1631 10.7987 40.8836 8.98438C40.1959 4.52111 37.5541 1.65198 32.9799 0.400875L31.6775 0.0446431L24.9639 0.00752767C20.5842 -0.0166438 18.138 0.0176979 17.9272 0.106194Z" fill="white"/>
<path d="M6.70929 50.37H7.545V54.6321C7.545 56.1921 6.61643 57.1207 4.93571 57.1207C3.255 57.1207 2.32643 56.1921 2.32643 54.6321V50.37H3.16214V54.6229C3.16214 55.6629 3.775 56.3593 4.93571 56.3593C6.09643 56.3593 6.70929 55.6629 6.70929 54.6229V50.37ZM9.92432 58.8571H9.13503V52.32H9.89646V52.8307H10.0822C10.3422 52.5057 10.7972 52.1993 11.5307 52.1993C12.8307 52.1993 13.6107 53.2671 13.6107 54.66C13.6107 56.0621 12.8307 57.1207 11.5307 57.1207C10.7972 57.1207 10.37 56.8236 10.11 56.4893H9.92432V58.8571ZM11.3822 52.8864C10.3422 52.8864 9.91503 53.75 9.91503 54.66C9.91503 55.5793 10.3422 56.4336 11.3822 56.4336C12.3293 56.4336 12.8215 55.7 12.8215 54.66C12.8215 53.62 12.3293 52.8864 11.3822 52.8864ZM16.1665 54.1586L17.0672 54.3071C17.9215 54.4371 18.4508 54.855 18.4508 55.6721C18.4508 56.4243 17.7729 57.1207 16.5194 57.1207C15.2286 57.1207 14.5601 56.545 14.4579 55.6536H15.2472C15.3308 56.1829 15.8322 56.4336 16.4822 56.4336C17.1786 56.4336 17.6615 56.1921 17.6615 55.6907C17.6615 55.31 17.4108 55.0964 16.8629 55.0129L15.9436 54.8643C15.1729 54.7436 14.6344 54.3443 14.6344 53.5921C14.6344 52.8214 15.2472 52.1993 16.4915 52.1993C17.5686 52.1993 18.2279 52.7379 18.3208 53.5364H17.5408C17.4851 53.0907 16.9836 52.8864 16.4451 52.8864C15.8601 52.8864 15.4236 53.1186 15.4236 53.5457C15.4236 53.8893 15.6558 54.075 16.1665 54.1586ZM21.3544 57.1207C20.1844 57.1207 19.5344 56.3871 19.5344 55.2636V52.32H20.3237V55.1243C20.3237 55.9786 20.7137 56.415 21.503 56.415C22.3387 56.415 22.8772 55.6814 22.8772 54.8643V52.32H23.6665V57H22.9051V56.4893H22.7287C22.4872 56.8421 21.9951 57.1207 21.3544 57.1207ZM27.8134 52.32V53.0629H27.4512C26.532 53.0629 25.9748 53.6386 25.9748 54.66V57H25.1855V52.32H25.947V52.8864H26.1327C26.3648 52.5986 26.8105 52.32 27.4884 52.32H27.8134ZM32.2664 52.32H33.0278V56.7679C33.0278 58.0864 32.2014 58.9221 30.8457 58.9221C29.6571 58.9221 28.8678 58.4114 28.7285 57.4921H29.5085C29.6385 58.0493 30.14 58.235 30.8364 58.235C31.7928 58.235 32.2385 57.6686 32.2385 56.7307V56.35H32.0528C31.8114 56.675 31.3657 56.9814 30.66 56.9814C29.3693 56.9814 28.5521 55.96 28.5521 54.595C28.5521 53.2207 29.3693 52.1993 30.66 52.1993C31.3843 52.1993 31.8393 52.515 32.0807 52.8307H32.2664V52.32ZM30.7807 56.2943C31.7835 56.2943 32.2571 55.4864 32.2571 54.595C32.2571 53.6943 31.7835 52.8864 30.7807 52.8864C29.8707 52.8864 29.3414 53.5736 29.3414 54.595C29.3414 55.6071 29.8707 56.2943 30.7807 56.2943ZM38.6107 54.3814V54.6507H35.045C35.0636 55.7557 35.5743 56.4336 36.54 56.4336C37.19 56.4336 37.5893 56.155 37.7286 55.7093H38.5271C38.3693 56.5079 37.7007 57.1207 36.54 57.1207C35.0821 57.1207 34.265 56.0436 34.265 54.6136C34.265 53.1743 35.1007 52.1993 36.5214 52.1993C37.905 52.1993 38.5921 53.23 38.6107 54.3814ZM36.5029 52.8864C35.6486 52.8864 35.2029 53.3971 35.0914 53.9914H37.7936C37.7379 53.4064 37.3014 52.8864 36.5029 52.8864Z" fill="white"/>
</svg>
