<svg width="38" height="68" viewBox="0 0 38 68" fill="none" xmlns="http://www.w3.org/2000/svg">
<path fill-rule="evenodd" clip-rule="evenodd" d="M24.1881 0.23164C21.9127 0.750232 19.6788 2.16692 18.073 4.10956C17.3244 5.01502 16.0362 7.34694 16.0362 7.79626C16.0362 7.92227 15.5594 8.20413 14.9769 8.42244C14.3944 8.64074 13.3668 9.22437 12.6934 9.71938C10.7567 11.1431 9.55055 12.7537 8.513 15.3012C8.39952 15.5797 8.19006 15.8078 8.04765 15.8078C7.90525 15.8078 7.13169 16.1366 6.32865 16.5386C4.70416 17.3516 2.99972 18.8775 1.95112 20.4571C-0.0127139 23.4159 -0.316315 27.7328 1.20575 31.0573L1.67975 32.0927L3.7508 30.0275L5.82185 27.9624L5.8213 26.5367C5.82075 24.7775 6.29955 23.5883 7.47103 22.4386L8.28014 21.6446L8.46326 22.0884C8.56422 22.3323 8.81974 22.9424 9.03141 23.4441L9.41607 24.3562L11.5288 22.2496L13.6413 20.1432L13.6453 18.7583C13.6501 17.086 14.0541 16.0674 15.1613 14.9348L15.9247 14.1538L16.3527 15.2056C16.5881 15.7842 16.8632 16.34 16.9641 16.441C17.0859 16.5628 17.8278 15.9465 19.1709 14.6074L21.1944 12.5901V11.2842C21.1944 9.62763 21.5809 8.49521 22.5045 7.44623C23.6035 6.19738 24.9952 5.58667 26.7799 5.56972L28.2202 5.55609L30.2607 3.51562L32.301 1.47515L31.6917 1.16013C29.6354 0.0967881 26.4887 -0.292662 24.1881 0.23164ZM34.1826 7.50058L32.1626 9.50991L32.1545 10.9548C32.1451 12.6587 31.6947 13.8383 30.6269 14.9548C29.5544 16.0762 28.3834 16.5408 26.6239 16.5429L25.145 16.5447L23.0654 18.608L20.9857 20.6711L21.9652 21.1783C22.5039 21.4574 23.0896 21.6895 23.267 21.6943C24.191 21.7192 22.9468 23.0876 21.3271 23.8276C20.4207 24.2418 20.0574 24.3057 18.8846 24.2567L17.507 24.1992L15.4837 26.2163C13.2308 28.4622 13.2347 28.4449 14.8428 29.0554C15.3394 29.2438 15.7729 29.4798 15.8063 29.5797C15.8396 29.6795 15.4395 30.1454 14.9172 30.615C13.7656 31.6505 12.4416 32.0969 10.8611 31.9827L9.78912 31.9051L7.72784 33.9723L5.66655 36.0393L6.58123 36.5028C8.60032 37.526 11.8184 37.8569 14.0629 37.2723C15.6804 36.851 17.542 35.8254 18.7953 34.6652C20.1567 33.4047 20.9002 32.3618 21.5712 30.7716C22.0465 29.6451 22.1217 29.5659 23.0896 29.1724C26.1668 27.9217 28.4593 25.6341 29.5135 22.7623C29.7274 22.1798 30.0044 21.703 30.1293 21.703C30.254 21.703 30.9683 21.3968 31.7166 21.0228C33.4153 20.1734 35.5719 18.0734 36.4455 16.4183C38.0381 13.4002 38.1941 9.61566 36.848 6.64707C36.5599 6.01131 36.2968 5.49124 36.2634 5.49124C36.2301 5.49124 35.2939 6.39542 34.1826 7.50058Z" fill="white"/>
<path d="M3.23681 56.5601V49.9301H4.60181L6.31038 53.2079H6.4961L8.17681 49.9301H9.5511V56.5601H8.73395V50.8772H8.54824L6.8211 54.1922H5.96681L4.23967 50.8772H4.05395V56.5601H3.23681ZM12.9061 56.6808C11.7361 56.6808 11.0861 55.9472 11.0861 54.8236V51.8801H11.8754V54.6843C11.8754 55.5386 12.2654 55.9751 13.0546 55.9751C13.8904 55.9751 14.4289 55.2415 14.4289 54.4243V51.8801H15.2182V56.5601H14.4568V56.0493H14.2804C14.0389 56.4022 13.5468 56.6808 12.9061 56.6808ZM20.1358 49.8093H20.9251V56.5601H20.1637V56.0493H19.9779C19.7179 56.3743 19.2629 56.6808 18.5294 56.6808C17.2294 56.6808 16.4494 55.6129 16.4494 54.2201C16.4494 52.8179 17.2294 51.7593 18.5294 51.7593C19.2629 51.7593 19.6901 52.0565 19.9501 52.3908H20.1358V49.8093ZM18.6779 55.9936C19.7179 55.9936 20.1451 55.1301 20.1451 54.2201C20.1451 53.3008 19.7179 52.4465 18.6779 52.4465C17.7308 52.4465 17.2387 53.1801 17.2387 54.2201C17.2387 55.2601 17.7308 55.9936 18.6779 55.9936ZM25.078 51.8801V52.6229H24.7158C23.7965 52.6229 23.2394 53.1986 23.2394 54.2201V56.5601H22.4501V51.8801H23.2115V52.4465H23.3973C23.6294 52.1586 24.0751 51.8801 24.753 51.8801H25.078ZM30.1624 53.9415V54.2108H26.5967C26.6153 55.3158 27.126 55.9936 28.0917 55.9936C28.7417 55.9936 29.141 55.7151 29.2803 55.2693H30.0788C29.921 56.0679 29.2524 56.6808 28.0917 56.6808C26.6338 56.6808 25.8167 55.6036 25.8167 54.1736C25.8167 52.7343 26.6524 51.7593 28.0731 51.7593C29.4567 51.7593 30.1438 52.7901 30.1624 53.9415ZM28.0546 52.4465C27.2003 52.4465 26.7546 52.9572 26.6431 53.5515H29.3453C29.2896 52.9665 28.8531 52.4465 28.0546 52.4465ZM33.1959 53.7558L34.2824 51.8801H35.1366L33.8088 54.1736L35.2852 56.5601H34.3938L33.1774 54.5915H32.9081L31.6916 56.5601H30.8188L32.2952 54.1736L30.9674 51.8801H31.8402L32.9266 53.7558H33.1959Z" fill="white"/>
</svg>
