<svg width="59" height="68" viewBox="0 0 59 68" fill="none" xmlns="http://www.w3.org/2000/svg">
<path d="M3.46357 53.4807H6.37V54.1493C6.37 55.6721 5.59929 57.1207 3.58429 57.1207C1.57857 57.1207 0.510714 55.6164 0.510714 53.685C0.510714 51.735 1.59714 50.2493 3.60286 50.2493C4.97714 50.2493 5.90571 50.9457 6.16571 52.06H5.29286C5.08857 51.41 4.55929 51.0107 3.60286 51.0107C2.04286 51.0107 1.35571 52.255 1.35571 53.685C1.35571 55.0964 2.02429 56.3593 3.59357 56.3593C4.96786 56.3593 5.51571 55.4121 5.51571 54.3443V54.2236H3.46357V53.4807ZM10.2992 52.32V53.0629H9.93702C9.01773 53.0629 8.46059 53.6386 8.46059 54.66V57H7.67131V52.32H8.43273V52.8864H8.61845C8.85059 52.5986 9.29631 52.32 9.97416 52.32H10.2992ZM13.3407 52.1993C14.7986 52.1993 15.6436 53.2671 15.6436 54.66C15.6436 56.0529 14.7986 57.1207 13.3407 57.1207C11.8736 57.1207 11.0379 56.0529 11.0379 54.66C11.0379 53.2671 11.8736 52.1993 13.3407 52.1993ZM13.3407 56.4336C14.3715 56.4336 14.8543 55.5793 14.8543 54.66C14.8543 53.75 14.3715 52.8864 13.3407 52.8864C12.3007 52.8864 11.8272 53.75 11.8272 54.66C11.8272 55.5793 12.3007 56.4336 13.3407 56.4336ZM20.1068 52.32L21.0726 56.1736H21.2397L22.0847 52.32H22.8276L21.8061 57H20.5526L19.5961 53.1464H19.4197L18.4633 57H17.2283L16.2068 52.32H16.9497L17.7947 56.1736H17.9618L18.9276 52.32H20.1068ZM24.6605 51.1779H23.7505V50.2493H24.6605V51.1779ZM23.8155 57.3529V52.32H24.6048V57.3993C24.6048 58.4486 24.1034 58.8571 23.0634 58.8571H22.5155V58.1514H23.0262C23.5927 58.1514 23.8155 57.9193 23.8155 57.3529ZM27.8887 57.1207C26.7187 57.1207 26.0687 56.3871 26.0687 55.2636V52.32H26.858V55.1243C26.858 55.9786 27.248 56.415 28.0373 56.415C28.873 56.415 29.4116 55.6814 29.4116 54.8643V52.32H30.2008V57H29.4394V56.4893H29.263C29.0216 56.8421 28.5294 57.1207 27.8887 57.1207ZM34.0413 52.1993C35.2113 52.1993 35.8799 52.9329 35.8799 54.0564V57H35.0906V54.1957C35.0906 53.3414 34.682 52.905 33.8927 52.905C33.057 52.905 32.5091 53.6386 32.5091 54.4557V57H31.7199V52.32H32.4813V52.8307H32.6577C32.8991 52.4779 33.4006 52.1993 34.0413 52.1993ZM40.4904 55.6071H41.2796C41.1125 56.5171 40.3975 57.1207 39.3111 57.1207C37.8532 57.1207 37.0361 56.0529 37.0361 54.66C37.0361 53.2579 37.8532 52.1993 39.3111 52.1993C40.4161 52.1993 41.0939 52.7936 41.2518 53.6571H40.4625C40.3139 53.1836 39.9518 52.8864 39.3111 52.8864C38.2525 52.8864 37.8254 53.7036 37.8254 54.6414C37.8254 55.5886 38.2618 56.4336 39.3111 56.4336C39.9796 56.4336 40.3696 56.1271 40.4904 55.6071ZM43.6822 52.32H44.945V53.0071H43.6822V55.6629C43.6822 56.1179 43.8865 56.2943 44.4993 56.2943H44.945V57H44.425C43.4036 57 42.8929 56.7771 42.8929 55.7929V53.0071H41.9457V52.32H42.8929V50.9086H43.6822V52.32ZM47.1198 51.1779H46.2098V50.2493H47.1198V51.1779ZM47.0548 52.32V57H46.2655V52.32H47.0548ZM50.6196 52.1993C52.0775 52.1993 52.9225 53.2671 52.9225 54.66C52.9225 56.0529 52.0775 57.1207 50.6196 57.1207C49.1525 57.1207 48.3168 56.0529 48.3168 54.66C48.3168 53.2671 49.1525 52.1993 50.6196 52.1993ZM50.6196 56.4336C51.6503 56.4336 52.1332 55.5793 52.1332 54.66C52.1332 53.75 51.6503 52.8864 50.6196 52.8864C49.5796 52.8864 49.1061 53.75 49.1061 54.66C49.1061 55.5793 49.5796 56.4336 50.6196 56.4336ZM56.4757 52.1993C57.6457 52.1993 58.3143 52.9329 58.3143 54.0564V57H57.525V54.1957C57.525 53.3414 57.1164 52.905 56.3271 52.905C55.4914 52.905 54.9436 53.6386 54.9436 54.4557V57H54.1543V52.32H54.9157V52.8307H55.0921C55.3336 52.4779 55.835 52.1993 56.4757 52.1993Z" fill="white"/>
<path d="M48 19C48 13.9609 45.9982 9.12816 42.435 5.56497C38.8718 2.00178 34.0391 3.80443e-07 29 0C23.9609 -3.80442e-07 19.1282 2.00178 15.565 5.56497C12.0018 9.12816 10 13.9609 10 19L29 19H48Z" fill="white"/>
<mask id="path-3-inside-1_1_4729" fill="white">
<path d="M10 19C10 24.0391 12.0018 28.8718 15.565 32.435C19.1282 35.9982 23.9609 38 29 38C34.0391 38 38.8718 35.9982 42.435 32.435C45.9982 28.8718 48 24.0391 48 19L29 19L10 19Z"/>
</mask>
<path d="M10 19C10 24.0391 12.0018 28.8718 15.565 32.435C19.1282 35.9982 23.9609 38 29 38C34.0391 38 38.8718 35.9982 42.435 32.435C45.9982 28.8718 48 24.0391 48 19L29 19L10 19Z" stroke="white" stroke-width="2" mask="url(#path-3-inside-1_1_4729)"/>
</svg>
