<svg width="52" height="69" viewBox="0 0 52 69" fill="none" xmlns="http://www.w3.org/2000/svg">
<mask id="path-1-outside-1_1_4809" maskUnits="userSpaceOnUse" x="4.5" y="0" width="43" height="40" fill="black">
<rect fill="white" x="4.5" width="43" height="40"/>
<path fill-rule="evenodd" clip-rule="evenodd" d="M20.8686 1.14979C19.8847 1.22153 19.0245 1.31448 18.9571 1.35626C18.8898 1.39805 17.669 2.39013 16.2443 3.56086L13.6539 5.68946L13.6941 6.8587L13.7344 8.02793L12.5989 8.00601L11.4634 7.98417L9.89613 10.9188L8.32883 13.8534L8.58839 14.6546C8.73112 15.0952 8.83986 15.4621 8.83014 15.4699C8.82041 15.4777 8.35263 15.7052 7.79066 15.9753L6.76885 16.4664L6.13446 17.9302L5.5 19.394L6.56265 22.83L7.62522 26.2659L8.69402 26.6869L9.76289 27.1079L10.5265 28.9338C10.9464 29.938 11.4516 31.1499 11.649 31.6268L12.008 32.4941L13.3464 33.1857L14.685 33.8773V34.5511V35.2249L16.1045 37.1089L17.524 38.9929L20.4134 38.9955L23.3029 38.9981L24.4386 37.4217L25.5744 35.8452V19.615V3.38474L24.3382 2.1917C23.3038 1.19339 23.0658 1.00032 22.8798 1.00899C22.7576 1.01466 21.8525 1.07805 20.8686 1.14979ZM27.6517 2.20156L26.4233 3.40319L26.4266 19.6323L26.43 35.8613L27.5645 37.4307L28.699 39L31.5879 38.9793L34.4768 38.9587L35.8981 37.0764L37.3194 35.1941L37.3225 34.5142L37.3257 33.8343L38.6575 33.1642L39.9892 32.4941L40.4297 31.4298C40.672 30.8444 41.1755 29.6345 41.5486 28.741L42.2269 27.1165L43.2824 26.6944C44.022 26.3987 44.3582 26.2242 44.4058 26.1115C44.4432 26.023 44.7917 24.9218 45.1802 23.6643C45.5687 22.4069 46.0246 20.9346 46.1933 20.3926L46.5 19.4071L45.8658 17.9368L45.2315 16.4664L44.2118 15.9728C43.6508 15.7013 43.1795 15.4694 43.1643 15.4574C43.1493 15.4455 43.2455 15.1053 43.3782 14.7014C43.511 14.2974 43.6197 13.9193 43.6197 13.8611C43.6197 13.7755 41.6354 10.0046 40.7307 8.37095L40.513 7.97787L39.3828 8.0042L38.2528 8.03053L38.2509 6.82062L38.249 5.61063L35.7952 3.60028C34.4455 2.49459 33.2537 1.523 33.1467 1.44117C32.9854 1.31779 32.6975 1.27475 31.4606 1.18897C30.6402 1.13205 29.724 1.06622 29.4246 1.04273L28.8801 1L27.6517 2.20156ZM22.9298 1.19418C22.9298 1.32418 22.5 2.26005 22.4403 2.26005C22.4001 2.26005 22.1202 2.03836 21.8182 1.76732L21.269 1.27459L21.8077 1.22942C22.6105 1.16201 22.9298 1.152 22.9298 1.19418ZM30.6911 1.27341C30.7218 1.30061 29.5998 2.26005 29.5373 2.26005C29.5094 2.26005 29.377 2.00833 29.2429 1.7007L28.9991 1.14135L29.8341 1.19764C30.2933 1.22855 30.679 1.26268 30.6911 1.27341ZM24.1426 2.19462C24.6731 2.72227 25.0959 3.1655 25.0819 3.17961C25.0681 3.19364 24.5064 3.02627 23.8337 2.8075C22.4572 2.35994 22.5417 2.46408 22.904 1.66199C23.01 1.42722 23.115 1.23517 23.1373 1.23517C23.1597 1.23517 23.612 1.66688 24.1426 2.19462ZM29.1419 1.78774C29.276 2.09166 29.3857 2.35655 29.3857 2.37649C29.3857 2.41481 26.9756 3.2061 26.8589 3.2061C26.7855 3.2061 28.7702 1.24574 28.8502 1.23911C28.8766 1.23698 29.0078 1.48382 29.1419 1.78774ZM21.7101 1.83693C22.0387 2.12453 22.3076 2.38666 22.3076 2.41946C22.3076 2.49625 19.5138 4.10602 19.4655 4.05706C19.4366 4.02782 19.123 1.67059 19.1195 1.45591C19.1185 1.3986 19.6195 1.35445 20.5628 1.32891L21.1127 1.31401L21.7101 1.83693ZM32.8626 1.42186C32.8731 1.4325 32.813 2.00683 32.729 2.69815C32.6449 3.38939 32.5759 3.98162 32.5755 4.01418C32.5739 4.13125 32.4315 4.0614 31.0311 3.25671L29.6101 2.44012L30.2514 1.86634L30.8928 1.29264L31.8681 1.34751C32.4046 1.37779 32.8521 1.41121 32.8626 1.42186ZM19.1448 2.7818C19.2201 3.45901 19.2654 4.02955 19.2455 4.04965C19.2257 4.06976 18.7161 3.86494 18.113 3.59453C17.51 3.32404 17.0258 3.09438 17.037 3.08414C17.2688 2.87175 18.9252 1.55052 18.9597 1.55052C18.9863 1.55052 19.0696 2.10459 19.1448 2.7818ZM34.0056 2.30775C34.5101 2.72424 34.8934 3.09052 34.8572 3.12174C34.7068 3.25166 32.7945 4.08584 32.7502 4.0409C32.6884 3.97823 32.9676 1.55052 33.0366 1.55052C33.065 1.55052 33.501 1.89125 34.0056 2.30775ZM22.1434 3.62488C21.9211 4.55397 21.8923 4.62185 21.7364 4.5874C21.6442 4.56706 21.1499 4.47687 20.6381 4.387C20.1263 4.29712 19.696 4.21182 19.6818 4.19747C19.6676 4.18305 19.9288 4.01134 20.2623 3.81574C21.8188 2.90305 22.3479 2.60023 22.3646 2.6123C22.3746 2.61947 22.275 3.07515 22.1434 3.62488ZM23.6783 2.89548C24.2292 3.07152 24.8461 3.26948 25.0494 3.33539L25.4188 3.4553V4.35554C25.4188 4.85072 25.3925 5.25578 25.3605 5.2557C25.1936 5.25515 22.1462 4.6455 22.1057 4.60459C22.0672 4.56548 22.3806 3.04377 22.5033 2.67395C22.5491 2.53614 22.5604 2.53827 23.6783 2.89548ZM29.5093 2.7922C29.5362 2.9114 29.6435 3.35912 29.7478 3.78705C29.8522 4.21497 29.9177 4.58519 29.8935 4.60979C29.845 4.65891 26.8624 5.24979 26.6439 5.25357C26.5224 5.25562 26.5078 5.16315 26.5078 4.3933C26.5078 3.82623 26.5386 3.51151 26.5976 3.47446C26.7148 3.40106 29.2399 2.58407 29.3647 2.57918C29.4174 2.57706 29.4824 2.673 29.5093 2.7922ZM32.2924 4.20812C32.1004 4.273 30.1215 4.60869 30.0941 4.58109C30.0642 4.5509 29.6242 2.746 29.6208 2.63949C29.6198 2.60962 30.2382 2.94444 30.995 3.3834C31.7518 3.82237 32.3355 4.19353 32.2924 4.20812ZM18.0685 3.71885C18.6246 3.96719 19.1057 4.19448 19.1375 4.22388C19.1693 4.25329 18.3838 4.74492 17.3919 5.31649C16.4001 5.88797 15.5752 6.34208 15.5589 6.32552C15.533 6.29927 16.1424 3.83096 16.1855 3.78776C16.3855 3.58656 16.9219 3.21453 16.9795 3.23692C17.0223 3.25356 17.5123 3.47044 18.0685 3.71885ZM35.4763 3.51798C35.8096 3.78847 35.8142 3.79919 36.1347 5.05191C36.3123 5.74575 36.4478 6.32316 36.4362 6.33506C36.3963 6.37542 32.8776 4.32495 32.8735 4.25897C32.8692 4.18943 34.9842 3.20476 35.0828 3.23038C35.1147 3.23874 35.2918 3.36811 35.4763 3.51798ZM15.7083 5.09196C15.5515 5.69561 15.4008 6.21223 15.3733 6.23998C15.3459 6.26781 15.1755 6.019 14.9948 5.68702C14.7151 5.17347 14.6821 5.06728 14.7736 4.97457C14.9897 4.75556 15.8921 4.00133 15.9421 3.99794C15.9704 3.99604 15.8652 4.4883 15.7083 5.09196ZM36.7555 4.57108C37.0657 4.82927 37.3194 5.05348 37.3194 5.06933C37.3194 5.18609 36.6548 6.26852 36.6118 6.22185C36.5816 6.18921 36.4485 5.73085 36.316 5.20328C36.1835 4.67578 36.0515 4.1821 36.0228 4.10634C35.9533 3.92273 36.0516 3.98509 36.7555 4.57108ZM31.5611 5.6107C31.0808 6.28894 30.6614 6.81478 30.6289 6.77915C30.5523 6.69542 30.1261 4.79443 30.1731 4.74681C30.2159 4.70345 32.3686 4.32795 32.4072 4.35712C32.4219 4.36831 32.0412 4.93239 31.5611 5.6107ZM20.3243 5.68946C20.7848 6.33987 21.1941 6.91372 21.2338 6.96481C21.2857 7.03151 20.7801 7.32549 19.4322 8.01224C17.5626 8.96483 17.5587 8.96632 17.6643 8.70782C17.7225 8.56536 18.1334 7.53559 18.5774 6.41957C19.0214 5.30348 19.4076 4.41656 19.4357 4.44865C19.4639 4.48066 19.8637 5.03906 20.3243 5.68946ZM20.8103 4.55681C21.6359 4.69383 21.8403 4.75296 21.8378 4.85387C21.8333 5.03677 21.4124 6.74139 21.3581 6.79634C21.3202 6.83473 20.5681 5.82743 19.7515 4.64487C19.5375 4.33481 19.4941 4.33835 20.8103 4.55681ZM19.1632 4.59867C18.6231 6.02547 17.4514 8.88236 17.4064 8.88236C17.301 8.88236 15.5159 6.59483 15.5746 6.53507C15.6608 6.4474 19.0704 4.47861 19.1463 4.47269C19.1829 4.46985 19.1906 4.52654 19.1632 4.59867ZM33.4984 6.65001C33.9728 7.85039 34.3479 8.84578 34.3319 8.86202C34.3158 8.87826 33.4926 8.48069 32.5025 7.97858C31.1932 7.31453 30.7189 7.03805 30.7634 6.96465C30.9891 6.5927 32.5352 4.46749 32.5802 4.46749C32.6108 4.46749 33.0241 5.44964 33.4984 6.65001ZM34.6466 5.49852C35.6242 6.06559 36.4362 6.54193 36.4512 6.55699C36.466 6.57212 36.0506 7.12319 35.528 7.78164L34.5778 8.97886L33.7344 6.87249C32.8448 4.65047 32.7762 4.46749 32.8333 4.46749C32.8529 4.46749 33.6689 4.93145 34.6466 5.49852ZM23.7369 5.09819C24.6253 5.27163 25.369 5.41353 25.3896 5.41353C25.4101 5.41353 25.4164 5.59691 25.4034 5.82104L25.3799 6.22855L23.4743 6.60177C22.4262 6.80706 21.554 6.96063 21.5361 6.94313C21.5183 6.92563 21.5813 6.56542 21.6762 6.1427C21.928 5.02085 21.9956 4.78284 22.062 4.78284C22.0947 4.78284 22.8485 4.92474 23.7369 5.09819ZM30.2398 5.85297C30.3769 6.44149 30.4771 6.93438 30.4624 6.94833C30.4391 6.97033 27.1488 6.35508 26.6828 6.24156C26.534 6.20529 26.5078 6.14664 26.5078 5.85029C26.5078 5.65856 26.5479 5.47652 26.5969 5.44586C26.6935 5.38531 29.5515 4.80594 29.8242 4.79159C29.9749 4.78363 30.0138 4.88288 30.2398 5.85297ZM14.8794 5.74867C15.0506 6.06244 15.2022 6.34602 15.2165 6.37881C15.2308 6.41161 14.9245 6.43842 14.5359 6.43842H13.8294L13.8323 6.06394C13.835 5.71824 13.8603 5.66991 14.1628 5.4345C14.3431 5.29425 14.508 5.17923 14.5294 5.17884C14.5508 5.17844 14.7083 5.43482 14.8794 5.74867ZM37.8364 5.45823C38.1433 5.71319 38.175 5.77208 38.175 6.08893C38.175 6.42068 38.1637 6.43842 37.9531 6.43842C37.8309 6.43842 37.5159 6.4612 37.253 6.48903C36.9172 6.52466 36.7749 6.51292 36.7749 6.44969C36.7749 6.34838 37.4079 5.17702 37.4627 5.17702C37.482 5.17702 37.6502 5.30356 37.8364 5.45823ZM25.4188 8.74471V11.1299L24.5236 12.4895C24.0314 13.2373 23.613 13.8491 23.5939 13.8491C23.5749 13.8491 23.5269 13.7338 23.4873 13.5929C23.4145 13.3334 22.9715 11.9108 22.0412 8.94867C21.7599 8.05292 21.5297 7.27141 21.5297 7.21196C21.5297 7.13336 22.0451 7.00415 23.4159 6.73878C24.4534 6.53806 25.3284 6.37054 25.3605 6.36667C25.3925 6.36273 25.4188 7.43294 25.4188 8.74471ZM28.6467 6.76259C29.5879 6.94226 30.3863 7.11531 30.4211 7.14716C30.4559 7.17901 30.1988 8.12348 29.8499 9.24596C29.5009 10.3684 29.0376 11.8634 28.8201 12.568C28.6026 13.2726 28.4047 13.8483 28.3802 13.8473C28.3557 13.8463 27.9243 13.2156 27.4217 12.4457L26.5078 11.046V8.75536C26.5078 7.49546 26.5305 6.44173 26.5582 6.41358C26.5859 6.38544 26.6822 6.37897 26.7721 6.39915C26.862 6.41934 27.7056 6.58292 28.6467 6.76259ZM15.2165 6.67382C15.1651 6.82795 12.7783 10.8486 12.7369 10.8509C12.6908 10.8535 11.6445 8.2538 11.6489 8.1476C11.6503 8.11205 12.1415 8.1081 12.7404 8.13893L13.8294 8.19498V7.3955V6.59609H14.5359C14.966 6.59609 15.2322 6.62652 15.2165 6.67382ZM38.175 7.39621V8.19632L39.2639 8.14169C39.8628 8.11165 40.3529 8.10621 40.3529 8.12971C40.3529 8.22242 39.3219 10.7775 39.2718 10.8089C39.2424 10.8274 38.6527 9.88698 37.9613 8.71925L36.7043 6.59609H37.4396H38.175V7.39621ZM16.3565 7.85748C16.8191 8.44285 17.2268 8.96041 17.2626 9.00756C17.306 9.06471 17.0619 9.20063 16.5314 9.41475C16.0934 9.5915 15.0957 10.0026 14.3143 10.3285C13.533 10.6543 12.9064 10.8968 12.922 10.8674C13.356 10.046 15.4185 6.67989 15.4588 6.72696C15.49 6.76338 15.8939 7.27212 16.3565 7.85748ZM37.7456 8.60643C38.3348 9.60372 38.8844 10.5335 38.967 10.6726C39.1166 10.9248 39.11 10.9227 36.9214 10.0218C35.7138 9.52465 34.7132 9.10524 34.6978 9.08963C34.6824 9.07402 35.0977 8.52405 35.6206 7.86749C36.1436 7.21094 36.5946 6.70063 36.6229 6.73342C36.6512 6.7663 37.1564 7.60914 37.7456 8.60643ZM21.2681 7.48301C21.243 7.62389 21.061 8.839 20.8638 10.1832C20.6665 11.5273 20.4941 12.6385 20.4806 12.6524C20.4669 12.6662 20.1987 12.6967 19.8844 12.72L19.313 12.7624L18.4337 10.9712C17.9502 9.98592 17.5742 9.15995 17.5982 9.13559C17.6684 9.06456 21.1729 7.23459 21.2467 7.23049C21.2836 7.22844 21.2932 7.34212 21.2681 7.48301ZM32.633 8.19388C33.6277 8.70301 34.4415 9.13693 34.4415 9.15813C34.4415 9.17942 34.0477 9.99909 33.5664 10.9796L32.6914 12.7624L32.1199 12.72C31.8056 12.6967 31.5321 12.6609 31.512 12.6405C31.4771 12.6053 30.7132 7.53772 30.7097 7.31879C30.7087 7.26092 30.7342 7.22592 30.7663 7.2409C30.7984 7.25596 31.6384 7.68475 32.633 8.19388ZM22.4592 10.723C22.9807 12.4075 23.3883 13.8048 23.3652 13.8283C23.3421 13.8517 22.7271 13.609 21.9987 13.289C20.9043 12.8082 20.6741 12.6792 20.6741 12.5461C20.6741 12.4575 20.8316 11.3221 21.024 10.0227C21.2165 8.72343 21.375 7.60717 21.3764 7.54213C21.3786 7.43704 21.3862 7.43704 21.445 7.54213C21.4814 7.60717 21.9379 9.03854 22.4592 10.723ZM30.9881 10.1238C31.1908 11.5221 31.342 12.6773 31.324 12.6911C31.2595 12.7404 28.5701 13.9159 28.5555 13.9012C28.5412 13.8866 30.4308 7.78432 30.5247 7.54213C30.5905 7.37232 30.5844 7.33889 30.9881 10.1238ZM12.0666 9.59907C12.3591 10.3392 12.5866 10.9547 12.5722 10.9669C12.5578 10.9791 11.9748 11.0109 11.2767 11.0375C10.2924 11.0751 10.013 11.0643 10.0322 10.9891C10.0718 10.8346 11.4529 8.25309 11.4959 8.25332C11.5173 8.2534 11.7742 8.85903 12.0666 9.59907ZM41.2819 9.68437C41.6693 10.4073 41.9863 11.0132 41.9863 11.0308C41.9863 11.0694 39.4714 11.0039 39.4282 10.9643C39.4115 10.949 39.6391 10.3343 39.9338 9.5982C40.2284 8.8621 40.4939 8.28462 40.5235 8.31489C40.5532 8.34517 40.8945 8.96144 41.2819 9.68437ZM18.3218 11.0504C18.8026 12.026 19.1697 12.8244 19.1377 12.8245C19.1058 12.8247 17.8428 13.0908 16.3311 13.4158C14.8195 13.7409 13.5337 14.0068 13.4738 14.0068C13.3786 14.0068 17.3059 9.28798 17.4081 9.27978C17.43 9.27797 17.8411 10.0748 18.3218 11.0504ZM36.6039 11.6264C37.6864 12.9124 38.5419 13.9748 38.5052 13.9871C38.4686 13.9995 37.1889 13.743 35.6616 13.4169C34.1342 13.0909 32.8675 12.8242 32.8466 12.8242C32.8256 12.8242 33.2018 12.026 33.6826 11.0504C34.1632 10.0748 34.5744 9.27915 34.5963 9.2823C34.618 9.28546 35.5215 10.3403 36.6039 11.6264ZM38.1944 10.693C38.7398 10.9207 39.1852 11.1474 39.1841 11.1969C39.1793 11.4143 38.8052 13.8673 38.7717 13.9013C38.7401 13.9333 35.0252 9.61113 34.8808 9.37423C34.8346 9.29846 35.2466 9.46245 38.1944 10.693ZM17.0085 9.49225C16.272 10.4364 13.25 13.9218 13.2095 13.8738C13.1303 13.7798 12.7841 11.177 12.8429 11.1174C12.9023 11.0572 16.949 9.36508 17.0474 9.35933C17.0847 9.3572 17.0672 9.41696 17.0085 9.49225ZM12.4229 11.1984C12.251 11.3564 9.99569 13.0629 9.98239 13.045C9.97267 13.0319 9.84643 12.8001 9.70183 12.5298L9.43893 12.0381L9.67017 11.6037L9.90142 11.1692L11.1784 11.1689C11.8806 11.1688 12.4407 11.182 12.4229 11.1984ZM42.32 11.6187L42.5372 12.0293L42.3672 12.3677C41.9735 13.1509 42.118 13.1687 40.8316 12.1791C40.2047 11.6968 39.6576 11.2713 39.6158 11.2334C39.5723 11.1939 40.0868 11.1738 40.8214 11.1863L42.1029 11.2081L42.32 11.6187ZM12.6982 11.4249C12.8013 11.8999 13.0567 13.949 13.0177 13.9886C12.972 14.0349 10.336 13.2367 10.2331 13.1453C10.1796 13.0979 12.4783 11.2611 12.6028 11.2517C12.6341 11.2494 12.677 11.3273 12.6982 11.4249ZM40.732 12.2676C41.3991 12.7862 41.807 13.1525 41.7432 13.1754C41.6844 13.1966 41.0325 13.4056 40.2945 13.6397C39.0562 14.0327 38.9528 14.0537 38.9528 13.9118C38.9528 13.7487 39.2401 11.7262 39.3064 11.4231C39.3563 11.1945 39.337 11.183 40.732 12.2676ZM27.5084 12.7961C27.942 13.4526 28.2967 14.0091 28.2967 14.0325C28.2967 14.0969 26.6743 15.2682 26.5851 15.2682C26.5359 15.2682 26.5078 14.5599 26.5078 13.3198C26.5078 11.67 26.524 11.3891 26.6139 11.4868C26.6723 11.5503 27.0748 12.1394 27.5084 12.7961ZM25.4188 13.4152V15.3464L24.5587 14.7059C23.9729 14.2698 23.7124 14.0292 23.7418 13.9514C23.7953 13.81 25.3483 11.484 25.3892 11.484C25.4055 11.484 25.4188 12.353 25.4188 13.4152ZM9.62778 12.6367C9.76351 12.8806 9.84565 13.1076 9.81026 13.1413C9.75418 13.1947 8.64152 13.6914 8.57797 13.6914C8.55479 13.6914 9.3452 12.1952 9.369 12.1941C9.37562 12.1938 9.49205 12.393 9.62778 12.6367ZM43.0292 12.9417C43.2256 13.3099 43.3863 13.6276 43.3863 13.6477C43.3863 13.6936 42.2817 13.2246 42.1946 13.1418C42.1302 13.0805 42.5254 12.2756 42.6209 12.2735C42.6491 12.2728 42.8328 12.5736 43.0292 12.9417ZM22.0384 13.4454C22.9454 13.8506 23.4481 14.1178 23.4848 14.214C23.5496 14.3841 23.969 19.2456 23.9288 19.3604C23.9141 19.4022 22.8943 17.9753 21.6626 16.1895L19.423 12.9425L19.6792 12.8937C20.4011 12.7563 20.6005 12.8029 22.0384 13.4454ZM32.2788 12.8879L32.5664 12.9425L30.3898 16.096C29.1927 17.8304 28.1822 19.3023 28.1441 19.3671C28.1062 19.4317 28.0607 19.4672 28.0432 19.4459C28.0256 19.4245 28.116 18.2138 28.2442 16.7553L28.4771 14.1036L29.8842 13.4709C31.3387 12.817 31.5869 12.7565 32.2788 12.8879ZM18.963 13.0136C18.963 13.031 18.0209 13.846 16.8694 14.8247L14.7757 16.6041L14.0236 15.4174C13.6099 14.7647 13.2832 14.2207 13.2976 14.2084C13.312 14.1961 14.5839 13.9178 16.1239 13.5902C17.664 13.2625 18.9329 12.9916 18.9435 12.9881C18.9542 12.9847 18.963 12.9962 18.963 13.0136ZM21.5722 16.278C22.8148 18.0857 23.8101 19.5744 23.784 19.5861C23.7579 19.598 21.9012 19.0016 19.658 18.261C17.4148 17.5203 15.4482 16.8721 15.2878 16.8205C15.1274 16.7689 15.0001 16.6912 15.005 16.6478C15.0137 16.5695 19.1996 12.9808 19.2741 12.9876C19.2955 12.9895 20.3297 14.4703 21.5722 16.278ZM34.8595 14.7678C36.02 15.75 36.9991 16.5802 37.0355 16.6126C37.0718 16.6449 36.3893 16.9081 35.5187 17.1975C34.6481 17.487 32.6645 18.1489 31.1106 18.6686C29.5566 19.1883 28.2554 19.6025 28.2187 19.5891C28.1604 19.5678 32.6455 12.9863 32.7206 12.9832C32.7366 12.9824 33.6991 13.7856 34.8595 14.7678ZM35.9388 13.6151C37.4254 13.9323 38.6417 14.2252 38.6417 14.2661C38.6417 14.3068 38.3229 14.8487 37.9333 15.4701L37.225 16.6L35.1332 14.826C33.9827 13.8504 33.0414 13.0325 33.0414 13.0086C33.0414 12.9846 33.0852 12.9816 33.1386 13.0018C33.1921 13.0219 34.4521 13.2979 35.9388 13.6151ZM9.97687 13.5535C10.1295 14.4501 10.8784 19.8658 10.8583 19.927C10.7991 20.1069 8.54024 14.2893 8.54024 13.9569C8.54024 13.8824 9.71117 13.3073 9.87847 13.2998C9.90858 13.2983 9.95291 13.4126 9.97687 13.5535ZM11.6005 13.7414C12.3772 13.9857 13.024 14.1952 13.0376 14.2069C13.0514 14.2186 12.6314 15.6174 12.1043 17.3153C11.3158 19.8552 11.1354 20.3631 11.0866 20.1807C11.0249 19.9504 10.0959 13.5971 10.0959 13.4058C10.0959 13.3461 10.1166 13.2972 10.1421 13.2972C10.1675 13.2972 10.8238 13.4971 11.6005 13.7414ZM41.9085 13.3318C41.9085 13.4001 40.9718 19.8859 40.9234 20.1528C40.8752 20.4183 40.872 20.4204 40.8029 20.2317C40.6533 19.8233 38.9528 14.3413 38.9528 14.2674C38.9528 14.2246 39.5741 13.9921 40.3334 13.7508C41.6847 13.3212 41.9085 13.2617 41.9085 13.3318ZM42.809 13.5825C43.1692 13.7394 43.4641 13.9102 43.4641 13.9619C43.4641 14.2335 41.5155 19.2733 41.1606 19.9195L41.0524 20.1166L41.0906 19.9195C41.1116 19.8111 41.3224 18.3743 41.559 16.7266C42.0195 13.5193 42.0555 13.2972 42.1151 13.2972C42.1363 13.2972 42.4486 13.4256 42.809 13.5825ZM24.5632 14.8661L25.3799 15.4788L25.4009 17.1801L25.4219 18.8814L24.9342 19.1784C24.666 19.3418 24.3739 19.5222 24.2851 19.5794C24.1242 19.6828 24.1226 19.6722 23.9113 17.1406C23.7947 15.7422 23.6829 14.5183 23.6631 14.4207C23.6431 14.3231 23.6538 14.2456 23.6867 14.2483C23.7196 14.2512 24.114 14.5291 24.5632 14.8661ZM28.3402 14.4207C28.3197 14.5183 28.2081 15.7244 28.0922 17.1011C27.9762 18.4779 27.8542 19.6042 27.8209 19.6042C27.7386 19.6042 26.8128 19.0587 26.6439 18.9107C26.5225 18.8043 26.5078 18.617 26.5078 17.1867C26.5078 15.7555 26.5225 15.5693 26.6439 15.4649C26.9372 15.2128 28.2613 14.2485 28.3177 14.246C28.3506 14.2445 28.3607 14.3231 28.3402 14.4207ZM13.9266 15.4967C14.301 16.0954 14.6072 16.6273 14.6072 16.6788C14.6072 16.765 11.3301 20.4873 11.2901 20.4467C11.2564 20.4126 13.1591 14.401 13.2025 14.4046C13.2264 14.4066 13.5523 14.898 13.9266 15.4967ZM39.5737 16.7464C39.9743 18.0364 40.3994 19.4087 40.5185 19.796C40.7733 20.6252 40.9513 20.7626 39.1456 18.737C38.4691 17.9782 37.779 17.2115 37.6119 17.0332L37.3081 16.7091L38.0333 15.5562C38.432 14.9221 38.7779 14.4028 38.8018 14.4021C38.8257 14.4015 39.1731 15.4563 39.5737 16.7464ZM9.93066 18.1034C10.4921 19.4893 10.9515 20.6523 10.9515 20.688C10.9515 20.7514 7.68714 21.1907 7.60282 21.1386C7.57925 21.124 7.71973 19.9356 7.91496 18.4975L8.26995 15.8829L8.54125 15.7365C8.69044 15.656 8.83441 15.5886 8.86117 15.5868C8.888 15.585 9.36924 16.7174 9.93066 18.1034ZM43.6815 15.8564C43.728 15.9036 44.4258 21.1004 44.3898 21.1314C44.3195 21.1916 41.0529 20.7508 41.0529 20.681C41.0529 20.6394 41.4942 19.5198 42.0337 18.193C42.5731 16.8662 43.0316 15.7372 43.0523 15.6842C43.0813 15.6103 43.1557 15.6155 43.3704 15.7064C43.5245 15.7717 43.6645 15.8392 43.6815 15.8564ZM8.02463 16.7464C7.81991 18.3296 7.44391 21.057 7.42844 21.071C7.41965 21.079 7.01269 20.7046 6.52415 20.239L5.63588 19.3924L6.20781 18.0595C6.52236 17.3264 6.81886 16.6818 6.86662 16.627C6.94292 16.5395 7.96139 15.9991 8.07939 15.9836C8.10397 15.9804 8.07931 16.3236 8.02463 16.7464ZM44.5357 16.2842L45.1372 16.5907L45.7339 17.9839L46.3307 19.377L45.4613 20.2325C44.9832 20.703 44.5828 21.079 44.5717 21.068C44.5606 21.057 44.4119 20.0048 44.2412 18.7297C44.0707 17.4545 43.9143 16.3137 43.8939 16.1945C43.8736 16.0753 43.8743 15.9777 43.8956 15.9777C43.9169 15.9777 44.2049 16.1157 44.5357 16.2842ZM20.4584 18.6607C22.2006 19.2395 23.617 19.7223 23.6059 19.7336C23.5745 19.7654 11.3986 20.7149 11.3384 20.6903C11.3091 20.6783 12.0698 19.7948 13.0288 18.727L14.7724 16.7854L16.0315 17.1968C16.724 17.4231 18.7162 18.0818 20.4584 18.6607ZM39.0253 18.8055C39.9307 19.8187 40.6583 20.6611 40.6423 20.6774C40.6054 20.7148 28.4387 19.7744 28.3957 19.7309C28.3783 19.7132 28.4802 19.6619 28.6221 19.6169C28.9905 19.5001 35.7499 17.2722 36.5416 17.0067C37.0333 16.8418 37.2253 16.8078 37.2909 16.8741C37.3394 16.923 38.1199 17.7922 39.0253 18.8055ZM25.4163 20.1363L25.4136 21.2204L24.9482 20.7079C24.6922 20.4261 24.4159 20.105 24.3343 19.9944L24.1858 19.7933L24.7829 19.4257C25.1113 19.2235 25.3887 19.0568 25.3994 19.0552C25.41 19.0536 25.4177 19.5402 25.4163 20.1363ZM27.2576 19.4617L27.8129 19.8102L27.2448 20.4736C26.9323 20.8385 26.6387 21.1499 26.5922 21.1656C26.5342 21.1851 26.5078 20.8561 26.5078 20.1147C26.5078 19.2831 26.5301 19.0444 26.605 19.0744C26.6585 19.0959 26.9521 19.2702 27.2576 19.4617ZM7.37352 21.3184C7.37352 21.5754 6.87269 23.3064 6.82462 23.2153C6.7669 23.1059 5.74011 19.794 5.74011 19.7173C5.74011 19.6924 6.10763 20.0198 6.55682 20.445C7.006 20.8702 7.37352 21.2632 7.37352 21.3184ZM46.1566 20.0181C45.4578 22.3544 45.1383 23.3046 45.0939 23.1783C45.066 23.0987 44.9417 22.633 44.8176 22.1435L44.5919 21.2533L45.4086 20.472C45.8578 20.0422 46.2324 19.6889 46.2411 19.6868C46.2497 19.6848 46.2117 19.8338 46.1566 20.0181ZM21.9152 23.9205C17.1909 33.3742 16.6844 34.3645 16.6273 34.2575C16.5957 34.1981 15.8085 32.2694 14.8779 29.9713C13.9474 27.6732 12.7374 24.6931 12.1892 23.349C11.5412 21.7603 11.2246 20.8937 11.2845 20.8726C11.3352 20.8548 14.1599 20.6202 17.5616 20.3513C20.9633 20.0824 23.7932 19.8576 23.8503 19.8516C23.9078 19.8456 23.0448 21.6602 21.9152 23.9205ZM34.7806 20.3922C38.0686 20.6476 40.767 20.8676 40.7768 20.8808C40.7866 20.8941 40.1953 22.3773 39.4627 24.1767C38.7302 25.9762 37.5037 29.0005 36.7373 30.8976C35.9708 32.7946 35.3202 34.3201 35.2915 34.2876C35.2345 34.2229 34.1697 32.1168 31.9135 27.6062C31.1111 26.0018 29.9165 23.6211 29.259 22.3156C28.6014 21.0101 28.0634 19.9209 28.0634 19.8951C28.0634 19.8692 28.2296 19.866 28.4328 19.8879C28.6361 19.9098 31.4925 20.1367 34.7806 20.3922ZM28.3212 20.7276C28.5533 21.172 29.6273 23.3095 30.708 25.4776C31.7887 27.6456 33.2283 30.5232 33.9072 31.8723C34.5861 33.2215 35.1415 34.3459 35.1415 34.3709C35.1415 34.426 35.0613 34.3922 30.3968 32.3762C28.3648 31.4979 26.6585 30.7439 26.605 30.7007C26.5292 30.6394 26.5078 29.6169 26.5078 26.0688V21.5156L27.1883 20.7227C27.5627 20.2865 27.8758 19.9274 27.8842 19.9246C27.8925 19.9218 28.0892 20.2832 28.3212 20.7276ZM24.7917 20.7264L25.4201 21.4546L25.4 26.0916L25.3799 30.7287L21.1408 32.5675C18.8093 33.5788 16.8888 34.3945 16.8728 34.38C16.8569 34.3656 18.262 31.5229 19.9953 28.063C21.7286 24.6031 23.3432 21.3731 23.5834 20.8853C23.8235 20.3975 24.0524 19.9984 24.0918 19.9984C24.1312 19.9984 24.4462 20.326 24.7917 20.7264ZM10.9515 20.8937C10.9515 20.9454 9.77207 23.1113 9.70564 23.1817C9.65197 23.2386 7.77503 21.5106 7.70184 21.337C7.68994 21.3087 8.37247 21.1954 9.21858 21.0852C11.0297 20.8494 10.9515 20.858 10.9515 20.8937ZM42.8354 21.114L44.3456 21.2953L43.3489 22.2605C42.8007 22.7913 42.3266 23.2097 42.2955 23.1901C42.2393 23.1549 41.0529 20.9596 41.0529 20.8908C41.0529 20.8711 41.1142 20.8724 41.189 20.8939C41.2638 20.9153 42.0047 21.0144 42.8354 21.114ZM11.9442 23.073C14.1334 28.4927 15.9617 33.0046 16.0941 33.3144C16.1757 33.5053 16.2317 33.6725 16.2184 33.686C16.2051 33.6994 15.0436 31.858 13.6372 29.594C12.2307 27.3299 10.7857 25.0078 10.4261 24.4337L9.77215 23.3898L10.4117 22.2019C10.7634 21.5486 11.0765 21.0427 11.1076 21.0777C11.1386 21.1128 11.5151 22.0107 11.9442 23.073ZM41.6589 22.3368L42.2147 23.3745L39.0087 28.5387C37.2454 31.3791 35.7927 33.6928 35.7803 33.6803C35.7553 33.6549 40.7621 21.2692 40.8754 21.0766C40.9263 20.9901 41.007 21.1198 41.6589 22.3368ZM8.53775 22.3535C9.05625 22.8466 9.46118 23.2696 9.43769 23.2934C9.38907 23.3427 7.03961 23.5401 6.99333 23.4987C6.94292 23.4537 7.48553 21.4157 7.54231 21.437C7.57132 21.448 8.01934 21.8604 8.53775 22.3535ZM44.7785 22.5277C44.9112 23.0299 45.0197 23.4561 45.0197 23.4747C45.0197 23.5241 42.621 23.3484 42.5685 23.2953C42.5442 23.2706 42.9542 22.8399 43.4795 22.3381C44.0882 21.7568 44.4533 21.4599 44.4859 21.5201C44.5141 21.5721 44.6458 22.0254 44.7785 22.5277ZM10.4222 24.6695C10.8299 25.3307 12.3583 27.7959 13.8187 30.1476C15.2791 32.4993 16.474 34.4417 16.474 34.464C16.474 34.5208 15.6341 34.5144 15.2014 34.4543C14.8428 34.4044 14.8405 34.4022 14.8405 34.0992V33.7943L13.4853 33.1088L12.13 32.4233L11.0243 29.7782C10.4162 28.3234 9.88687 27.0977 9.84806 27.0543C9.80925 27.0109 9.31541 26.793 8.75056 26.5699L7.72354 26.1643L7.34039 24.9348C7.1296 24.2586 6.97225 23.69 6.9906 23.6714C7.02763 23.6339 8.66353 23.4965 9.28562 23.4786L9.68099 23.4672L10.4222 24.6695ZM43.7752 23.5571C44.4383 23.6071 44.992 23.657 45.0055 23.668C45.0529 23.7065 44.3038 26.0301 44.2149 26.1206C44.1656 26.1707 43.7052 26.3766 43.1919 26.5781C42.6785 26.7796 42.2167 26.987 42.1656 27.0388C42.086 27.1196 41.5439 28.3817 40.1581 31.7134L39.8598 32.4307L38.5118 33.1124L37.1638 33.7943V34.1026V34.4108L36.4381 34.466C36.039 34.4964 35.6601 34.5085 35.5961 34.493C35.513 34.473 35.9933 33.6394 37.2746 31.5799C38.2618 29.993 39.8 27.5186 40.6928 26.081C41.7395 24.3958 42.3612 23.4671 42.4429 23.4667C42.5126 23.4664 43.1122 23.5071 43.7752 23.5571ZM25.4188 33.3522V35.8264L24.7459 36.7619C24.3758 37.2764 24.0668 37.706 24.0593 37.7165C24.0314 37.7559 16.9406 34.6339 16.9406 34.5823C16.9406 34.5354 25.2078 30.9057 25.3605 30.8856C25.3925 30.8814 25.4188 31.9913 25.4188 33.3522ZM30.8441 32.7101C33.1648 33.7181 35.0637 34.5632 35.0637 34.588C35.0637 34.6128 34.1799 35.0177 33.0997 35.4878C32.0196 35.9579 30.4213 36.6575 29.548 37.0425C28.6747 37.4275 27.9349 37.7146 27.9039 37.6805C27.873 37.6464 27.5461 37.1975 27.1777 36.683L26.5078 35.7476V33.3127C26.5078 31.9736 26.534 30.8777 26.5661 30.8776C26.5982 30.8774 28.5233 31.7021 30.8441 32.7101ZM16.3329 34.6517L16.5419 34.7015L16.1111 35.5126L15.6803 36.3238L15.2604 35.755C14.9235 35.2986 14.8405 35.1267 14.8405 34.8847V34.5832L15.4822 34.5925C15.8351 34.5977 16.218 34.6243 16.3329 34.6517ZM37.1638 34.8905C37.1638 35.1444 37.0871 35.2971 36.7229 35.769L36.2819 36.3402L35.8755 35.5208L35.469 34.7015L35.7525 34.6536C35.9084 34.6271 36.2897 34.6006 36.5999 34.5944L37.1638 34.5832V34.8905ZM17.4844 36.7513C17.9213 37.8353 18.2947 38.7487 18.3143 38.7813C18.3339 38.8139 18.1785 38.8404 17.9691 38.8404H17.5883L16.6858 37.6472L15.7833 36.4539L16.2111 35.5891C16.4465 35.1134 16.6505 34.7369 16.6645 34.7523C16.6786 34.7677 17.0475 35.6672 17.4844 36.7513ZM20.9075 36.5132C22.469 37.1957 23.7921 37.7793 23.8478 37.81C23.9221 37.8509 23.8549 37.9955 23.5952 38.3531L23.2412 38.8404H20.8675H18.4938L18.3787 38.5842C18.1643 38.1068 16.8629 34.861 16.8629 34.8037C16.8629 34.7724 17.1342 34.8651 17.4657 35.0096C17.7972 35.1541 19.346 35.8307 20.9075 36.5132ZM34.3428 36.8027L33.5334 38.801L31.129 38.8192L28.7245 38.8374L28.3847 38.3622C28.1978 38.1008 28.0662 37.8653 28.0922 37.8389C28.1633 37.7668 35.0986 34.751 35.1274 34.7796C35.141 34.7933 34.788 35.7036 34.3428 36.8027ZM36.122 36.5213C36.0997 36.5803 35.7037 37.126 35.242 37.734L34.4026 38.8394L34.0248 38.8399C33.7526 38.8403 33.6584 38.8129 33.6876 38.7419C33.7876 38.4993 35.2404 34.9263 35.2792 34.8275C35.3046 34.7632 35.4985 35.0719 35.7428 35.5655C35.9737 36.0321 36.1444 36.4622 36.122 36.5213Z"/>
</mask>
<path fill-rule="evenodd" clip-rule="evenodd" d="M20.8686 1.14979C19.8847 1.22153 19.0245 1.31448 18.9571 1.35626C18.8898 1.39805 17.669 2.39013 16.2443 3.56086L13.6539 5.68946L13.6941 6.8587L13.7344 8.02793L12.5989 8.00601L11.4634 7.98417L9.89613 10.9188L8.32883 13.8534L8.58839 14.6546C8.73112 15.0952 8.83986 15.4621 8.83014 15.4699C8.82041 15.4777 8.35263 15.7052 7.79066 15.9753L6.76885 16.4664L6.13446 17.9302L5.5 19.394L6.56265 22.83L7.62522 26.2659L8.69402 26.6869L9.76289 27.1079L10.5265 28.9338C10.9464 29.938 11.4516 31.1499 11.649 31.6268L12.008 32.4941L13.3464 33.1857L14.685 33.8773V34.5511V35.2249L16.1045 37.1089L17.524 38.9929L20.4134 38.9955L23.3029 38.9981L24.4386 37.4217L25.5744 35.8452V19.615V3.38474L24.3382 2.1917C23.3038 1.19339 23.0658 1.00032 22.8798 1.00899C22.7576 1.01466 21.8525 1.07805 20.8686 1.14979ZM27.6517 2.20156L26.4233 3.40319L26.4266 19.6323L26.43 35.8613L27.5645 37.4307L28.699 39L31.5879 38.9793L34.4768 38.9587L35.8981 37.0764L37.3194 35.1941L37.3225 34.5142L37.3257 33.8343L38.6575 33.1642L39.9892 32.4941L40.4297 31.4298C40.672 30.8444 41.1755 29.6345 41.5486 28.741L42.2269 27.1165L43.2824 26.6944C44.022 26.3987 44.3582 26.2242 44.4058 26.1115C44.4432 26.023 44.7917 24.9218 45.1802 23.6643C45.5687 22.4069 46.0246 20.9346 46.1933 20.3926L46.5 19.4071L45.8658 17.9368L45.2315 16.4664L44.2118 15.9728C43.6508 15.7013 43.1795 15.4694 43.1643 15.4574C43.1493 15.4455 43.2455 15.1053 43.3782 14.7014C43.511 14.2974 43.6197 13.9193 43.6197 13.8611C43.6197 13.7755 41.6354 10.0046 40.7307 8.37095L40.513 7.97787L39.3828 8.0042L38.2528 8.03053L38.2509 6.82062L38.249 5.61063L35.7952 3.60028C34.4455 2.49459 33.2537 1.523 33.1467 1.44117C32.9854 1.31779 32.6975 1.27475 31.4606 1.18897C30.6402 1.13205 29.724 1.06622 29.4246 1.04273L28.8801 1L27.6517 2.20156ZM22.9298 1.19418C22.9298 1.32418 22.5 2.26005 22.4403 2.26005C22.4001 2.26005 22.1202 2.03836 21.8182 1.76732L21.269 1.27459L21.8077 1.22942C22.6105 1.16201 22.9298 1.152 22.9298 1.19418ZM30.6911 1.27341C30.7218 1.30061 29.5998 2.26005 29.5373 2.26005C29.5094 2.26005 29.377 2.00833 29.2429 1.7007L28.9991 1.14135L29.8341 1.19764C30.2933 1.22855 30.679 1.26268 30.6911 1.27341ZM24.1426 2.19462C24.6731 2.72227 25.0959 3.1655 25.0819 3.17961C25.0681 3.19364 24.5064 3.02627 23.8337 2.8075C22.4572 2.35994 22.5417 2.46408 22.904 1.66199C23.01 1.42722 23.115 1.23517 23.1373 1.23517C23.1597 1.23517 23.612 1.66688 24.1426 2.19462ZM29.1419 1.78774C29.276 2.09166 29.3857 2.35655 29.3857 2.37649C29.3857 2.41481 26.9756 3.2061 26.8589 3.2061C26.7855 3.2061 28.7702 1.24574 28.8502 1.23911C28.8766 1.23698 29.0078 1.48382 29.1419 1.78774ZM21.7101 1.83693C22.0387 2.12453 22.3076 2.38666 22.3076 2.41946C22.3076 2.49625 19.5138 4.10602 19.4655 4.05706C19.4366 4.02782 19.123 1.67059 19.1195 1.45591C19.1185 1.3986 19.6195 1.35445 20.5628 1.32891L21.1127 1.31401L21.7101 1.83693ZM32.8626 1.42186C32.8731 1.4325 32.813 2.00683 32.729 2.69815C32.6449 3.38939 32.5759 3.98162 32.5755 4.01418C32.5739 4.13125 32.4315 4.0614 31.0311 3.25671L29.6101 2.44012L30.2514 1.86634L30.8928 1.29264L31.8681 1.34751C32.4046 1.37779 32.8521 1.41121 32.8626 1.42186ZM19.1448 2.7818C19.2201 3.45901 19.2654 4.02955 19.2455 4.04965C19.2257 4.06976 18.7161 3.86494 18.113 3.59453C17.51 3.32404 17.0258 3.09438 17.037 3.08414C17.2688 2.87175 18.9252 1.55052 18.9597 1.55052C18.9863 1.55052 19.0696 2.10459 19.1448 2.7818ZM34.0056 2.30775C34.5101 2.72424 34.8934 3.09052 34.8572 3.12174C34.7068 3.25166 32.7945 4.08584 32.7502 4.0409C32.6884 3.97823 32.9676 1.55052 33.0366 1.55052C33.065 1.55052 33.501 1.89125 34.0056 2.30775ZM22.1434 3.62488C21.9211 4.55397 21.8923 4.62185 21.7364 4.5874C21.6442 4.56706 21.1499 4.47687 20.6381 4.387C20.1263 4.29712 19.696 4.21182 19.6818 4.19747C19.6676 4.18305 19.9288 4.01134 20.2623 3.81574C21.8188 2.90305 22.3479 2.60023 22.3646 2.6123C22.3746 2.61947 22.275 3.07515 22.1434 3.62488ZM23.6783 2.89548C24.2292 3.07152 24.8461 3.26948 25.0494 3.33539L25.4188 3.4553V4.35554C25.4188 4.85072 25.3925 5.25578 25.3605 5.2557C25.1936 5.25515 22.1462 4.6455 22.1057 4.60459C22.0672 4.56548 22.3806 3.04377 22.5033 2.67395C22.5491 2.53614 22.5604 2.53827 23.6783 2.89548ZM29.5093 2.7922C29.5362 2.9114 29.6435 3.35912 29.7478 3.78705C29.8522 4.21497 29.9177 4.58519 29.8935 4.60979C29.845 4.65891 26.8624 5.24979 26.6439 5.25357C26.5224 5.25562 26.5078 5.16315 26.5078 4.3933C26.5078 3.82623 26.5386 3.51151 26.5976 3.47446C26.7148 3.40106 29.2399 2.58407 29.3647 2.57918C29.4174 2.57706 29.4824 2.673 29.5093 2.7922ZM32.2924 4.20812C32.1004 4.273 30.1215 4.60869 30.0941 4.58109C30.0642 4.5509 29.6242 2.746 29.6208 2.63949C29.6198 2.60962 30.2382 2.94444 30.995 3.3834C31.7518 3.82237 32.3355 4.19353 32.2924 4.20812ZM18.0685 3.71885C18.6246 3.96719 19.1057 4.19448 19.1375 4.22388C19.1693 4.25329 18.3838 4.74492 17.3919 5.31649C16.4001 5.88797 15.5752 6.34208 15.5589 6.32552C15.533 6.29927 16.1424 3.83096 16.1855 3.78776C16.3855 3.58656 16.9219 3.21453 16.9795 3.23692C17.0223 3.25356 17.5123 3.47044 18.0685 3.71885ZM35.4763 3.51798C35.8096 3.78847 35.8142 3.79919 36.1347 5.05191C36.3123 5.74575 36.4478 6.32316 36.4362 6.33506C36.3963 6.37542 32.8776 4.32495 32.8735 4.25897C32.8692 4.18943 34.9842 3.20476 35.0828 3.23038C35.1147 3.23874 35.2918 3.36811 35.4763 3.51798ZM15.7083 5.09196C15.5515 5.69561 15.4008 6.21223 15.3733 6.23998C15.3459 6.26781 15.1755 6.019 14.9948 5.68702C14.7151 5.17347 14.6821 5.06728 14.7736 4.97457C14.9897 4.75556 15.8921 4.00133 15.9421 3.99794C15.9704 3.99604 15.8652 4.4883 15.7083 5.09196ZM36.7555 4.57108C37.0657 4.82927 37.3194 5.05348 37.3194 5.06933C37.3194 5.18609 36.6548 6.26852 36.6118 6.22185C36.5816 6.18921 36.4485 5.73085 36.316 5.20328C36.1835 4.67578 36.0515 4.1821 36.0228 4.10634C35.9533 3.92273 36.0516 3.98509 36.7555 4.57108ZM31.5611 5.6107C31.0808 6.28894 30.6614 6.81478 30.6289 6.77915C30.5523 6.69542 30.1261 4.79443 30.1731 4.74681C30.2159 4.70345 32.3686 4.32795 32.4072 4.35712C32.4219 4.36831 32.0412 4.93239 31.5611 5.6107ZM20.3243 5.68946C20.7848 6.33987 21.1941 6.91372 21.2338 6.96481C21.2857 7.03151 20.7801 7.32549 19.4322 8.01224C17.5626 8.96483 17.5587 8.96632 17.6643 8.70782C17.7225 8.56536 18.1334 7.53559 18.5774 6.41957C19.0214 5.30348 19.4076 4.41656 19.4357 4.44865C19.4639 4.48066 19.8637 5.03906 20.3243 5.68946ZM20.8103 4.55681C21.6359 4.69383 21.8403 4.75296 21.8378 4.85387C21.8333 5.03677 21.4124 6.74139 21.3581 6.79634C21.3202 6.83473 20.5681 5.82743 19.7515 4.64487C19.5375 4.33481 19.4941 4.33835 20.8103 4.55681ZM19.1632 4.59867C18.6231 6.02547 17.4514 8.88236 17.4064 8.88236C17.301 8.88236 15.5159 6.59483 15.5746 6.53507C15.6608 6.4474 19.0704 4.47861 19.1463 4.47269C19.1829 4.46985 19.1906 4.52654 19.1632 4.59867ZM33.4984 6.65001C33.9728 7.85039 34.3479 8.84578 34.3319 8.86202C34.3158 8.87826 33.4926 8.48069 32.5025 7.97858C31.1932 7.31453 30.7189 7.03805 30.7634 6.96465C30.9891 6.5927 32.5352 4.46749 32.5802 4.46749C32.6108 4.46749 33.0241 5.44964 33.4984 6.65001ZM34.6466 5.49852C35.6242 6.06559 36.4362 6.54193 36.4512 6.55699C36.466 6.57212 36.0506 7.12319 35.528 7.78164L34.5778 8.97886L33.7344 6.87249C32.8448 4.65047 32.7762 4.46749 32.8333 4.46749C32.8529 4.46749 33.6689 4.93145 34.6466 5.49852ZM23.7369 5.09819C24.6253 5.27163 25.369 5.41353 25.3896 5.41353C25.4101 5.41353 25.4164 5.59691 25.4034 5.82104L25.3799 6.22855L23.4743 6.60177C22.4262 6.80706 21.554 6.96063 21.5361 6.94313C21.5183 6.92563 21.5813 6.56542 21.6762 6.1427C21.928 5.02085 21.9956 4.78284 22.062 4.78284C22.0947 4.78284 22.8485 4.92474 23.7369 5.09819ZM30.2398 5.85297C30.3769 6.44149 30.4771 6.93438 30.4624 6.94833C30.4391 6.97033 27.1488 6.35508 26.6828 6.24156C26.534 6.20529 26.5078 6.14664 26.5078 5.85029C26.5078 5.65856 26.5479 5.47652 26.5969 5.44586C26.6935 5.38531 29.5515 4.80594 29.8242 4.79159C29.9749 4.78363 30.0138 4.88288 30.2398 5.85297ZM14.8794 5.74867C15.0506 6.06244 15.2022 6.34602 15.2165 6.37881C15.2308 6.41161 14.9245 6.43842 14.5359 6.43842H13.8294L13.8323 6.06394C13.835 5.71824 13.8603 5.66991 14.1628 5.4345C14.3431 5.29425 14.508 5.17923 14.5294 5.17884C14.5508 5.17844 14.7083 5.43482 14.8794 5.74867ZM37.8364 5.45823C38.1433 5.71319 38.175 5.77208 38.175 6.08893C38.175 6.42068 38.1637 6.43842 37.9531 6.43842C37.8309 6.43842 37.5159 6.4612 37.253 6.48903C36.9172 6.52466 36.7749 6.51292 36.7749 6.44969C36.7749 6.34838 37.4079 5.17702 37.4627 5.17702C37.482 5.17702 37.6502 5.30356 37.8364 5.45823ZM25.4188 8.74471V11.1299L24.5236 12.4895C24.0314 13.2373 23.613 13.8491 23.5939 13.8491C23.5749 13.8491 23.5269 13.7338 23.4873 13.5929C23.4145 13.3334 22.9715 11.9108 22.0412 8.94867C21.7599 8.05292 21.5297 7.27141 21.5297 7.21196C21.5297 7.13336 22.0451 7.00415 23.4159 6.73878C24.4534 6.53806 25.3284 6.37054 25.3605 6.36667C25.3925 6.36273 25.4188 7.43294 25.4188 8.74471ZM28.6467 6.76259C29.5879 6.94226 30.3863 7.11531 30.4211 7.14716C30.4559 7.17901 30.1988 8.12348 29.8499 9.24596C29.5009 10.3684 29.0376 11.8634 28.8201 12.568C28.6026 13.2726 28.4047 13.8483 28.3802 13.8473C28.3557 13.8463 27.9243 13.2156 27.4217 12.4457L26.5078 11.046V8.75536C26.5078 7.49546 26.5305 6.44173 26.5582 6.41358C26.5859 6.38544 26.6822 6.37897 26.7721 6.39915C26.862 6.41934 27.7056 6.58292 28.6467 6.76259ZM15.2165 6.67382C15.1651 6.82795 12.7783 10.8486 12.7369 10.8509C12.6908 10.8535 11.6445 8.2538 11.6489 8.1476C11.6503 8.11205 12.1415 8.1081 12.7404 8.13893L13.8294 8.19498V7.3955V6.59609H14.5359C14.966 6.59609 15.2322 6.62652 15.2165 6.67382ZM38.175 7.39621V8.19632L39.2639 8.14169C39.8628 8.11165 40.3529 8.10621 40.3529 8.12971C40.3529 8.22242 39.3219 10.7775 39.2718 10.8089C39.2424 10.8274 38.6527 9.88698 37.9613 8.71925L36.7043 6.59609H37.4396H38.175V7.39621ZM16.3565 7.85748C16.8191 8.44285 17.2268 8.96041 17.2626 9.00756C17.306 9.06471 17.0619 9.20063 16.5314 9.41475C16.0934 9.5915 15.0957 10.0026 14.3143 10.3285C13.533 10.6543 12.9064 10.8968 12.922 10.8674C13.356 10.046 15.4185 6.67989 15.4588 6.72696C15.49 6.76338 15.8939 7.27212 16.3565 7.85748ZM37.7456 8.60643C38.3348 9.60372 38.8844 10.5335 38.967 10.6726C39.1166 10.9248 39.11 10.9227 36.9214 10.0218C35.7138 9.52465 34.7132 9.10524 34.6978 9.08963C34.6824 9.07402 35.0977 8.52405 35.6206 7.86749C36.1436 7.21094 36.5946 6.70063 36.6229 6.73342C36.6512 6.7663 37.1564 7.60914 37.7456 8.60643ZM21.2681 7.48301C21.243 7.62389 21.061 8.839 20.8638 10.1832C20.6665 11.5273 20.4941 12.6385 20.4806 12.6524C20.4669 12.6662 20.1987 12.6967 19.8844 12.72L19.313 12.7624L18.4337 10.9712C17.9502 9.98592 17.5742 9.15995 17.5982 9.13559C17.6684 9.06456 21.1729 7.23459 21.2467 7.23049C21.2836 7.22844 21.2932 7.34212 21.2681 7.48301ZM32.633 8.19388C33.6277 8.70301 34.4415 9.13693 34.4415 9.15813C34.4415 9.17942 34.0477 9.99909 33.5664 10.9796L32.6914 12.7624L32.1199 12.72C31.8056 12.6967 31.5321 12.6609 31.512 12.6405C31.4771 12.6053 30.7132 7.53772 30.7097 7.31879C30.7087 7.26092 30.7342 7.22592 30.7663 7.2409C30.7984 7.25596 31.6384 7.68475 32.633 8.19388ZM22.4592 10.723C22.9807 12.4075 23.3883 13.8048 23.3652 13.8283C23.3421 13.8517 22.7271 13.609 21.9987 13.289C20.9043 12.8082 20.6741 12.6792 20.6741 12.5461C20.6741 12.4575 20.8316 11.3221 21.024 10.0227C21.2165 8.72343 21.375 7.60717 21.3764 7.54213C21.3786 7.43704 21.3862 7.43704 21.445 7.54213C21.4814 7.60717 21.9379 9.03854 22.4592 10.723ZM30.9881 10.1238C31.1908 11.5221 31.342 12.6773 31.324 12.6911C31.2595 12.7404 28.5701 13.9159 28.5555 13.9012C28.5412 13.8866 30.4308 7.78432 30.5247 7.54213C30.5905 7.37232 30.5844 7.33889 30.9881 10.1238ZM12.0666 9.59907C12.3591 10.3392 12.5866 10.9547 12.5722 10.9669C12.5578 10.9791 11.9748 11.0109 11.2767 11.0375C10.2924 11.0751 10.013 11.0643 10.0322 10.9891C10.0718 10.8346 11.4529 8.25309 11.4959 8.25332C11.5173 8.2534 11.7742 8.85903 12.0666 9.59907ZM41.2819 9.68437C41.6693 10.4073 41.9863 11.0132 41.9863 11.0308C41.9863 11.0694 39.4714 11.0039 39.4282 10.9643C39.4115 10.949 39.6391 10.3343 39.9338 9.5982C40.2284 8.8621 40.4939 8.28462 40.5235 8.31489C40.5532 8.34517 40.8945 8.96144 41.2819 9.68437ZM18.3218 11.0504C18.8026 12.026 19.1697 12.8244 19.1377 12.8245C19.1058 12.8247 17.8428 13.0908 16.3311 13.4158C14.8195 13.7409 13.5337 14.0068 13.4738 14.0068C13.3786 14.0068 17.3059 9.28798 17.4081 9.27978C17.43 9.27797 17.8411 10.0748 18.3218 11.0504ZM36.6039 11.6264C37.6864 12.9124 38.5419 13.9748 38.5052 13.9871C38.4686 13.9995 37.1889 13.743 35.6616 13.4169C34.1342 13.0909 32.8675 12.8242 32.8466 12.8242C32.8256 12.8242 33.2018 12.026 33.6826 11.0504C34.1632 10.0748 34.5744 9.27915 34.5963 9.2823C34.618 9.28546 35.5215 10.3403 36.6039 11.6264ZM38.1944 10.693C38.7398 10.9207 39.1852 11.1474 39.1841 11.1969C39.1793 11.4143 38.8052 13.8673 38.7717 13.9013C38.7401 13.9333 35.0252 9.61113 34.8808 9.37423C34.8346 9.29846 35.2466 9.46245 38.1944 10.693ZM17.0085 9.49225C16.272 10.4364 13.25 13.9218 13.2095 13.8738C13.1303 13.7798 12.7841 11.177 12.8429 11.1174C12.9023 11.0572 16.949 9.36508 17.0474 9.35933C17.0847 9.3572 17.0672 9.41696 17.0085 9.49225ZM12.4229 11.1984C12.251 11.3564 9.99569 13.0629 9.98239 13.045C9.97267 13.0319 9.84643 12.8001 9.70183 12.5298L9.43893 12.0381L9.67017 11.6037L9.90142 11.1692L11.1784 11.1689C11.8806 11.1688 12.4407 11.182 12.4229 11.1984ZM42.32 11.6187L42.5372 12.0293L42.3672 12.3677C41.9735 13.1509 42.118 13.1687 40.8316 12.1791C40.2047 11.6968 39.6576 11.2713 39.6158 11.2334C39.5723 11.1939 40.0868 11.1738 40.8214 11.1863L42.1029 11.2081L42.32 11.6187ZM12.6982 11.4249C12.8013 11.8999 13.0567 13.949 13.0177 13.9886C12.972 14.0349 10.336 13.2367 10.2331 13.1453C10.1796 13.0979 12.4783 11.2611 12.6028 11.2517C12.6341 11.2494 12.677 11.3273 12.6982 11.4249ZM40.732 12.2676C41.3991 12.7862 41.807 13.1525 41.7432 13.1754C41.6844 13.1966 41.0325 13.4056 40.2945 13.6397C39.0562 14.0327 38.9528 14.0537 38.9528 13.9118C38.9528 13.7487 39.2401 11.7262 39.3064 11.4231C39.3563 11.1945 39.337 11.183 40.732 12.2676ZM27.5084 12.7961C27.942 13.4526 28.2967 14.0091 28.2967 14.0325C28.2967 14.0969 26.6743 15.2682 26.5851 15.2682C26.5359 15.2682 26.5078 14.5599 26.5078 13.3198C26.5078 11.67 26.524 11.3891 26.6139 11.4868C26.6723 11.5503 27.0748 12.1394 27.5084 12.7961ZM25.4188 13.4152V15.3464L24.5587 14.7059C23.9729 14.2698 23.7124 14.0292 23.7418 13.9514C23.7953 13.81 25.3483 11.484 25.3892 11.484C25.4055 11.484 25.4188 12.353 25.4188 13.4152ZM9.62778 12.6367C9.76351 12.8806 9.84565 13.1076 9.81026 13.1413C9.75418 13.1947 8.64152 13.6914 8.57797 13.6914C8.55479 13.6914 9.3452 12.1952 9.369 12.1941C9.37562 12.1938 9.49205 12.393 9.62778 12.6367ZM43.0292 12.9417C43.2256 13.3099 43.3863 13.6276 43.3863 13.6477C43.3863 13.6936 42.2817 13.2246 42.1946 13.1418C42.1302 13.0805 42.5254 12.2756 42.6209 12.2735C42.6491 12.2728 42.8328 12.5736 43.0292 12.9417ZM22.0384 13.4454C22.9454 13.8506 23.4481 14.1178 23.4848 14.214C23.5496 14.3841 23.969 19.2456 23.9288 19.3604C23.9141 19.4022 22.8943 17.9753 21.6626 16.1895L19.423 12.9425L19.6792 12.8937C20.4011 12.7563 20.6005 12.8029 22.0384 13.4454ZM32.2788 12.8879L32.5664 12.9425L30.3898 16.096C29.1927 17.8304 28.1822 19.3023 28.1441 19.3671C28.1062 19.4317 28.0607 19.4672 28.0432 19.4459C28.0256 19.4245 28.116 18.2138 28.2442 16.7553L28.4771 14.1036L29.8842 13.4709C31.3387 12.817 31.5869 12.7565 32.2788 12.8879ZM18.963 13.0136C18.963 13.031 18.0209 13.846 16.8694 14.8247L14.7757 16.6041L14.0236 15.4174C13.6099 14.7647 13.2832 14.2207 13.2976 14.2084C13.312 14.1961 14.5839 13.9178 16.1239 13.5902C17.664 13.2625 18.9329 12.9916 18.9435 12.9881C18.9542 12.9847 18.963 12.9962 18.963 13.0136ZM21.5722 16.278C22.8148 18.0857 23.8101 19.5744 23.784 19.5861C23.7579 19.598 21.9012 19.0016 19.658 18.261C17.4148 17.5203 15.4482 16.8721 15.2878 16.8205C15.1274 16.7689 15.0001 16.6912 15.005 16.6478C15.0137 16.5695 19.1996 12.9808 19.2741 12.9876C19.2955 12.9895 20.3297 14.4703 21.5722 16.278ZM34.8595 14.7678C36.02 15.75 36.9991 16.5802 37.0355 16.6126C37.0718 16.6449 36.3893 16.9081 35.5187 17.1975C34.6481 17.487 32.6645 18.1489 31.1106 18.6686C29.5566 19.1883 28.2554 19.6025 28.2187 19.5891C28.1604 19.5678 32.6455 12.9863 32.7206 12.9832C32.7366 12.9824 33.6991 13.7856 34.8595 14.7678ZM35.9388 13.6151C37.4254 13.9323 38.6417 14.2252 38.6417 14.2661C38.6417 14.3068 38.3229 14.8487 37.9333 15.4701L37.225 16.6L35.1332 14.826C33.9827 13.8504 33.0414 13.0325 33.0414 13.0086C33.0414 12.9846 33.0852 12.9816 33.1386 13.0018C33.1921 13.0219 34.4521 13.2979 35.9388 13.6151ZM9.97687 13.5535C10.1295 14.4501 10.8784 19.8658 10.8583 19.927C10.7991 20.1069 8.54024 14.2893 8.54024 13.9569C8.54024 13.8824 9.71117 13.3073 9.87847 13.2998C9.90858 13.2983 9.95291 13.4126 9.97687 13.5535ZM11.6005 13.7414C12.3772 13.9857 13.024 14.1952 13.0376 14.2069C13.0514 14.2186 12.6314 15.6174 12.1043 17.3153C11.3158 19.8552 11.1354 20.3631 11.0866 20.1807C11.0249 19.9504 10.0959 13.5971 10.0959 13.4058C10.0959 13.3461 10.1166 13.2972 10.1421 13.2972C10.1675 13.2972 10.8238 13.4971 11.6005 13.7414ZM41.9085 13.3318C41.9085 13.4001 40.9718 19.8859 40.9234 20.1528C40.8752 20.4183 40.872 20.4204 40.8029 20.2317C40.6533 19.8233 38.9528 14.3413 38.9528 14.2674C38.9528 14.2246 39.5741 13.9921 40.3334 13.7508C41.6847 13.3212 41.9085 13.2617 41.9085 13.3318ZM42.809 13.5825C43.1692 13.7394 43.4641 13.9102 43.4641 13.9619C43.4641 14.2335 41.5155 19.2733 41.1606 19.9195L41.0524 20.1166L41.0906 19.9195C41.1116 19.8111 41.3224 18.3743 41.559 16.7266C42.0195 13.5193 42.0555 13.2972 42.1151 13.2972C42.1363 13.2972 42.4486 13.4256 42.809 13.5825ZM24.5632 14.8661L25.3799 15.4788L25.4009 17.1801L25.4219 18.8814L24.9342 19.1784C24.666 19.3418 24.3739 19.5222 24.2851 19.5794C24.1242 19.6828 24.1226 19.6722 23.9113 17.1406C23.7947 15.7422 23.6829 14.5183 23.6631 14.4207C23.6431 14.3231 23.6538 14.2456 23.6867 14.2483C23.7196 14.2512 24.114 14.5291 24.5632 14.8661ZM28.3402 14.4207C28.3197 14.5183 28.2081 15.7244 28.0922 17.1011C27.9762 18.4779 27.8542 19.6042 27.8209 19.6042C27.7386 19.6042 26.8128 19.0587 26.6439 18.9107C26.5225 18.8043 26.5078 18.617 26.5078 17.1867C26.5078 15.7555 26.5225 15.5693 26.6439 15.4649C26.9372 15.2128 28.2613 14.2485 28.3177 14.246C28.3506 14.2445 28.3607 14.3231 28.3402 14.4207ZM13.9266 15.4967C14.301 16.0954 14.6072 16.6273 14.6072 16.6788C14.6072 16.765 11.3301 20.4873 11.2901 20.4467C11.2564 20.4126 13.1591 14.401 13.2025 14.4046C13.2264 14.4066 13.5523 14.898 13.9266 15.4967ZM39.5737 16.7464C39.9743 18.0364 40.3994 19.4087 40.5185 19.796C40.7733 20.6252 40.9513 20.7626 39.1456 18.737C38.4691 17.9782 37.779 17.2115 37.6119 17.0332L37.3081 16.7091L38.0333 15.5562C38.432 14.9221 38.7779 14.4028 38.8018 14.4021C38.8257 14.4015 39.1731 15.4563 39.5737 16.7464ZM9.93066 18.1034C10.4921 19.4893 10.9515 20.6523 10.9515 20.688C10.9515 20.7514 7.68714 21.1907 7.60282 21.1386C7.57925 21.124 7.71973 19.9356 7.91496 18.4975L8.26995 15.8829L8.54125 15.7365C8.69044 15.656 8.83441 15.5886 8.86117 15.5868C8.888 15.585 9.36924 16.7174 9.93066 18.1034ZM43.6815 15.8564C43.728 15.9036 44.4258 21.1004 44.3898 21.1314C44.3195 21.1916 41.0529 20.7508 41.0529 20.681C41.0529 20.6394 41.4942 19.5198 42.0337 18.193C42.5731 16.8662 43.0316 15.7372 43.0523 15.6842C43.0813 15.6103 43.1557 15.6155 43.3704 15.7064C43.5245 15.7717 43.6645 15.8392 43.6815 15.8564ZM8.02463 16.7464C7.81991 18.3296 7.44391 21.057 7.42844 21.071C7.41965 21.079 7.01269 20.7046 6.52415 20.239L5.63588 19.3924L6.20781 18.0595C6.52236 17.3264 6.81886 16.6818 6.86662 16.627C6.94292 16.5395 7.96139 15.9991 8.07939 15.9836C8.10397 15.9804 8.07931 16.3236 8.02463 16.7464ZM44.5357 16.2842L45.1372 16.5907L45.7339 17.9839L46.3307 19.377L45.4613 20.2325C44.9832 20.703 44.5828 21.079 44.5717 21.068C44.5606 21.057 44.4119 20.0048 44.2412 18.7297C44.0707 17.4545 43.9143 16.3137 43.8939 16.1945C43.8736 16.0753 43.8743 15.9777 43.8956 15.9777C43.9169 15.9777 44.2049 16.1157 44.5357 16.2842ZM20.4584 18.6607C22.2006 19.2395 23.617 19.7223 23.6059 19.7336C23.5745 19.7654 11.3986 20.7149 11.3384 20.6903C11.3091 20.6783 12.0698 19.7948 13.0288 18.727L14.7724 16.7854L16.0315 17.1968C16.724 17.4231 18.7162 18.0818 20.4584 18.6607ZM39.0253 18.8055C39.9307 19.8187 40.6583 20.6611 40.6423 20.6774C40.6054 20.7148 28.4387 19.7744 28.3957 19.7309C28.3783 19.7132 28.4802 19.6619 28.6221 19.6169C28.9905 19.5001 35.7499 17.2722 36.5416 17.0067C37.0333 16.8418 37.2253 16.8078 37.2909 16.8741C37.3394 16.923 38.1199 17.7922 39.0253 18.8055ZM25.4163 20.1363L25.4136 21.2204L24.9482 20.7079C24.6922 20.4261 24.4159 20.105 24.3343 19.9944L24.1858 19.7933L24.7829 19.4257C25.1113 19.2235 25.3887 19.0568 25.3994 19.0552C25.41 19.0536 25.4177 19.5402 25.4163 20.1363ZM27.2576 19.4617L27.8129 19.8102L27.2448 20.4736C26.9323 20.8385 26.6387 21.1499 26.5922 21.1656C26.5342 21.1851 26.5078 20.8561 26.5078 20.1147C26.5078 19.2831 26.5301 19.0444 26.605 19.0744C26.6585 19.0959 26.9521 19.2702 27.2576 19.4617ZM7.37352 21.3184C7.37352 21.5754 6.87269 23.3064 6.82462 23.2153C6.7669 23.1059 5.74011 19.794 5.74011 19.7173C5.74011 19.6924 6.10763 20.0198 6.55682 20.445C7.006 20.8702 7.37352 21.2632 7.37352 21.3184ZM46.1566 20.0181C45.4578 22.3544 45.1383 23.3046 45.0939 23.1783C45.066 23.0987 44.9417 22.633 44.8176 22.1435L44.5919 21.2533L45.4086 20.472C45.8578 20.0422 46.2324 19.6889 46.2411 19.6868C46.2497 19.6848 46.2117 19.8338 46.1566 20.0181ZM21.9152 23.9205C17.1909 33.3742 16.6844 34.3645 16.6273 34.2575C16.5957 34.1981 15.8085 32.2694 14.8779 29.9713C13.9474 27.6732 12.7374 24.6931 12.1892 23.349C11.5412 21.7603 11.2246 20.8937 11.2845 20.8726C11.3352 20.8548 14.1599 20.6202 17.5616 20.3513C20.9633 20.0824 23.7932 19.8576 23.8503 19.8516C23.9078 19.8456 23.0448 21.6602 21.9152 23.9205ZM34.7806 20.3922C38.0686 20.6476 40.767 20.8676 40.7768 20.8808C40.7866 20.8941 40.1953 22.3773 39.4627 24.1767C38.7302 25.9762 37.5037 29.0005 36.7373 30.8976C35.9708 32.7946 35.3202 34.3201 35.2915 34.2876C35.2345 34.2229 34.1697 32.1168 31.9135 27.6062C31.1111 26.0018 29.9165 23.6211 29.259 22.3156C28.6014 21.0101 28.0634 19.9209 28.0634 19.8951C28.0634 19.8692 28.2296 19.866 28.4328 19.8879C28.6361 19.9098 31.4925 20.1367 34.7806 20.3922ZM28.3212 20.7276C28.5533 21.172 29.6273 23.3095 30.708 25.4776C31.7887 27.6456 33.2283 30.5232 33.9072 31.8723C34.5861 33.2215 35.1415 34.3459 35.1415 34.3709C35.1415 34.426 35.0613 34.3922 30.3968 32.3762C28.3648 31.4979 26.6585 30.7439 26.605 30.7007C26.5292 30.6394 26.5078 29.6169 26.5078 26.0688V21.5156L27.1883 20.7227C27.5627 20.2865 27.8758 19.9274 27.8842 19.9246C27.8925 19.9218 28.0892 20.2832 28.3212 20.7276ZM24.7917 20.7264L25.4201 21.4546L25.4 26.0916L25.3799 30.7287L21.1408 32.5675C18.8093 33.5788 16.8888 34.3945 16.8728 34.38C16.8569 34.3656 18.262 31.5229 19.9953 28.063C21.7286 24.6031 23.3432 21.3731 23.5834 20.8853C23.8235 20.3975 24.0524 19.9984 24.0918 19.9984C24.1312 19.9984 24.4462 20.326 24.7917 20.7264ZM10.9515 20.8937C10.9515 20.9454 9.77207 23.1113 9.70564 23.1817C9.65197 23.2386 7.77503 21.5106 7.70184 21.337C7.68994 21.3087 8.37247 21.1954 9.21858 21.0852C11.0297 20.8494 10.9515 20.858 10.9515 20.8937ZM42.8354 21.114L44.3456 21.2953L43.3489 22.2605C42.8007 22.7913 42.3266 23.2097 42.2955 23.1901C42.2393 23.1549 41.0529 20.9596 41.0529 20.8908C41.0529 20.8711 41.1142 20.8724 41.189 20.8939C41.2638 20.9153 42.0047 21.0144 42.8354 21.114ZM11.9442 23.073C14.1334 28.4927 15.9617 33.0046 16.0941 33.3144C16.1757 33.5053 16.2317 33.6725 16.2184 33.686C16.2051 33.6994 15.0436 31.858 13.6372 29.594C12.2307 27.3299 10.7857 25.0078 10.4261 24.4337L9.77215 23.3898L10.4117 22.2019C10.7634 21.5486 11.0765 21.0427 11.1076 21.0777C11.1386 21.1128 11.5151 22.0107 11.9442 23.073ZM41.6589 22.3368L42.2147 23.3745L39.0087 28.5387C37.2454 31.3791 35.7927 33.6928 35.7803 33.6803C35.7553 33.6549 40.7621 21.2692 40.8754 21.0766C40.9263 20.9901 41.007 21.1198 41.6589 22.3368ZM8.53775 22.3535C9.05625 22.8466 9.46118 23.2696 9.43769 23.2934C9.38907 23.3427 7.03961 23.5401 6.99333 23.4987C6.94292 23.4537 7.48553 21.4157 7.54231 21.437C7.57132 21.448 8.01934 21.8604 8.53775 22.3535ZM44.7785 22.5277C44.9112 23.0299 45.0197 23.4561 45.0197 23.4747C45.0197 23.5241 42.621 23.3484 42.5685 23.2953C42.5442 23.2706 42.9542 22.8399 43.4795 22.3381C44.0882 21.7568 44.4533 21.4599 44.4859 21.5201C44.5141 21.5721 44.6458 22.0254 44.7785 22.5277ZM10.4222 24.6695C10.8299 25.3307 12.3583 27.7959 13.8187 30.1476C15.2791 32.4993 16.474 34.4417 16.474 34.464C16.474 34.5208 15.6341 34.5144 15.2014 34.4543C14.8428 34.4044 14.8405 34.4022 14.8405 34.0992V33.7943L13.4853 33.1088L12.13 32.4233L11.0243 29.7782C10.4162 28.3234 9.88687 27.0977 9.84806 27.0543C9.80925 27.0109 9.31541 26.793 8.75056 26.5699L7.72354 26.1643L7.34039 24.9348C7.1296 24.2586 6.97225 23.69 6.9906 23.6714C7.02763 23.6339 8.66353 23.4965 9.28562 23.4786L9.68099 23.4672L10.4222 24.6695ZM43.7752 23.5571C44.4383 23.6071 44.992 23.657 45.0055 23.668C45.0529 23.7065 44.3038 26.0301 44.2149 26.1206C44.1656 26.1707 43.7052 26.3766 43.1919 26.5781C42.6785 26.7796 42.2167 26.987 42.1656 27.0388C42.086 27.1196 41.5439 28.3817 40.1581 31.7134L39.8598 32.4307L38.5118 33.1124L37.1638 33.7943V34.1026V34.4108L36.4381 34.466C36.039 34.4964 35.6601 34.5085 35.5961 34.493C35.513 34.473 35.9933 33.6394 37.2746 31.5799C38.2618 29.993 39.8 27.5186 40.6928 26.081C41.7395 24.3958 42.3612 23.4671 42.4429 23.4667C42.5126 23.4664 43.1122 23.5071 43.7752 23.5571ZM25.4188 33.3522V35.8264L24.7459 36.7619C24.3758 37.2764 24.0668 37.706 24.0593 37.7165C24.0314 37.7559 16.9406 34.6339 16.9406 34.5823C16.9406 34.5354 25.2078 30.9057 25.3605 30.8856C25.3925 30.8814 25.4188 31.9913 25.4188 33.3522ZM30.8441 32.7101C33.1648 33.7181 35.0637 34.5632 35.0637 34.588C35.0637 34.6128 34.1799 35.0177 33.0997 35.4878C32.0196 35.9579 30.4213 36.6575 29.548 37.0425C28.6747 37.4275 27.9349 37.7146 27.9039 37.6805C27.873 37.6464 27.5461 37.1975 27.1777 36.683L26.5078 35.7476V33.3127C26.5078 31.9736 26.534 30.8777 26.5661 30.8776C26.5982 30.8774 28.5233 31.7021 30.8441 32.7101ZM16.3329 34.6517L16.5419 34.7015L16.1111 35.5126L15.6803 36.3238L15.2604 35.755C14.9235 35.2986 14.8405 35.1267 14.8405 34.8847V34.5832L15.4822 34.5925C15.8351 34.5977 16.218 34.6243 16.3329 34.6517ZM37.1638 34.8905C37.1638 35.1444 37.0871 35.2971 36.7229 35.769L36.2819 36.3402L35.8755 35.5208L35.469 34.7015L35.7525 34.6536C35.9084 34.6271 36.2897 34.6006 36.5999 34.5944L37.1638 34.5832V34.8905ZM17.4844 36.7513C17.9213 37.8353 18.2947 38.7487 18.3143 38.7813C18.3339 38.8139 18.1785 38.8404 17.9691 38.8404H17.5883L16.6858 37.6472L15.7833 36.4539L16.2111 35.5891C16.4465 35.1134 16.6505 34.7369 16.6645 34.7523C16.6786 34.7677 17.0475 35.6672 17.4844 36.7513ZM20.9075 36.5132C22.469 37.1957 23.7921 37.7793 23.8478 37.81C23.9221 37.8509 23.8549 37.9955 23.5952 38.3531L23.2412 38.8404H20.8675H18.4938L18.3787 38.5842C18.1643 38.1068 16.8629 34.861 16.8629 34.8037C16.8629 34.7724 17.1342 34.8651 17.4657 35.0096C17.7972 35.1541 19.346 35.8307 20.9075 36.5132ZM34.3428 36.8027L33.5334 38.801L31.129 38.8192L28.7245 38.8374L28.3847 38.3622C28.1978 38.1008 28.0662 37.8653 28.0922 37.8389C28.1633 37.7668 35.0986 34.751 35.1274 34.7796C35.141 34.7933 34.788 35.7036 34.3428 36.8027ZM36.122 36.5213C36.0997 36.5803 35.7037 37.126 35.242 37.734L34.4026 38.8394L34.0248 38.8399C33.7526 38.8403 33.6584 38.8129 33.6876 38.7419C33.7876 38.4993 35.2404 34.9263 35.2792 34.8275C35.3046 34.7632 35.4985 35.0719 35.7428 35.5655C35.9737 36.0321 36.1444 36.4622 36.122 36.5213Z" fill="white"/>
<path fill-rule="evenodd" clip-rule="evenodd" d="M20.8686 1.14979C19.8847 1.22153 19.0245 1.31448 18.9571 1.35626C18.8898 1.39805 17.669 2.39013 16.2443 3.56086L13.6539 5.68946L13.6941 6.8587L13.7344 8.02793L12.5989 8.00601L11.4634 7.98417L9.89613 10.9188L8.32883 13.8534L8.58839 14.6546C8.73112 15.0952 8.83986 15.4621 8.83014 15.4699C8.82041 15.4777 8.35263 15.7052 7.79066 15.9753L6.76885 16.4664L6.13446 17.9302L5.5 19.394L6.56265 22.83L7.62522 26.2659L8.69402 26.6869L9.76289 27.1079L10.5265 28.9338C10.9464 29.938 11.4516 31.1499 11.649 31.6268L12.008 32.4941L13.3464 33.1857L14.685 33.8773V34.5511V35.2249L16.1045 37.1089L17.524 38.9929L20.4134 38.9955L23.3029 38.9981L24.4386 37.4217L25.5744 35.8452V19.615V3.38474L24.3382 2.1917C23.3038 1.19339 23.0658 1.00032 22.8798 1.00899C22.7576 1.01466 21.8525 1.07805 20.8686 1.14979ZM27.6517 2.20156L26.4233 3.40319L26.4266 19.6323L26.43 35.8613L27.5645 37.4307L28.699 39L31.5879 38.9793L34.4768 38.9587L35.8981 37.0764L37.3194 35.1941L37.3225 34.5142L37.3257 33.8343L38.6575 33.1642L39.9892 32.4941L40.4297 31.4298C40.672 30.8444 41.1755 29.6345 41.5486 28.741L42.2269 27.1165L43.2824 26.6944C44.022 26.3987 44.3582 26.2242 44.4058 26.1115C44.4432 26.023 44.7917 24.9218 45.1802 23.6643C45.5687 22.4069 46.0246 20.9346 46.1933 20.3926L46.5 19.4071L45.8658 17.9368L45.2315 16.4664L44.2118 15.9728C43.6508 15.7013 43.1795 15.4694 43.1643 15.4574C43.1493 15.4455 43.2455 15.1053 43.3782 14.7014C43.511 14.2974 43.6197 13.9193 43.6197 13.8611C43.6197 13.7755 41.6354 10.0046 40.7307 8.37095L40.513 7.97787L39.3828 8.0042L38.2528 8.03053L38.2509 6.82062L38.249 5.61063L35.7952 3.60028C34.4455 2.49459 33.2537 1.523 33.1467 1.44117C32.9854 1.31779 32.6975 1.27475 31.4606 1.18897C30.6402 1.13205 29.724 1.06622 29.4246 1.04273L28.8801 1L27.6517 2.20156ZM22.9298 1.19418C22.9298 1.32418 22.5 2.26005 22.4403 2.26005C22.4001 2.26005 22.1202 2.03836 21.8182 1.76732L21.269 1.27459L21.8077 1.22942C22.6105 1.16201 22.9298 1.152 22.9298 1.19418ZM30.6911 1.27341C30.7218 1.30061 29.5998 2.26005 29.5373 2.26005C29.5094 2.26005 29.377 2.00833 29.2429 1.7007L28.9991 1.14135L29.8341 1.19764C30.2933 1.22855 30.679 1.26268 30.6911 1.27341ZM24.1426 2.19462C24.6731 2.72227 25.0959 3.1655 25.0819 3.17961C25.0681 3.19364 24.5064 3.02627 23.8337 2.8075C22.4572 2.35994 22.5417 2.46408 22.904 1.66199C23.01 1.42722 23.115 1.23517 23.1373 1.23517C23.1597 1.23517 23.612 1.66688 24.1426 2.19462ZM29.1419 1.78774C29.276 2.09166 29.3857 2.35655 29.3857 2.37649C29.3857 2.41481 26.9756 3.2061 26.8589 3.2061C26.7855 3.2061 28.7702 1.24574 28.8502 1.23911C28.8766 1.23698 29.0078 1.48382 29.1419 1.78774ZM21.7101 1.83693C22.0387 2.12453 22.3076 2.38666 22.3076 2.41946C22.3076 2.49625 19.5138 4.10602 19.4655 4.05706C19.4366 4.02782 19.123 1.67059 19.1195 1.45591C19.1185 1.3986 19.6195 1.35445 20.5628 1.32891L21.1127 1.31401L21.7101 1.83693ZM32.8626 1.42186C32.8731 1.4325 32.813 2.00683 32.729 2.69815C32.6449 3.38939 32.5759 3.98162 32.5755 4.01418C32.5739 4.13125 32.4315 4.0614 31.0311 3.25671L29.6101 2.44012L30.2514 1.86634L30.8928 1.29264L31.8681 1.34751C32.4046 1.37779 32.8521 1.41121 32.8626 1.42186ZM19.1448 2.7818C19.2201 3.45901 19.2654 4.02955 19.2455 4.04965C19.2257 4.06976 18.7161 3.86494 18.113 3.59453C17.51 3.32404 17.0258 3.09438 17.037 3.08414C17.2688 2.87175 18.9252 1.55052 18.9597 1.55052C18.9863 1.55052 19.0696 2.10459 19.1448 2.7818ZM34.0056 2.30775C34.5101 2.72424 34.8934 3.09052 34.8572 3.12174C34.7068 3.25166 32.7945 4.08584 32.7502 4.0409C32.6884 3.97823 32.9676 1.55052 33.0366 1.55052C33.065 1.55052 33.501 1.89125 34.0056 2.30775ZM22.1434 3.62488C21.9211 4.55397 21.8923 4.62185 21.7364 4.5874C21.6442 4.56706 21.1499 4.47687 20.6381 4.387C20.1263 4.29712 19.696 4.21182 19.6818 4.19747C19.6676 4.18305 19.9288 4.01134 20.2623 3.81574C21.8188 2.90305 22.3479 2.60023 22.3646 2.6123C22.3746 2.61947 22.275 3.07515 22.1434 3.62488ZM23.6783 2.89548C24.2292 3.07152 24.8461 3.26948 25.0494 3.33539L25.4188 3.4553V4.35554C25.4188 4.85072 25.3925 5.25578 25.3605 5.2557C25.1936 5.25515 22.1462 4.6455 22.1057 4.60459C22.0672 4.56548 22.3806 3.04377 22.5033 2.67395C22.5491 2.53614 22.5604 2.53827 23.6783 2.89548ZM29.5093 2.7922C29.5362 2.9114 29.6435 3.35912 29.7478 3.78705C29.8522 4.21497 29.9177 4.58519 29.8935 4.60979C29.845 4.65891 26.8624 5.24979 26.6439 5.25357C26.5224 5.25562 26.5078 5.16315 26.5078 4.3933C26.5078 3.82623 26.5386 3.51151 26.5976 3.47446C26.7148 3.40106 29.2399 2.58407 29.3647 2.57918C29.4174 2.57706 29.4824 2.673 29.5093 2.7922ZM32.2924 4.20812C32.1004 4.273 30.1215 4.60869 30.0941 4.58109C30.0642 4.5509 29.6242 2.746 29.6208 2.63949C29.6198 2.60962 30.2382 2.94444 30.995 3.3834C31.7518 3.82237 32.3355 4.19353 32.2924 4.20812ZM18.0685 3.71885C18.6246 3.96719 19.1057 4.19448 19.1375 4.22388C19.1693 4.25329 18.3838 4.74492 17.3919 5.31649C16.4001 5.88797 15.5752 6.34208 15.5589 6.32552C15.533 6.29927 16.1424 3.83096 16.1855 3.78776C16.3855 3.58656 16.9219 3.21453 16.9795 3.23692C17.0223 3.25356 17.5123 3.47044 18.0685 3.71885ZM35.4763 3.51798C35.8096 3.78847 35.8142 3.79919 36.1347 5.05191C36.3123 5.74575 36.4478 6.32316 36.4362 6.33506C36.3963 6.37542 32.8776 4.32495 32.8735 4.25897C32.8692 4.18943 34.9842 3.20476 35.0828 3.23038C35.1147 3.23874 35.2918 3.36811 35.4763 3.51798ZM15.7083 5.09196C15.5515 5.69561 15.4008 6.21223 15.3733 6.23998C15.3459 6.26781 15.1755 6.019 14.9948 5.68702C14.7151 5.17347 14.6821 5.06728 14.7736 4.97457C14.9897 4.75556 15.8921 4.00133 15.9421 3.99794C15.9704 3.99604 15.8652 4.4883 15.7083 5.09196ZM36.7555 4.57108C37.0657 4.82927 37.3194 5.05348 37.3194 5.06933C37.3194 5.18609 36.6548 6.26852 36.6118 6.22185C36.5816 6.18921 36.4485 5.73085 36.316 5.20328C36.1835 4.67578 36.0515 4.1821 36.0228 4.10634C35.9533 3.92273 36.0516 3.98509 36.7555 4.57108ZM31.5611 5.6107C31.0808 6.28894 30.6614 6.81478 30.6289 6.77915C30.5523 6.69542 30.1261 4.79443 30.1731 4.74681C30.2159 4.70345 32.3686 4.32795 32.4072 4.35712C32.4219 4.36831 32.0412 4.93239 31.5611 5.6107ZM20.3243 5.68946C20.7848 6.33987 21.1941 6.91372 21.2338 6.96481C21.2857 7.03151 20.7801 7.32549 19.4322 8.01224C17.5626 8.96483 17.5587 8.96632 17.6643 8.70782C17.7225 8.56536 18.1334 7.53559 18.5774 6.41957C19.0214 5.30348 19.4076 4.41656 19.4357 4.44865C19.4639 4.48066 19.8637 5.03906 20.3243 5.68946ZM20.8103 4.55681C21.6359 4.69383 21.8403 4.75296 21.8378 4.85387C21.8333 5.03677 21.4124 6.74139 21.3581 6.79634C21.3202 6.83473 20.5681 5.82743 19.7515 4.64487C19.5375 4.33481 19.4941 4.33835 20.8103 4.55681ZM19.1632 4.59867C18.6231 6.02547 17.4514 8.88236 17.4064 8.88236C17.301 8.88236 15.5159 6.59483 15.5746 6.53507C15.6608 6.4474 19.0704 4.47861 19.1463 4.47269C19.1829 4.46985 19.1906 4.52654 19.1632 4.59867ZM33.4984 6.65001C33.9728 7.85039 34.3479 8.84578 34.3319 8.86202C34.3158 8.87826 33.4926 8.48069 32.5025 7.97858C31.1932 7.31453 30.7189 7.03805 30.7634 6.96465C30.9891 6.5927 32.5352 4.46749 32.5802 4.46749C32.6108 4.46749 33.0241 5.44964 33.4984 6.65001ZM34.6466 5.49852C35.6242 6.06559 36.4362 6.54193 36.4512 6.55699C36.466 6.57212 36.0506 7.12319 35.528 7.78164L34.5778 8.97886L33.7344 6.87249C32.8448 4.65047 32.7762 4.46749 32.8333 4.46749C32.8529 4.46749 33.6689 4.93145 34.6466 5.49852ZM23.7369 5.09819C24.6253 5.27163 25.369 5.41353 25.3896 5.41353C25.4101 5.41353 25.4164 5.59691 25.4034 5.82104L25.3799 6.22855L23.4743 6.60177C22.4262 6.80706 21.554 6.96063 21.5361 6.94313C21.5183 6.92563 21.5813 6.56542 21.6762 6.1427C21.928 5.02085 21.9956 4.78284 22.062 4.78284C22.0947 4.78284 22.8485 4.92474 23.7369 5.09819ZM30.2398 5.85297C30.3769 6.44149 30.4771 6.93438 30.4624 6.94833C30.4391 6.97033 27.1488 6.35508 26.6828 6.24156C26.534 6.20529 26.5078 6.14664 26.5078 5.85029C26.5078 5.65856 26.5479 5.47652 26.5969 5.44586C26.6935 5.38531 29.5515 4.80594 29.8242 4.79159C29.9749 4.78363 30.0138 4.88288 30.2398 5.85297ZM14.8794 5.74867C15.0506 6.06244 15.2022 6.34602 15.2165 6.37881C15.2308 6.41161 14.9245 6.43842 14.5359 6.43842H13.8294L13.8323 6.06394C13.835 5.71824 13.8603 5.66991 14.1628 5.4345C14.3431 5.29425 14.508 5.17923 14.5294 5.17884C14.5508 5.17844 14.7083 5.43482 14.8794 5.74867ZM37.8364 5.45823C38.1433 5.71319 38.175 5.77208 38.175 6.08893C38.175 6.42068 38.1637 6.43842 37.9531 6.43842C37.8309 6.43842 37.5159 6.4612 37.253 6.48903C36.9172 6.52466 36.7749 6.51292 36.7749 6.44969C36.7749 6.34838 37.4079 5.17702 37.4627 5.17702C37.482 5.17702 37.6502 5.30356 37.8364 5.45823ZM25.4188 8.74471V11.1299L24.5236 12.4895C24.0314 13.2373 23.613 13.8491 23.5939 13.8491C23.5749 13.8491 23.5269 13.7338 23.4873 13.5929C23.4145 13.3334 22.9715 11.9108 22.0412 8.94867C21.7599 8.05292 21.5297 7.27141 21.5297 7.21196C21.5297 7.13336 22.0451 7.00415 23.4159 6.73878C24.4534 6.53806 25.3284 6.37054 25.3605 6.36667C25.3925 6.36273 25.4188 7.43294 25.4188 8.74471ZM28.6467 6.76259C29.5879 6.94226 30.3863 7.11531 30.4211 7.14716C30.4559 7.17901 30.1988 8.12348 29.8499 9.24596C29.5009 10.3684 29.0376 11.8634 28.8201 12.568C28.6026 13.2726 28.4047 13.8483 28.3802 13.8473C28.3557 13.8463 27.9243 13.2156 27.4217 12.4457L26.5078 11.046V8.75536C26.5078 7.49546 26.5305 6.44173 26.5582 6.41358C26.5859 6.38544 26.6822 6.37897 26.7721 6.39915C26.862 6.41934 27.7056 6.58292 28.6467 6.76259ZM15.2165 6.67382C15.1651 6.82795 12.7783 10.8486 12.7369 10.8509C12.6908 10.8535 11.6445 8.2538 11.6489 8.1476C11.6503 8.11205 12.1415 8.1081 12.7404 8.13893L13.8294 8.19498V7.3955V6.59609H14.5359C14.966 6.59609 15.2322 6.62652 15.2165 6.67382ZM38.175 7.39621V8.19632L39.2639 8.14169C39.8628 8.11165 40.3529 8.10621 40.3529 8.12971C40.3529 8.22242 39.3219 10.7775 39.2718 10.8089C39.2424 10.8274 38.6527 9.88698 37.9613 8.71925L36.7043 6.59609H37.4396H38.175V7.39621ZM16.3565 7.85748C16.8191 8.44285 17.2268 8.96041 17.2626 9.00756C17.306 9.06471 17.0619 9.20063 16.5314 9.41475C16.0934 9.5915 15.0957 10.0026 14.3143 10.3285C13.533 10.6543 12.9064 10.8968 12.922 10.8674C13.356 10.046 15.4185 6.67989 15.4588 6.72696C15.49 6.76338 15.8939 7.27212 16.3565 7.85748ZM37.7456 8.60643C38.3348 9.60372 38.8844 10.5335 38.967 10.6726C39.1166 10.9248 39.11 10.9227 36.9214 10.0218C35.7138 9.52465 34.7132 9.10524 34.6978 9.08963C34.6824 9.07402 35.0977 8.52405 35.6206 7.86749C36.1436 7.21094 36.5946 6.70063 36.6229 6.73342C36.6512 6.7663 37.1564 7.60914 37.7456 8.60643ZM21.2681 7.48301C21.243 7.62389 21.061 8.839 20.8638 10.1832C20.6665 11.5273 20.4941 12.6385 20.4806 12.6524C20.4669 12.6662 20.1987 12.6967 19.8844 12.72L19.313 12.7624L18.4337 10.9712C17.9502 9.98592 17.5742 9.15995 17.5982 9.13559C17.6684 9.06456 21.1729 7.23459 21.2467 7.23049C21.2836 7.22844 21.2932 7.34212 21.2681 7.48301ZM32.633 8.19388C33.6277 8.70301 34.4415 9.13693 34.4415 9.15813C34.4415 9.17942 34.0477 9.99909 33.5664 10.9796L32.6914 12.7624L32.1199 12.72C31.8056 12.6967 31.5321 12.6609 31.512 12.6405C31.4771 12.6053 30.7132 7.53772 30.7097 7.31879C30.7087 7.26092 30.7342 7.22592 30.7663 7.2409C30.7984 7.25596 31.6384 7.68475 32.633 8.19388ZM22.4592 10.723C22.9807 12.4075 23.3883 13.8048 23.3652 13.8283C23.3421 13.8517 22.7271 13.609 21.9987 13.289C20.9043 12.8082 20.6741 12.6792 20.6741 12.5461C20.6741 12.4575 20.8316 11.3221 21.024 10.0227C21.2165 8.72343 21.375 7.60717 21.3764 7.54213C21.3786 7.43704 21.3862 7.43704 21.445 7.54213C21.4814 7.60717 21.9379 9.03854 22.4592 10.723ZM30.9881 10.1238C31.1908 11.5221 31.342 12.6773 31.324 12.6911C31.2595 12.7404 28.5701 13.9159 28.5555 13.9012C28.5412 13.8866 30.4308 7.78432 30.5247 7.54213C30.5905 7.37232 30.5844 7.33889 30.9881 10.1238ZM12.0666 9.59907C12.3591 10.3392 12.5866 10.9547 12.5722 10.9669C12.5578 10.9791 11.9748 11.0109 11.2767 11.0375C10.2924 11.0751 10.013 11.0643 10.0322 10.9891C10.0718 10.8346 11.4529 8.25309 11.4959 8.25332C11.5173 8.2534 11.7742 8.85903 12.0666 9.59907ZM41.2819 9.68437C41.6693 10.4073 41.9863 11.0132 41.9863 11.0308C41.9863 11.0694 39.4714 11.0039 39.4282 10.9643C39.4115 10.949 39.6391 10.3343 39.9338 9.5982C40.2284 8.8621 40.4939 8.28462 40.5235 8.31489C40.5532 8.34517 40.8945 8.96144 41.2819 9.68437ZM18.3218 11.0504C18.8026 12.026 19.1697 12.8244 19.1377 12.8245C19.1058 12.8247 17.8428 13.0908 16.3311 13.4158C14.8195 13.7409 13.5337 14.0068 13.4738 14.0068C13.3786 14.0068 17.3059 9.28798 17.4081 9.27978C17.43 9.27797 17.8411 10.0748 18.3218 11.0504ZM36.6039 11.6264C37.6864 12.9124 38.5419 13.9748 38.5052 13.9871C38.4686 13.9995 37.1889 13.743 35.6616 13.4169C34.1342 13.0909 32.8675 12.8242 32.8466 12.8242C32.8256 12.8242 33.2018 12.026 33.6826 11.0504C34.1632 10.0748 34.5744 9.27915 34.5963 9.2823C34.618 9.28546 35.5215 10.3403 36.6039 11.6264ZM38.1944 10.693C38.7398 10.9207 39.1852 11.1474 39.1841 11.1969C39.1793 11.4143 38.8052 13.8673 38.7717 13.9013C38.7401 13.9333 35.0252 9.61113 34.8808 9.37423C34.8346 9.29846 35.2466 9.46245 38.1944 10.693ZM17.0085 9.49225C16.272 10.4364 13.25 13.9218 13.2095 13.8738C13.1303 13.7798 12.7841 11.177 12.8429 11.1174C12.9023 11.0572 16.949 9.36508 17.0474 9.35933C17.0847 9.3572 17.0672 9.41696 17.0085 9.49225ZM12.4229 11.1984C12.251 11.3564 9.99569 13.0629 9.98239 13.045C9.97267 13.0319 9.84643 12.8001 9.70183 12.5298L9.43893 12.0381L9.67017 11.6037L9.90142 11.1692L11.1784 11.1689C11.8806 11.1688 12.4407 11.182 12.4229 11.1984ZM42.32 11.6187L42.5372 12.0293L42.3672 12.3677C41.9735 13.1509 42.118 13.1687 40.8316 12.1791C40.2047 11.6968 39.6576 11.2713 39.6158 11.2334C39.5723 11.1939 40.0868 11.1738 40.8214 11.1863L42.1029 11.2081L42.32 11.6187ZM12.6982 11.4249C12.8013 11.8999 13.0567 13.949 13.0177 13.9886C12.972 14.0349 10.336 13.2367 10.2331 13.1453C10.1796 13.0979 12.4783 11.2611 12.6028 11.2517C12.6341 11.2494 12.677 11.3273 12.6982 11.4249ZM40.732 12.2676C41.3991 12.7862 41.807 13.1525 41.7432 13.1754C41.6844 13.1966 41.0325 13.4056 40.2945 13.6397C39.0562 14.0327 38.9528 14.0537 38.9528 13.9118C38.9528 13.7487 39.2401 11.7262 39.3064 11.4231C39.3563 11.1945 39.337 11.183 40.732 12.2676ZM27.5084 12.7961C27.942 13.4526 28.2967 14.0091 28.2967 14.0325C28.2967 14.0969 26.6743 15.2682 26.5851 15.2682C26.5359 15.2682 26.5078 14.5599 26.5078 13.3198C26.5078 11.67 26.524 11.3891 26.6139 11.4868C26.6723 11.5503 27.0748 12.1394 27.5084 12.7961ZM25.4188 13.4152V15.3464L24.5587 14.7059C23.9729 14.2698 23.7124 14.0292 23.7418 13.9514C23.7953 13.81 25.3483 11.484 25.3892 11.484C25.4055 11.484 25.4188 12.353 25.4188 13.4152ZM9.62778 12.6367C9.76351 12.8806 9.84565 13.1076 9.81026 13.1413C9.75418 13.1947 8.64152 13.6914 8.57797 13.6914C8.55479 13.6914 9.3452 12.1952 9.369 12.1941C9.37562 12.1938 9.49205 12.393 9.62778 12.6367ZM43.0292 12.9417C43.2256 13.3099 43.3863 13.6276 43.3863 13.6477C43.3863 13.6936 42.2817 13.2246 42.1946 13.1418C42.1302 13.0805 42.5254 12.2756 42.6209 12.2735C42.6491 12.2728 42.8328 12.5736 43.0292 12.9417ZM22.0384 13.4454C22.9454 13.8506 23.4481 14.1178 23.4848 14.214C23.5496 14.3841 23.969 19.2456 23.9288 19.3604C23.9141 19.4022 22.8943 17.9753 21.6626 16.1895L19.423 12.9425L19.6792 12.8937C20.4011 12.7563 20.6005 12.8029 22.0384 13.4454ZM32.2788 12.8879L32.5664 12.9425L30.3898 16.096C29.1927 17.8304 28.1822 19.3023 28.1441 19.3671C28.1062 19.4317 28.0607 19.4672 28.0432 19.4459C28.0256 19.4245 28.116 18.2138 28.2442 16.7553L28.4771 14.1036L29.8842 13.4709C31.3387 12.817 31.5869 12.7565 32.2788 12.8879ZM18.963 13.0136C18.963 13.031 18.0209 13.846 16.8694 14.8247L14.7757 16.6041L14.0236 15.4174C13.6099 14.7647 13.2832 14.2207 13.2976 14.2084C13.312 14.1961 14.5839 13.9178 16.1239 13.5902C17.664 13.2625 18.9329 12.9916 18.9435 12.9881C18.9542 12.9847 18.963 12.9962 18.963 13.0136ZM21.5722 16.278C22.8148 18.0857 23.8101 19.5744 23.784 19.5861C23.7579 19.598 21.9012 19.0016 19.658 18.261C17.4148 17.5203 15.4482 16.8721 15.2878 16.8205C15.1274 16.7689 15.0001 16.6912 15.005 16.6478C15.0137 16.5695 19.1996 12.9808 19.2741 12.9876C19.2955 12.9895 20.3297 14.4703 21.5722 16.278ZM34.8595 14.7678C36.02 15.75 36.9991 16.5802 37.0355 16.6126C37.0718 16.6449 36.3893 16.9081 35.5187 17.1975C34.6481 17.487 32.6645 18.1489 31.1106 18.6686C29.5566 19.1883 28.2554 19.6025 28.2187 19.5891C28.1604 19.5678 32.6455 12.9863 32.7206 12.9832C32.7366 12.9824 33.6991 13.7856 34.8595 14.7678ZM35.9388 13.6151C37.4254 13.9323 38.6417 14.2252 38.6417 14.2661C38.6417 14.3068 38.3229 14.8487 37.9333 15.4701L37.225 16.6L35.1332 14.826C33.9827 13.8504 33.0414 13.0325 33.0414 13.0086C33.0414 12.9846 33.0852 12.9816 33.1386 13.0018C33.1921 13.0219 34.4521 13.2979 35.9388 13.6151ZM9.97687 13.5535C10.1295 14.4501 10.8784 19.8658 10.8583 19.927C10.7991 20.1069 8.54024 14.2893 8.54024 13.9569C8.54024 13.8824 9.71117 13.3073 9.87847 13.2998C9.90858 13.2983 9.95291 13.4126 9.97687 13.5535ZM11.6005 13.7414C12.3772 13.9857 13.024 14.1952 13.0376 14.2069C13.0514 14.2186 12.6314 15.6174 12.1043 17.3153C11.3158 19.8552 11.1354 20.3631 11.0866 20.1807C11.0249 19.9504 10.0959 13.5971 10.0959 13.4058C10.0959 13.3461 10.1166 13.2972 10.1421 13.2972C10.1675 13.2972 10.8238 13.4971 11.6005 13.7414ZM41.9085 13.3318C41.9085 13.4001 40.9718 19.8859 40.9234 20.1528C40.8752 20.4183 40.872 20.4204 40.8029 20.2317C40.6533 19.8233 38.9528 14.3413 38.9528 14.2674C38.9528 14.2246 39.5741 13.9921 40.3334 13.7508C41.6847 13.3212 41.9085 13.2617 41.9085 13.3318ZM42.809 13.5825C43.1692 13.7394 43.4641 13.9102 43.4641 13.9619C43.4641 14.2335 41.5155 19.2733 41.1606 19.9195L41.0524 20.1166L41.0906 19.9195C41.1116 19.8111 41.3224 18.3743 41.559 16.7266C42.0195 13.5193 42.0555 13.2972 42.1151 13.2972C42.1363 13.2972 42.4486 13.4256 42.809 13.5825ZM24.5632 14.8661L25.3799 15.4788L25.4009 17.1801L25.4219 18.8814L24.9342 19.1784C24.666 19.3418 24.3739 19.5222 24.2851 19.5794C24.1242 19.6828 24.1226 19.6722 23.9113 17.1406C23.7947 15.7422 23.6829 14.5183 23.6631 14.4207C23.6431 14.3231 23.6538 14.2456 23.6867 14.2483C23.7196 14.2512 24.114 14.5291 24.5632 14.8661ZM28.3402 14.4207C28.3197 14.5183 28.2081 15.7244 28.0922 17.1011C27.9762 18.4779 27.8542 19.6042 27.8209 19.6042C27.7386 19.6042 26.8128 19.0587 26.6439 18.9107C26.5225 18.8043 26.5078 18.617 26.5078 17.1867C26.5078 15.7555 26.5225 15.5693 26.6439 15.4649C26.9372 15.2128 28.2613 14.2485 28.3177 14.246C28.3506 14.2445 28.3607 14.3231 28.3402 14.4207ZM13.9266 15.4967C14.301 16.0954 14.6072 16.6273 14.6072 16.6788C14.6072 16.765 11.3301 20.4873 11.2901 20.4467C11.2564 20.4126 13.1591 14.401 13.2025 14.4046C13.2264 14.4066 13.5523 14.898 13.9266 15.4967ZM39.5737 16.7464C39.9743 18.0364 40.3994 19.4087 40.5185 19.796C40.7733 20.6252 40.9513 20.7626 39.1456 18.737C38.4691 17.9782 37.779 17.2115 37.6119 17.0332L37.3081 16.7091L38.0333 15.5562C38.432 14.9221 38.7779 14.4028 38.8018 14.4021C38.8257 14.4015 39.1731 15.4563 39.5737 16.7464ZM9.93066 18.1034C10.4921 19.4893 10.9515 20.6523 10.9515 20.688C10.9515 20.7514 7.68714 21.1907 7.60282 21.1386C7.57925 21.124 7.71973 19.9356 7.91496 18.4975L8.26995 15.8829L8.54125 15.7365C8.69044 15.656 8.83441 15.5886 8.86117 15.5868C8.888 15.585 9.36924 16.7174 9.93066 18.1034ZM43.6815 15.8564C43.728 15.9036 44.4258 21.1004 44.3898 21.1314C44.3195 21.1916 41.0529 20.7508 41.0529 20.681C41.0529 20.6394 41.4942 19.5198 42.0337 18.193C42.5731 16.8662 43.0316 15.7372 43.0523 15.6842C43.0813 15.6103 43.1557 15.6155 43.3704 15.7064C43.5245 15.7717 43.6645 15.8392 43.6815 15.8564ZM8.02463 16.7464C7.81991 18.3296 7.44391 21.057 7.42844 21.071C7.41965 21.079 7.01269 20.7046 6.52415 20.239L5.63588 19.3924L6.20781 18.0595C6.52236 17.3264 6.81886 16.6818 6.86662 16.627C6.94292 16.5395 7.96139 15.9991 8.07939 15.9836C8.10397 15.9804 8.07931 16.3236 8.02463 16.7464ZM44.5357 16.2842L45.1372 16.5907L45.7339 17.9839L46.3307 19.377L45.4613 20.2325C44.9832 20.703 44.5828 21.079 44.5717 21.068C44.5606 21.057 44.4119 20.0048 44.2412 18.7297C44.0707 17.4545 43.9143 16.3137 43.8939 16.1945C43.8736 16.0753 43.8743 15.9777 43.8956 15.9777C43.9169 15.9777 44.2049 16.1157 44.5357 16.2842ZM20.4584 18.6607C22.2006 19.2395 23.617 19.7223 23.6059 19.7336C23.5745 19.7654 11.3986 20.7149 11.3384 20.6903C11.3091 20.6783 12.0698 19.7948 13.0288 18.727L14.7724 16.7854L16.0315 17.1968C16.724 17.4231 18.7162 18.0818 20.4584 18.6607ZM39.0253 18.8055C39.9307 19.8187 40.6583 20.6611 40.6423 20.6774C40.6054 20.7148 28.4387 19.7744 28.3957 19.7309C28.3783 19.7132 28.4802 19.6619 28.6221 19.6169C28.9905 19.5001 35.7499 17.2722 36.5416 17.0067C37.0333 16.8418 37.2253 16.8078 37.2909 16.8741C37.3394 16.923 38.1199 17.7922 39.0253 18.8055ZM25.4163 20.1363L25.4136 21.2204L24.9482 20.7079C24.6922 20.4261 24.4159 20.105 24.3343 19.9944L24.1858 19.7933L24.7829 19.4257C25.1113 19.2235 25.3887 19.0568 25.3994 19.0552C25.41 19.0536 25.4177 19.5402 25.4163 20.1363ZM27.2576 19.4617L27.8129 19.8102L27.2448 20.4736C26.9323 20.8385 26.6387 21.1499 26.5922 21.1656C26.5342 21.1851 26.5078 20.8561 26.5078 20.1147C26.5078 19.2831 26.5301 19.0444 26.605 19.0744C26.6585 19.0959 26.9521 19.2702 27.2576 19.4617ZM7.37352 21.3184C7.37352 21.5754 6.87269 23.3064 6.82462 23.2153C6.7669 23.1059 5.74011 19.794 5.74011 19.7173C5.74011 19.6924 6.10763 20.0198 6.55682 20.445C7.006 20.8702 7.37352 21.2632 7.37352 21.3184ZM46.1566 20.0181C45.4578 22.3544 45.1383 23.3046 45.0939 23.1783C45.066 23.0987 44.9417 22.633 44.8176 22.1435L44.5919 21.2533L45.4086 20.472C45.8578 20.0422 46.2324 19.6889 46.2411 19.6868C46.2497 19.6848 46.2117 19.8338 46.1566 20.0181ZM21.9152 23.9205C17.1909 33.3742 16.6844 34.3645 16.6273 34.2575C16.5957 34.1981 15.8085 32.2694 14.8779 29.9713C13.9474 27.6732 12.7374 24.6931 12.1892 23.349C11.5412 21.7603 11.2246 20.8937 11.2845 20.8726C11.3352 20.8548 14.1599 20.6202 17.5616 20.3513C20.9633 20.0824 23.7932 19.8576 23.8503 19.8516C23.9078 19.8456 23.0448 21.6602 21.9152 23.9205ZM34.7806 20.3922C38.0686 20.6476 40.767 20.8676 40.7768 20.8808C40.7866 20.8941 40.1953 22.3773 39.4627 24.1767C38.7302 25.9762 37.5037 29.0005 36.7373 30.8976C35.9708 32.7946 35.3202 34.3201 35.2915 34.2876C35.2345 34.2229 34.1697 32.1168 31.9135 27.6062C31.1111 26.0018 29.9165 23.6211 29.259 22.3156C28.6014 21.0101 28.0634 19.9209 28.0634 19.8951C28.0634 19.8692 28.2296 19.866 28.4328 19.8879C28.6361 19.9098 31.4925 20.1367 34.7806 20.3922ZM28.3212 20.7276C28.5533 21.172 29.6273 23.3095 30.708 25.4776C31.7887 27.6456 33.2283 30.5232 33.9072 31.8723C34.5861 33.2215 35.1415 34.3459 35.1415 34.3709C35.1415 34.426 35.0613 34.3922 30.3968 32.3762C28.3648 31.4979 26.6585 30.7439 26.605 30.7007C26.5292 30.6394 26.5078 29.6169 26.5078 26.0688V21.5156L27.1883 20.7227C27.5627 20.2865 27.8758 19.9274 27.8842 19.9246C27.8925 19.9218 28.0892 20.2832 28.3212 20.7276ZM24.7917 20.7264L25.4201 21.4546L25.4 26.0916L25.3799 30.7287L21.1408 32.5675C18.8093 33.5788 16.8888 34.3945 16.8728 34.38C16.8569 34.3656 18.262 31.5229 19.9953 28.063C21.7286 24.6031 23.3432 21.3731 23.5834 20.8853C23.8235 20.3975 24.0524 19.9984 24.0918 19.9984C24.1312 19.9984 24.4462 20.326 24.7917 20.7264ZM10.9515 20.8937C10.9515 20.9454 9.77207 23.1113 9.70564 23.1817C9.65197 23.2386 7.77503 21.5106 7.70184 21.337C7.68994 21.3087 8.37247 21.1954 9.21858 21.0852C11.0297 20.8494 10.9515 20.858 10.9515 20.8937ZM42.8354 21.114L44.3456 21.2953L43.3489 22.2605C42.8007 22.7913 42.3266 23.2097 42.2955 23.1901C42.2393 23.1549 41.0529 20.9596 41.0529 20.8908C41.0529 20.8711 41.1142 20.8724 41.189 20.8939C41.2638 20.9153 42.0047 21.0144 42.8354 21.114ZM11.9442 23.073C14.1334 28.4927 15.9617 33.0046 16.0941 33.3144C16.1757 33.5053 16.2317 33.6725 16.2184 33.686C16.2051 33.6994 15.0436 31.858 13.6372 29.594C12.2307 27.3299 10.7857 25.0078 10.4261 24.4337L9.77215 23.3898L10.4117 22.2019C10.7634 21.5486 11.0765 21.0427 11.1076 21.0777C11.1386 21.1128 11.5151 22.0107 11.9442 23.073ZM41.6589 22.3368L42.2147 23.3745L39.0087 28.5387C37.2454 31.3791 35.7927 33.6928 35.7803 33.6803C35.7553 33.6549 40.7621 21.2692 40.8754 21.0766C40.9263 20.9901 41.007 21.1198 41.6589 22.3368ZM8.53775 22.3535C9.05625 22.8466 9.46118 23.2696 9.43769 23.2934C9.38907 23.3427 7.03961 23.5401 6.99333 23.4987C6.94292 23.4537 7.48553 21.4157 7.54231 21.437C7.57132 21.448 8.01934 21.8604 8.53775 22.3535ZM44.7785 22.5277C44.9112 23.0299 45.0197 23.4561 45.0197 23.4747C45.0197 23.5241 42.621 23.3484 42.5685 23.2953C42.5442 23.2706 42.9542 22.8399 43.4795 22.3381C44.0882 21.7568 44.4533 21.4599 44.4859 21.5201C44.5141 21.5721 44.6458 22.0254 44.7785 22.5277ZM10.4222 24.6695C10.8299 25.3307 12.3583 27.7959 13.8187 30.1476C15.2791 32.4993 16.474 34.4417 16.474 34.464C16.474 34.5208 15.6341 34.5144 15.2014 34.4543C14.8428 34.4044 14.8405 34.4022 14.8405 34.0992V33.7943L13.4853 33.1088L12.13 32.4233L11.0243 29.7782C10.4162 28.3234 9.88687 27.0977 9.84806 27.0543C9.80925 27.0109 9.31541 26.793 8.75056 26.5699L7.72354 26.1643L7.34039 24.9348C7.1296 24.2586 6.97225 23.69 6.9906 23.6714C7.02763 23.6339 8.66353 23.4965 9.28562 23.4786L9.68099 23.4672L10.4222 24.6695ZM43.7752 23.5571C44.4383 23.6071 44.992 23.657 45.0055 23.668C45.0529 23.7065 44.3038 26.0301 44.2149 26.1206C44.1656 26.1707 43.7052 26.3766 43.1919 26.5781C42.6785 26.7796 42.2167 26.987 42.1656 27.0388C42.086 27.1196 41.5439 28.3817 40.1581 31.7134L39.8598 32.4307L38.5118 33.1124L37.1638 33.7943V34.1026V34.4108L36.4381 34.466C36.039 34.4964 35.6601 34.5085 35.5961 34.493C35.513 34.473 35.9933 33.6394 37.2746 31.5799C38.2618 29.993 39.8 27.5186 40.6928 26.081C41.7395 24.3958 42.3612 23.4671 42.4429 23.4667C42.5126 23.4664 43.1122 23.5071 43.7752 23.5571ZM25.4188 33.3522V35.8264L24.7459 36.7619C24.3758 37.2764 24.0668 37.706 24.0593 37.7165C24.0314 37.7559 16.9406 34.6339 16.9406 34.5823C16.9406 34.5354 25.2078 30.9057 25.3605 30.8856C25.3925 30.8814 25.4188 31.9913 25.4188 33.3522ZM30.8441 32.7101C33.1648 33.7181 35.0637 34.5632 35.0637 34.588C35.0637 34.6128 34.1799 35.0177 33.0997 35.4878C32.0196 35.9579 30.4213 36.6575 29.548 37.0425C28.6747 37.4275 27.9349 37.7146 27.9039 37.6805C27.873 37.6464 27.5461 37.1975 27.1777 36.683L26.5078 35.7476V33.3127C26.5078 31.9736 26.534 30.8777 26.5661 30.8776C26.5982 30.8774 28.5233 31.7021 30.8441 32.7101ZM16.3329 34.6517L16.5419 34.7015L16.1111 35.5126L15.6803 36.3238L15.2604 35.755C14.9235 35.2986 14.8405 35.1267 14.8405 34.8847V34.5832L15.4822 34.5925C15.8351 34.5977 16.218 34.6243 16.3329 34.6517ZM37.1638 34.8905C37.1638 35.1444 37.0871 35.2971 36.7229 35.769L36.2819 36.3402L35.8755 35.5208L35.469 34.7015L35.7525 34.6536C35.9084 34.6271 36.2897 34.6006 36.5999 34.5944L37.1638 34.5832V34.8905ZM17.4844 36.7513C17.9213 37.8353 18.2947 38.7487 18.3143 38.7813C18.3339 38.8139 18.1785 38.8404 17.9691 38.8404H17.5883L16.6858 37.6472L15.7833 36.4539L16.2111 35.5891C16.4465 35.1134 16.6505 34.7369 16.6645 34.7523C16.6786 34.7677 17.0475 35.6672 17.4844 36.7513ZM20.9075 36.5132C22.469 37.1957 23.7921 37.7793 23.8478 37.81C23.9221 37.8509 23.8549 37.9955 23.5952 38.3531L23.2412 38.8404H20.8675H18.4938L18.3787 38.5842C18.1643 38.1068 16.8629 34.861 16.8629 34.8037C16.8629 34.7724 17.1342 34.8651 17.4657 35.0096C17.7972 35.1541 19.346 35.8307 20.9075 36.5132ZM34.3428 36.8027L33.5334 38.801L31.129 38.8192L28.7245 38.8374L28.3847 38.3622C28.1978 38.1008 28.0662 37.8653 28.0922 37.8389C28.1633 37.7668 35.0986 34.751 35.1274 34.7796C35.141 34.7933 34.788 35.7036 34.3428 36.8027ZM36.122 36.5213C36.0997 36.5803 35.7037 37.126 35.242 37.734L34.4026 38.8394L34.0248 38.8399C33.7526 38.8403 33.6584 38.8129 33.6876 38.7419C33.7876 38.4993 35.2404 34.9263 35.2792 34.8275C35.3046 34.7632 35.4985 35.0719 35.7428 35.5655C35.9737 36.0321 36.1444 36.4622 36.122 36.5213Z" stroke="white" mask="url(#path-1-outside-1_1_4809)"/>
<path d="M2.23786 57.09L3.58429 51.37H4.86571L6.21214 57.09H6.39786L7.54 51.37H8.35714L7.02929 58H5.64571L4.30857 52.28H4.12286L2.78571 58H1.42071L0.0928571 51.37H0.91L2.05214 57.09H2.23786ZM11.0102 53.1993C12.4681 53.1993 13.3131 54.2671 13.3131 55.66C13.3131 57.0529 12.4681 58.1207 11.0102 58.1207C9.5431 58.1207 8.70739 57.0529 8.70739 55.66C8.70739 54.2671 9.5431 53.1993 11.0102 53.1993ZM11.0102 57.4336C12.041 57.4336 12.5238 56.5793 12.5238 55.66C12.5238 54.75 12.041 53.8864 11.0102 53.8864C9.97025 53.8864 9.49667 54.75 9.49667 55.66C9.49667 56.5793 9.97025 57.4336 11.0102 57.4336ZM17.1728 53.32V54.0629H16.8106C15.8913 54.0629 15.3342 54.6386 15.3342 55.66V58H14.5449V53.32H15.3063V53.8864H15.4921C15.7242 53.5986 16.1699 53.32 16.8478 53.32H17.1728ZM18.1993 51.2493H18.9886V58H18.1993V51.2493ZM23.9103 51.2493H24.6996V58H23.9381V57.4893H23.7524C23.4924 57.8143 23.0374 58.1207 22.3038 58.1207C21.0038 58.1207 20.2238 57.0529 20.2238 55.66C20.2238 54.2579 21.0038 53.1993 22.3038 53.1993C23.0374 53.1993 23.4646 53.4964 23.7246 53.8307H23.9103V51.2493ZM22.4524 57.4336C23.4924 57.4336 23.9196 56.57 23.9196 55.66C23.9196 54.7407 23.4924 53.8864 22.4524 53.8864C21.5053 53.8864 21.0131 54.62 21.0131 55.66C21.0131 56.7 21.5053 57.4336 22.4524 57.4336ZM30.4125 59.8571H29.6232V57.4893H29.4375C29.1775 57.8236 28.7503 58.1207 28.0167 58.1207C26.7167 58.1207 25.9367 57.0621 25.9367 55.66C25.9367 54.2671 26.7167 53.1993 28.0167 53.1993C28.7503 53.1993 29.2053 53.5057 29.4653 53.8307H29.651V53.32H30.4125V59.8571ZM28.1653 53.8864C27.2182 53.8864 26.726 54.62 26.726 55.66C26.726 56.7 27.2182 57.4336 28.1653 57.4336C29.2053 57.4336 29.6325 56.5793 29.6325 55.66C29.6325 54.75 29.2053 53.8864 28.1653 53.8864ZM33.6832 58.1207C32.5132 58.1207 31.8632 57.3871 31.8632 56.2636V53.32H32.6525V56.1243C32.6525 56.9786 33.0425 57.415 33.8318 57.415C34.6675 57.415 35.2061 56.6814 35.2061 55.8643V53.32H35.9953V58H35.2339V57.4893H35.0575C34.8161 57.8421 34.3239 58.1207 33.6832 58.1207ZM40.4951 58V57.4986H40.3094C40.0215 57.8607 39.5108 58.1207 38.8422 58.1207C37.7558 58.1207 37.1522 57.3964 37.1522 56.5979C37.1522 55.8457 37.6351 55.0471 38.9444 55.0471H40.4672V54.8614C40.4672 54.295 40.1329 53.8864 39.3251 53.8864C38.6379 53.8864 38.2758 54.1464 38.2386 54.5364H37.4494C37.5051 53.6914 38.2572 53.1993 39.3065 53.1993C40.4765 53.1993 41.2379 53.7657 41.2379 54.815V58H40.4951ZM39.0279 57.4336C39.8172 57.4336 40.4672 56.8579 40.4672 56.1243V55.7064H39.0651C38.3036 55.7064 37.9415 56.0314 37.9415 56.5793C37.9415 57.1086 38.3408 57.4336 39.0279 57.4336ZM45.0046 53.1993C46.1746 53.1993 46.8432 53.9329 46.8432 55.0564V58H46.0539V55.1957C46.0539 54.3414 45.6453 53.905 44.856 53.905C44.0203 53.905 43.4724 54.6386 43.4724 55.4557V58H42.6832V53.32H43.4446V53.8307H43.621C43.8624 53.4779 44.3639 53.1993 45.0046 53.1993ZM49.513 53.32H50.7758V54.0071H49.513V56.6629C49.513 57.1179 49.7172 57.2943 50.3301 57.2943H50.7758V58H50.2558C49.2344 58 48.7237 57.7771 48.7237 56.7929V54.0071H47.7765V53.32H48.7237V51.9086H49.513V53.32Z" fill="white"/>
</svg>
