<svg width="45" height="68" viewBox="0 0 45 68" fill="none" xmlns="http://www.w3.org/2000/svg">
<path d="M23.1765 7.09326C23.319 7.8216 23.319 7.8216 23.1765 8.1066C23.0511 8.1484 22.9257 8.1902 22.7965 8.23326C22.7965 8.35866 22.7965 8.48406 22.7965 8.61326C22.7181 8.6211 22.6397 8.62894 22.559 8.63701C22.257 8.71656 22.257 8.71656 22.1473 9.04868C22.1107 9.15579 22.0742 9.2629 22.0365 9.37326C21.9529 9.45686 21.8693 9.54046 21.7832 9.6266C21.5792 9.98532 21.5792 9.98532 21.5298 10.3866C21.4305 10.4127 21.3313 10.4388 21.229 10.4658C20.7786 10.7017 20.792 10.9254 20.6432 11.3999C20.4346 11.6136 20.2237 11.8249 20.0098 12.0333C19.9889 12.1195 19.968 12.2057 19.9465 12.2945C19.8832 12.5399 19.8832 12.5399 19.5665 12.7853C19.1943 13.0924 19.1938 13.2206 19.1232 13.6799C18.9411 13.8778 18.9411 13.8778 18.7432 14.0599C18.6549 14.2268 18.5709 14.3961 18.4898 14.5666C18.3209 14.9044 18.152 15.2422 17.9832 15.5799C17.8996 15.5799 17.816 15.5799 17.7298 15.5799C17.7298 15.7889 17.7298 15.9979 17.7298 16.2133C17.6044 16.2133 17.479 16.2133 17.3498 16.2133C17.4334 16.2969 17.517 16.3805 17.6032 16.4666C17.5039 16.5345 17.4046 16.6025 17.3023 16.6724C16.9232 17.0155 16.8624 17.2538 16.7165 17.7333C16.5911 17.8169 16.4657 17.9005 16.3365 17.9866C16.2604 18.2275 16.2604 18.2275 16.2098 18.4933C16.1274 18.6632 16.0431 18.8321 15.9565 18.9999C15.8938 19.188 15.8938 19.188 15.8298 19.3799C15.5686 19.5304 15.5686 19.5304 15.3232 19.6333C15.3232 19.8005 15.3232 19.9677 15.3232 20.1399C15.1965 20.2666 15.0698 20.3933 14.9432 20.5199C14.898 20.7305 14.8555 20.9415 14.8165 21.1533C14.6911 21.216 14.6911 21.216 14.5632 21.2799C14.4798 21.6637 14.4798 21.6637 14.4365 22.0399C14.3529 22.0399 14.2693 22.0399 14.1832 22.0399C14.1518 22.1314 14.1205 22.2228 14.0882 22.317C13.9298 22.6733 13.9298 22.6733 13.6686 22.9583C13.3679 23.385 13.3581 23.6835 13.3435 24.1948C13.3202 24.3194 13.3202 24.3194 13.2965 24.4466C13.1711 24.5302 13.0457 24.6138 12.9165 24.6999C12.8701 24.9525 12.8277 25.2059 12.7898 25.4599C12.7062 25.5017 12.6226 25.5435 12.5365 25.5866C12.4973 25.7068 12.4581 25.827 12.4177 25.9508C12.2804 26.3546 12.1899 26.4398 11.9032 26.7266C11.6043 27.3133 11.509 27.7226 11.5231 28.3733C11.3949 28.7672 11.2479 29.0396 11.0165 29.3866C10.9191 29.5928 10.8271 29.8015 10.7394 30.012C10.6701 30.1744 10.6701 30.1744 10.5994 30.3401C10.5003 30.6864 10.5443 30.822 10.6365 31.1599C10.5444 31.4769 10.4003 31.7474 10.2565 32.0466C10.1729 32.0466 10.0893 32.0466 10.0031 32.0466C9.77475 32.5491 9.68749 33.0197 9.62315 33.5666C9.53955 33.5666 9.45595 33.5666 9.36982 33.5666C9.19318 34.2143 9.07933 34.8238 9.03336 35.4938C9.01899 35.5684 9.00462 35.6431 8.98982 35.7199C8.90622 35.7617 8.82262 35.8035 8.73648 35.8466C8.64392 36.1397 8.55897 36.4354 8.48315 36.7333C8.31595 36.7751 8.14875 36.8169 7.97648 36.8599C7.77402 36.2894 7.93404 35.9101 8.13234 35.3686C8.25085 35.0258 8.31042 34.6859 8.35648 34.3266C8.44008 34.3266 8.52368 34.3266 8.60982 34.3266C8.60459 34.1908 8.59936 34.0549 8.59398 33.9149C8.60875 33.472 8.64191 33.2977 8.86315 32.9333C8.90495 32.8079 8.94675 32.6825 8.98982 32.5533C9.06035 32.3769 9.06035 32.3769 9.13232 32.197C9.27218 31.8038 9.27218 31.8038 9.17536 31.4385C9.10823 30.9765 9.17423 30.6734 9.29857 30.2258C9.33498 30.0916 9.37139 29.9573 9.4089 29.8191C9.4378 29.7182 9.46671 29.6172 9.49648 29.5133C9.53828 29.6387 9.58008 29.7641 9.62315 29.8933C9.81125 29.7679 9.81125 29.7679 10.0031 29.6399C10.0031 29.5563 10.0031 29.4727 10.0031 29.3866C9.91955 29.3866 9.83595 29.3866 9.74982 29.3866C9.74982 29.303 9.74982 29.2194 9.74982 29.1333C9.91702 29.1751 10.0842 29.2169 10.2565 29.2599C10.2748 29.1868 10.2931 29.1136 10.3119 29.0383C10.3569 28.8582 10.4041 28.6786 10.4544 28.4999C10.5279 28.2073 10.5279 28.2073 10.5098 27.7399C10.6352 27.7399 10.7606 27.7399 10.8898 27.7399C11.1086 27.0993 11.3202 26.4556 11.4598 25.7924C11.4912 25.6906 11.4912 25.6906 11.5231 25.5866C11.6068 25.5448 11.6904 25.503 11.7765 25.4599C11.7765 25.3763 11.7765 25.2927 11.7765 25.2066C11.8601 25.1648 11.9437 25.123 12.0298 25.0799C12.1143 24.6912 12.1565 24.3379 12.1565 23.9399C12.2731 23.8973 12.2731 23.8973 12.392 23.8538C12.7505 23.6328 12.8075 23.4293 12.9482 23.0374C12.9906 22.9222 13.0331 22.8069 13.0768 22.6881C13.1075 22.5996 13.1382 22.5111 13.1698 22.4199C13.0705 22.5244 12.9713 22.6289 12.869 22.7366C12.5365 23.0533 12.5365 23.0533 12.2832 23.0533C12.3223 22.9618 12.3615 22.8704 12.4019 22.7762C12.5271 22.4449 12.5958 22.1329 12.6632 21.7866C12.705 21.7448 12.7468 21.703 12.7898 21.6599C12.795 21.4067 12.7952 21.1532 12.7898 20.8999C12.8734 20.8581 12.957 20.8163 13.0432 20.7733C13.0585 20.8541 13.0738 20.9349 13.0897 21.0182C13.1215 21.1752 13.1215 21.1752 13.154 21.3354C13.1746 21.4397 13.1951 21.544 13.2163 21.6515C13.2428 21.7379 13.2692 21.8243 13.2965 21.9133C13.4219 21.976 13.4219 21.976 13.5498 22.0399C13.508 21.8309 13.4662 21.6219 13.4232 21.4066C13.5486 21.323 13.674 21.2394 13.8032 21.1533C13.8241 21.0671 13.845 20.9808 13.8665 20.892C13.8874 20.811 13.9083 20.73 13.9298 20.6466C14.0552 20.6048 14.1806 20.563 14.3098 20.5199C14.3098 20.4363 14.3098 20.3527 14.3098 20.2666C14.3934 20.2666 14.477 20.2666 14.5632 20.2666C14.5109 20.1177 14.4587 19.9688 14.4048 19.8154C14.2973 19.387 14.3027 19.1482 14.5077 18.7545C14.8165 18.3666 14.8165 18.3666 15.1648 18.2479C15.2589 18.2452 15.3529 18.2426 15.4498 18.2399C15.4838 18.0989 15.5177 17.9578 15.5527 17.8124C15.7032 17.3533 15.7032 17.3533 16.0832 17.0999C16.1682 16.8547 16.1682 16.8547 16.2098 16.5933C16.2725 16.4052 16.2725 16.4052 16.3365 16.2133C16.1693 16.0879 16.0021 15.9625 15.8298 15.8333C15.9552 15.8333 16.0806 15.8333 16.2098 15.8333C16.168 15.6243 16.1262 15.4153 16.0832 15.1999C16.2504 15.1999 16.4176 15.1999 16.5898 15.1999C16.6316 15.2835 16.6734 15.3671 16.7165 15.4533C17.0143 15.1826 17.1802 14.93 17.3498 14.5666C17.3916 14.5248 17.4334 14.483 17.4765 14.4399C18.0522 13.5529 18.0522 13.5529 18.2365 12.5399C18.3619 12.4981 18.4873 12.4563 18.6165 12.4133C18.6583 12.4969 18.7001 12.5805 18.7432 12.6666C18.7745 12.5752 18.8059 12.4837 18.8382 12.3895C19.0106 12.0015 19.2359 11.7276 19.5032 11.3999C19.545 11.2745 19.5868 11.1491 19.6298 11.0199C19.7552 11.0199 19.8806 11.0199 20.0098 11.0199C20.0237 10.9483 20.0376 10.8766 20.0519 10.8027C20.072 10.7098 20.092 10.6169 20.1127 10.5212C20.1318 10.4286 20.1509 10.336 20.1706 10.2406C20.2012 10.1634 20.2317 10.0862 20.2632 10.0066C20.3886 9.9648 20.514 9.923 20.6432 9.87993C20.5805 9.75453 20.5805 9.75453 20.5165 9.6266C20.6907 9.4366 20.6907 9.4366 20.8965 9.2466C20.9801 9.2466 21.0637 9.2466 21.1498 9.2466C21.1498 9.0794 21.1498 8.9122 21.1498 8.73993C21.2439 8.68768 21.3379 8.63543 21.4348 8.5816C21.868 8.30593 21.9695 8.04207 22.1641 7.57964C22.4175 7.10979 22.6656 7.09326 23.1765 7.09326Z" fill="white"/>
<path d="M39.2622 19.3797C39.2622 19.6305 39.2622 19.8813 39.2622 20.1397C39.0467 20.1945 39.0467 20.1945 38.8268 20.2505C38.6779 20.2975 38.5289 20.3446 38.3755 20.393C38.3337 20.4766 38.2919 20.5602 38.2489 20.6464C38.0094 20.7453 38.0094 20.7453 37.7105 20.8364C37.6078 20.8688 37.5051 20.9013 37.3993 20.9348C37.3035 20.965 37.2076 20.9952 37.1089 21.0264C36.6166 21.2033 36.6166 21.2033 36.2222 21.533C36.2222 21.4494 36.2222 21.3658 36.2222 21.2797C36.0772 21.3698 36.0772 21.3698 35.9293 21.4618C35.5973 21.6548 35.3436 21.7864 34.9555 21.7864C34.9137 21.87 34.8719 21.9536 34.8289 22.0397C34.7035 22.0397 34.5781 22.0397 34.4489 22.0397C34.4071 22.1233 34.3653 22.2069 34.3222 22.293C33.9422 22.5464 33.9422 22.5464 33.5622 22.5464C33.4786 22.63 33.395 22.7136 33.3089 22.7997C33.2017 22.8206 33.0946 22.8415 32.9843 22.863C32.8824 22.8839 32.7805 22.9048 32.6755 22.9264C32.6337 23.01 32.5919 23.0936 32.5489 23.1797C32.2178 23.4067 31.9291 23.5556 31.5434 23.6705C31.0694 23.8447 30.7781 24.1207 30.3955 24.4464C30.1861 24.5348 29.9753 24.6205 29.7622 24.6997C29.7204 24.7833 29.6786 24.8669 29.6355 24.953C29.5362 24.9713 29.437 24.9896 29.3347 25.0084C28.9641 25.0878 28.8654 25.1818 28.6222 25.4597C28.3689 25.5864 28.3689 25.5864 28.1393 25.618C27.7349 25.7567 27.5254 26.0427 27.2289 26.3464C26.0032 27.233 26.0032 27.233 25.4555 27.233C25.3301 27.3166 25.2047 27.4002 25.0755 27.4864C24.6955 27.7397 24.6955 27.7397 24.4422 27.7397C24.4422 27.8651 24.4422 27.9905 24.4422 28.1197C24.2205 28.2953 24.2205 28.2953 23.9355 28.4601C23.8415 28.5155 23.7474 28.5708 23.6505 28.6278C23.5774 28.6691 23.5042 28.7105 23.4288 28.753C23.4759 28.8941 23.4759 28.8941 23.5238 29.038C23.5555 29.3864 23.5555 29.3864 23.3259 29.6793C23.0488 29.893 23.0488 29.893 22.7955 29.893C22.7119 29.7676 22.6283 29.6422 22.5422 29.513C22.4586 29.4712 22.375 29.4294 22.2888 29.3864C22.2261 29.5745 22.2261 29.5745 22.1622 29.7664C22.0368 29.7664 21.9114 29.7664 21.7822 29.7664C21.7822 29.85 21.7822 29.9336 21.7822 30.0197C21.6855 30.0328 21.5889 30.0458 21.4893 30.0593C21.107 30.1571 21.0299 30.2444 20.7688 30.5264C20.5729 30.6518 20.5729 30.6518 20.373 30.7797C19.9774 31.001 19.9774 31.001 19.8822 31.413C19.7986 31.4966 19.715 31.5802 19.6288 31.6664C19.6706 31.6246 19.7124 31.5828 19.7555 31.5397C19.8391 31.5815 19.9227 31.6233 20.0088 31.6664C19.8834 31.7918 19.758 31.9172 19.6288 32.0464C19.4198 31.9628 19.2108 31.8792 18.9955 31.793C18.9955 31.8766 18.9955 31.9602 18.9955 32.0464C18.8427 32.0973 18.8427 32.0973 18.6868 32.1493C18.5261 32.2237 18.5261 32.2237 18.3622 32.2997C18.2995 32.4878 18.2995 32.4878 18.2355 32.6797C18.1362 32.6901 18.037 32.7006 17.9347 32.7114C17.825 32.7427 17.7152 32.7741 17.6022 32.8064C17.4692 33.0407 17.4692 33.0407 17.3488 33.313C17.1382 33.4825 16.9272 33.6515 16.7155 33.8197C16.6528 34.0078 16.6528 34.0078 16.5888 34.1997C16.2538 34.4289 15.9613 34.5778 15.5755 34.7064C15.4997 34.7821 15.424 34.8579 15.3459 34.9359C15.0688 35.213 15.0688 35.213 14.673 35.4664C14.3001 35.7258 14.2431 35.8388 14.0555 36.2264C13.7388 36.4322 13.7388 36.4322 13.4222 36.6064C13.2968 36.7318 13.2968 36.7318 13.1688 36.8597C13.0852 36.9015 13.0016 36.9433 12.9155 36.9864C12.8815 37.0621 12.8476 37.1379 12.8126 37.2159C12.6094 37.5902 12.3883 37.774 12.0288 37.9997C11.6726 37.968 11.6726 37.968 11.3955 37.873C11.5676 37.0437 11.5676 37.0437 11.918 36.7964C12.0382 36.7337 12.1584 36.671 12.2822 36.6064C12.7817 36.2201 13.2509 35.8309 13.5884 35.2922C13.8022 34.9597 13.8022 34.9597 14.1822 34.833C14.2449 34.6449 14.2449 34.6449 14.3088 34.453C14.5463 34.3739 14.5463 34.3739 14.8155 34.3264C15.0036 34.2637 15.0036 34.2637 15.1955 34.1997C15.1955 34.0743 15.1955 33.9489 15.1955 33.8197C15.3183 33.7883 15.4411 33.757 15.5676 33.7247C15.6956 33.6724 15.8236 33.6202 15.9555 33.5664C16.0782 33.3089 16.0782 33.3089 16.0822 33.0597C16.1762 33.0545 16.2703 33.0492 16.3672 33.0439C16.8543 32.8889 16.9743 32.6045 17.2222 32.173C17.1804 32.0894 17.1386 32.0058 17.0955 31.9197C17.1974 31.904 17.2993 31.8883 17.4043 31.8722C17.5649 31.833 17.5649 31.833 17.7288 31.793C17.7706 31.7094 17.8124 31.6258 17.8555 31.5397C17.8555 31.6233 17.8555 31.7069 17.8555 31.793C18.0508 31.6189 18.0508 31.6189 18.2355 31.413C18.2355 31.3294 18.2355 31.2458 18.2355 31.1597C18.549 31.097 18.549 31.097 18.8688 31.033C18.8688 30.9494 18.8688 30.8658 18.8688 30.7797C18.9524 30.7797 19.036 30.7797 19.1222 30.7797C19.164 30.6961 19.2058 30.6125 19.2488 30.5264C19.2906 30.5682 19.3324 30.61 19.3755 30.653C19.4382 30.4649 19.4382 30.4649 19.5022 30.273C19.5858 30.273 19.6694 30.273 19.7555 30.273C19.8025 30.1515 19.8025 30.1515 19.8505 30.0276C20.0088 29.7664 20.0088 29.7664 20.2701 29.6793C20.3511 29.6662 20.4321 29.6531 20.5155 29.6397C20.5573 29.5979 20.5991 29.5561 20.6422 29.513C20.8525 29.4669 21.0636 29.4244 21.2755 29.3864C21.2755 29.3028 21.2755 29.2192 21.2755 29.133C21.4009 29.133 21.5263 29.133 21.6555 29.133C21.6555 28.9658 21.6555 28.7986 21.6555 28.6264C21.7496 28.6133 21.8436 28.6002 21.9405 28.5868C22.4736 28.4535 22.7338 28.1862 23.1043 27.7872C23.4547 27.4624 23.6068 27.4316 24.0622 27.3597C24.3068 27.1588 24.4273 27.0094 24.5688 26.7264C24.6524 26.7081 24.736 26.6898 24.8222 26.6709C24.9058 26.6474 24.9894 26.6239 25.0755 26.5997C25.1173 26.4743 25.1591 26.3489 25.2022 26.2197C25.3903 26.2824 25.3903 26.2824 25.5822 26.3464C25.7696 26.1589 25.9508 25.9652 26.1284 25.7684C26.4774 25.452 26.6428 25.3724 27.1022 25.333C27.0604 25.2494 27.0186 25.1658 26.9755 25.0797C27.3724 24.9474 27.4809 24.9613 27.8622 25.0797C27.904 24.9125 27.9458 24.7453 27.9889 24.573C28.1926 24.5221 28.1926 24.5221 28.4005 24.4701C28.8229 24.3364 29.0624 24.2349 29.3822 23.9397C29.424 23.8561 29.4658 23.7725 29.5089 23.6864C29.7617 23.6414 30.0151 23.5995 30.2689 23.5597C30.5583 23.4364 30.5583 23.4364 30.7755 23.3064C30.7337 23.2228 30.6919 23.1392 30.6489 23.053C31.0289 22.9264 31.0289 22.9264 31.2822 22.9264C31.2822 22.8428 31.2822 22.7592 31.2822 22.673C31.4912 22.7148 31.7002 22.7566 31.9155 22.7997C31.9155 22.6743 31.9155 22.5489 31.9155 22.4197C31.9991 22.4197 32.0827 22.4197 32.1689 22.4197C32.1689 22.3361 32.1689 22.2525 32.1689 22.1664C32.3452 22.1781 32.3452 22.1781 32.5251 22.1901C32.9225 22.2062 32.9225 22.2062 33.1426 21.9922C33.1975 21.9243 33.2523 21.8563 33.3089 21.7864C33.6889 21.533 33.6889 21.533 34.1955 21.533C34.2504 21.4729 34.3052 21.4128 34.3618 21.3509C34.6837 21.0529 35.0375 21.0814 35.4622 21.0264C35.504 20.9428 35.5458 20.8592 35.5889 20.773C35.6725 20.6476 35.7561 20.5222 35.8422 20.393C35.9258 20.393 36.0094 20.393 36.0955 20.393C36.0955 20.4766 36.0955 20.5602 36.0955 20.6464C36.3521 20.4606 36.5879 20.2811 36.808 20.0526C36.9822 19.8864 36.9822 19.8864 37.2355 19.8864C37.2355 19.97 37.2355 20.0536 37.2355 20.1397C37.3087 20.0848 37.3818 20.03 37.4572 19.9734C37.5983 19.8676 37.5983 19.8676 37.7422 19.7597C37.8153 19.6891 37.8885 19.6186 37.9639 19.5459C38.398 19.2927 38.7647 19.3548 39.2622 19.3797Z" fill="white"/>
<path d="M6.07613 4.68652C6.24333 4.72832 6.41053 4.77012 6.5828 4.81319C6.56501 5.00062 6.54638 5.18796 6.52738 5.37527C6.5171 5.47961 6.50681 5.58395 6.49621 5.69145C6.45613 5.95319 6.45613 5.95319 6.32947 6.07986C6.37127 6.16346 6.41307 6.24706 6.45613 6.33319C6.39507 6.4034 6.334 6.47361 6.27108 6.54595C6.04695 6.88386 6.01971 7.08808 5.99697 7.48903C5.95977 8.08592 5.95977 8.08592 5.8228 8.35986C5.77695 8.56227 5.73525 8.76563 5.69613 8.96944C5.66478 9.13134 5.66478 9.13134 5.6328 9.2965C5.6119 9.40541 5.591 9.51432 5.56947 9.62653C5.49404 10.0097 5.41084 10.3877 5.31613 10.7665C5.22041 11.2064 5.22041 11.2064 5.18947 11.6532C5.10587 11.6532 5.02227 11.6532 4.93613 11.6532C4.93613 11.7368 4.93613 11.8204 4.93613 11.9065C5.01973 11.9065 5.10333 11.9065 5.18947 11.9065C5.17508 12.094 5.15891 12.2813 5.14197 12.4686C5.13315 12.5729 5.12433 12.6773 5.11525 12.7848C5.09794 12.8712 5.08063 12.9575 5.0628 13.0465C4.9374 13.1092 4.9374 13.1092 4.80947 13.1732C4.61466 14.0029 4.51829 14.8551 4.55613 15.7065C4.55613 15.7901 4.55613 15.8737 4.55613 15.9599C4.55875 16.0565 4.56136 16.1532 4.56405 16.2528C4.55615 16.5924 4.50501 16.896 4.42947 17.2265C4.38767 17.2265 4.34587 17.2265 4.3028 17.2265C4.1345 18.4079 3.99915 19.5817 3.9228 20.7732C3.8392 20.7732 3.7556 20.7732 3.66947 20.7732C3.66651 22.175 3.66427 23.5769 3.6629 24.9787C3.66225 25.6298 3.66136 26.2809 3.65991 26.9321C3.65852 27.562 3.65777 28.1919 3.65745 28.8219C3.65722 29.0606 3.65676 29.2993 3.65607 29.5381C3.64676 31.6822 3.64676 31.6822 3.79613 33.8199C3.83793 33.8617 3.87973 33.9035 3.9228 33.9465C3.94928 34.1518 3.9694 34.3578 3.98613 34.564C4.01689 34.9408 4.05583 35.2323 4.17613 35.5932C4.18504 35.9191 4.188 36.2413 4.18405 36.567C4.18348 36.6559 4.18291 36.7448 4.18232 36.8364C4.18083 37.0553 4.17856 37.2743 4.17613 37.4932C4.00893 37.535 3.84173 37.5768 3.66947 37.6199C3.52183 36.6925 3.38449 35.7676 3.28947 34.8332C3.24767 34.8332 3.20587 34.8332 3.1628 34.8332C3.16346 34.7312 3.16413 34.6292 3.16481 34.524C3.18108 31.5284 3.14681 28.5342 3.09947 25.539C3.09795 25.4432 3.09644 25.3473 3.09488 25.2486C3.07591 24.0523 3.05632 22.8561 3.03613 21.6599C3.07793 21.6599 3.11973 21.6599 3.1628 21.6599C3.1628 21.0747 3.1628 20.4895 3.1628 19.8865C3.2464 19.8865 3.33 19.8865 3.41613 19.8865C3.37433 19.4267 3.33253 18.9669 3.28947 18.4932C3.33127 18.4932 3.37307 18.4932 3.41613 18.4932C3.45883 18.042 3.50087 17.5907 3.5428 17.1394C3.56092 16.948 3.56092 16.948 3.57941 16.7528C3.59084 16.6291 3.60227 16.5054 3.61405 16.378C3.62466 16.2645 3.63528 16.1511 3.64621 16.0342C3.67415 15.7056 3.67415 15.7056 3.66501 15.3716C3.66947 15.0732 3.66947 15.0732 3.79613 14.6932C4.02055 13.9358 4.09439 13.2209 4.13259 12.432C4.17829 12.0135 4.28991 11.6693 4.42947 11.2732C4.482 11.0394 4.52969 10.8045 4.57197 10.5686C4.60381 10.3959 4.60381 10.3959 4.63629 10.2198C4.68136 9.8904 4.6912 9.57847 4.6828 9.24653C4.7664 9.24653 4.85 9.24653 4.93613 9.24653C4.93107 9.12015 4.92601 8.99377 4.9208 8.86356C4.93693 8.33387 5.03603 7.90255 5.18155 7.39403C5.32931 6.87398 5.4673 6.35778 5.56947 5.82652C5.70139 5.38677 5.8201 5.07058 6.07613 4.68652Z" fill="white"/>
<path d="M13.1693 29.3867C13.7127 29.3867 14.2561 29.3867 14.816 29.3867C14.816 29.4703 14.816 29.5539 14.816 29.6401C14.8996 29.6819 14.9832 29.7237 15.0693 29.7667C14.9857 29.9339 14.9021 30.1011 14.816 30.2734C14.9832 30.4824 15.1504 30.6914 15.3227 30.9067C15.2391 30.9067 15.1555 30.9067 15.0693 30.9067C15.0693 30.9903 15.0693 31.0739 15.0693 31.1601C14.9857 31.1601 14.9021 31.1601 14.816 31.1601C14.7742 31.2437 14.7324 31.3273 14.6893 31.4134C14.4409 31.5213 14.4409 31.5213 14.1352 31.6192C13.9848 31.6687 13.9848 31.6687 13.8314 31.7192C13.5493 31.7934 13.5493 31.7934 13.1693 31.7934C13.0596 31.8352 12.9499 31.877 12.8368 31.9201C12.1817 32.1142 11.5401 32.137 10.8893 31.9201C10.7655 31.526 10.7328 31.3497 10.9131 30.9701C11.0267 30.8133 11.0267 30.8133 11.1427 30.6534C11.221 30.5384 11.2994 30.4235 11.3802 30.3051C11.6927 29.9741 11.8456 29.9606 12.2827 29.8934C12.3806 29.7915 12.3806 29.7915 12.4806 29.6876C12.5407 29.6301 12.6008 29.5726 12.6627 29.5134C12.9397 29.553 12.9397 29.553 13.1693 29.6401C13.1693 29.5565 13.1693 29.4729 13.1693 29.3867Z" fill="white"/>
<path d="M24.4427 8.35986C24.9025 8.35986 25.3623 8.35986 25.836 8.35986C25.836 8.44346 25.836 8.52706 25.836 8.6132C25.9614 8.655 26.0868 8.6968 26.216 8.73986C26.1591 8.9065 26.1008 9.07267 26.0419 9.23861C25.9934 9.37748 25.9934 9.37748 25.9439 9.51916C25.836 9.7532 25.836 9.7532 25.5827 9.87986C25.3689 10.0883 25.1578 10.2995 24.9494 10.5132C24.6564 10.8062 24.5087 10.8293 24.1102 10.909C24.0067 10.9303 23.9031 10.9515 23.7965 10.9734C23.7171 10.9887 23.6378 11.0041 23.556 11.0199C23.5978 11.1035 23.6396 11.1871 23.6827 11.2732C22.2874 11.2491 22.2874 11.2491 21.8064 10.8536C21.656 10.5132 21.656 10.5132 21.6877 10.2203C21.719 10.1497 21.7504 10.0792 21.7827 10.0065C21.8663 10.0065 21.9499 10.0065 22.036 10.0065C22.0778 9.92293 22.1196 9.83933 22.1627 9.7532C22.0791 9.7114 21.9955 9.6696 21.9094 9.62653C22.2482 9.41592 22.5426 9.24655 22.9227 9.11986C22.9645 8.99446 23.0063 8.86906 23.0494 8.73986C23.0912 8.82346 23.133 8.90706 23.176 8.9932C23.2596 8.9932 23.3432 8.9932 23.4294 8.9932C23.4294 8.8678 23.4294 8.7424 23.4294 8.6132C23.5966 8.655 23.7638 8.6968 23.936 8.73986C23.936 8.65626 23.936 8.57266 23.936 8.48653C24.1032 8.52833 24.2704 8.57013 24.4427 8.6132C24.4427 8.5296 24.4427 8.446 24.4427 8.35986Z" fill="white"/>
<path d="M11.7759 19.0002C12.1084 18.9765 12.1084 18.9765 12.4092 19.0002C12.4975 19.1632 12.5844 19.327 12.6705 19.4911C12.719 19.5822 12.7675 19.6733 12.8174 19.7672C12.8499 19.8485 12.8824 19.9298 12.9159 20.0136C12.8741 20.0972 12.8323 20.1808 12.7892 20.2669C12.8206 20.6622 12.8585 21.055 12.9092 21.4482C12.9544 21.9189 12.9402 22.1308 12.673 22.5286C12.5859 22.6182 12.4989 22.7079 12.4092 22.8002C12.3674 22.8838 12.3256 22.9674 12.2826 23.0536C12.5683 22.9403 12.5683 22.9403 12.718 22.6023C12.7833 22.5004 12.8486 22.3985 12.9159 22.2936C13.0413 22.2936 13.1667 22.2936 13.2959 22.2936C12.9298 23.5089 12.9298 23.5089 12.5359 23.9402C12.111 23.82 11.6882 23.6999 11.2692 23.5602C10.7442 22.5686 10.7164 21.3332 10.9922 20.2511C11.1349 19.9056 11.2806 19.6625 11.5226 19.3802C11.6062 19.2548 11.6898 19.1294 11.7759 19.0002Z" fill="white"/>
<path d="M9.62242 23.3065C9.91534 23.2748 9.91534 23.2748 10.2558 23.3065C10.7499 23.8006 10.9037 24.3711 10.9183 25.0536C10.9178 25.2814 10.9159 25.5091 10.9128 25.7369C10.9128 25.8527 10.9127 25.9686 10.9126 26.0879C10.9069 26.9442 10.9069 26.9442 10.7624 27.2331C10.6788 27.2331 10.5952 27.2331 10.5091 27.2331C10.3675 27.5014 10.3675 27.5014 10.2558 27.8665C10.0341 28.0406 10.0341 28.0406 9.74909 28.1198C9.53466 27.9988 9.32367 27.8716 9.11576 27.7398C8.77255 27.7079 8.77255 27.7079 8.48242 27.7398C8.60881 27.3606 8.70437 27.2398 8.98909 26.9798C8.9468 26.889 8.90451 26.7982 8.86094 26.7047C8.53278 25.7656 8.89238 24.7048 9.24242 23.8131C9.32602 23.8131 9.40962 23.8131 9.49576 23.8131C9.53756 23.6459 9.57936 23.4787 9.62242 23.3065Z" fill="white"/>
<path d="M1.76934 19.5068C1.93654 19.5904 2.10374 19.674 2.27601 19.7602C2.23421 19.8438 2.19241 19.9274 2.14934 20.0135C2.06574 20.0135 1.98214 20.0135 1.89601 20.0135C1.89601 20.1807 1.89601 20.3479 1.89601 20.5202C1.97961 20.5202 2.06321 20.5202 2.14934 20.5202C2.27601 20.9002 2.27601 20.9002 2.27601 21.1535C2.33832 21.3122 2.40186 21.4705 2.46601 21.6285C2.74403 22.426 2.68803 23.2331 2.65601 24.0668C2.32067 24.2519 2.16271 24.3202 1.76934 24.3202C1.72754 24.2366 1.68574 24.153 1.64268 24.0668C1.55908 24.0668 1.47548 24.0668 1.38934 24.0668C1.25537 23.8603 1.12933 23.6485 1.00934 23.4335C0.925743 23.3081 0.842143 23.1827 0.756009 23.0535C0.394992 22.3739 0.329449 21.7745 0.281009 21.0189C0.272355 20.914 0.263701 20.8091 0.254785 20.701C0.248417 20.6007 0.242049 20.5003 0.235488 20.397C0.228998 20.3052 0.222507 20.2134 0.21582 20.1189C0.226883 20.0423 0.237945 19.9657 0.249342 19.8868C0.374743 19.8032 0.500143 19.7196 0.629343 19.6335C1.00934 19.7602 1.00934 19.7602 1.13601 20.0135C1.38743 19.9797 1.38743 19.9797 1.64268 19.8868C1.68448 19.7614 1.72628 19.636 1.76934 19.5068Z" fill="white"/>
<path d="M0.249317 24.4465C0.945984 24.4001 0.945984 24.4001 1.24682 24.6207C1.38932 24.8265 1.38932 24.8265 1.38932 25.0798C1.51472 25.0798 1.64012 25.0798 1.76932 25.0798C1.80295 25.1486 1.83659 25.2173 1.87125 25.2881C1.91598 25.3788 1.96072 25.4694 2.00682 25.5627C2.0509 25.6524 2.09499 25.742 2.14041 25.8344C2.2843 26.1201 2.2843 26.1201 2.52932 26.4732C2.54331 27.2705 2.46912 28.1443 2.14932 28.8798C1.81682 29.0619 1.81682 29.0619 1.51598 29.1332C1.06811 28.7312 0.808452 28.4786 0.755984 27.8665C0.672384 27.8665 0.588784 27.8665 0.502651 27.8665C0.416755 27.6295 0.332665 27.3919 0.249317 27.154C0.202292 27.0217 0.155267 26.8895 0.106817 26.7532C-0.113734 25.9439 0.0438288 25.2391 0.249317 24.4465Z" fill="white"/>
<path d="M1.0096 11.5269C1.10627 11.5922 1.20293 11.6575 1.30252 11.7248C1.41486 11.7849 1.5272 11.8449 1.64294 11.9069C1.76834 11.8651 1.89374 11.8233 2.02294 11.7802C2.06474 11.9056 2.10654 12.031 2.1496 12.1602C2.275 12.202 2.4004 12.2438 2.5296 12.2869C2.5296 12.3705 2.5296 12.4541 2.5296 12.5402C2.655 12.582 2.7804 12.6238 2.9096 12.6669C3.26384 13.6312 3.24272 14.6902 3.2896 15.7069C3.1015 15.7696 3.1015 15.7696 2.9096 15.8335C2.9096 15.9171 2.9096 16.0007 2.9096 16.0869C2.55335 16.1264 2.55335 16.1264 2.1496 16.0869C1.93585 15.7781 1.93585 15.7781 1.7696 15.4535C1.6442 15.4117 1.5188 15.3699 1.3896 15.3269C0.963477 14.4482 0.705843 13.3935 0.756269 12.4135C0.83987 12.2881 0.92347 12.1627 1.0096 12.0335C0.967803 11.9499 0.926003 11.8663 0.882936 11.7802C0.924736 11.6966 0.966536 11.613 1.0096 11.5269Z" fill="white"/>
<path d="M17.4761 8.10645C17.7215 8.11436 17.7215 8.11436 17.9827 8.23311C18.3368 8.69609 18.4926 9.18725 18.6161 9.75311C18.5686 10.0619 18.5686 10.0619 18.4894 10.2598C18.573 10.2598 18.6566 10.2598 18.7427 10.2598C18.7586 10.6873 18.7586 10.6873 18.7427 11.1464C18.6591 11.23 18.5755 11.3136 18.4894 11.3998C18.573 11.3998 18.6566 11.3998 18.7427 11.3998C18.7031 11.6373 18.7031 11.6373 18.6161 11.9064C18.4907 11.99 18.3653 12.0736 18.2361 12.1598C18.1943 12.2852 18.1525 12.4106 18.1094 12.5398C18.0676 12.5398 18.0258 12.5398 17.9827 12.5398C17.8991 12.707 17.8155 12.8742 17.7294 13.0464C17.4786 12.9628 17.2278 12.8792 16.9694 12.7931C16.9694 12.7095 16.9694 12.6259 16.9694 12.5398C16.8858 12.498 16.8022 12.4562 16.7161 12.4131C16.4097 11.065 16.502 9.73667 17.0961 8.48645C17.2227 8.35978 17.3494 8.23311 17.4761 8.10645Z" fill="white"/>
<path d="M19.6295 4.81348C20.0443 4.9368 20.2327 5.02763 20.5003 5.37556C20.6428 5.70014 20.6428 5.70014 20.5161 6.08014C20.5997 6.08014 20.6833 6.08014 20.7695 6.08014C20.7878 6.21077 20.8061 6.34139 20.8249 6.47598C20.8856 6.89404 20.9517 7.31042 21.0228 7.72681C20.9392 7.76861 20.8556 7.81041 20.7695 7.85348C20.7277 7.97888 20.6859 8.10428 20.6428 8.23348C20.7264 8.27528 20.81 8.31708 20.8961 8.36015C20.7695 8.61348 20.7695 8.61348 20.5161 8.74015C20.5579 8.94915 20.5997 9.15815 20.6428 9.37348C20.4338 9.37348 20.2248 9.37348 20.0095 9.37348C19.9677 9.45708 19.9259 9.54068 19.8828 9.62681C19.7574 9.62681 19.632 9.62681 19.5028 9.62681C18.643 8.66383 18.725 7.55575 18.7428 6.33348C18.8264 6.33348 18.91 6.33348 18.9961 6.33348C18.9844 6.18848 18.9844 6.18848 18.9724 6.04056C19.0008 5.63295 19.0805 5.5817 19.3761 5.32014C19.5251 5.05416 19.5251 5.05416 19.6295 4.81348Z" fill="white"/>
<path d="M30.6492 19.8866C30.691 20.0956 30.7328 20.3046 30.7759 20.5199C30.7341 20.5199 30.6923 20.5199 30.6492 20.5199C30.6521 20.5964 30.6551 20.6728 30.6581 20.7515C30.6615 20.9034 30.6615 20.9033 30.665 21.0583C30.668 21.1582 30.6709 21.2581 30.6739 21.3611C30.647 21.6862 30.5588 21.8869 30.3959 22.1666C30.3123 22.1666 30.2287 22.1666 30.1425 22.1666C30.1843 22.292 30.2261 22.4174 30.2692 22.5466C30.1856 22.6302 30.102 22.7138 30.0159 22.7999C30.0567 23.1925 30.0567 23.1925 30.1425 23.5599C30.0589 23.5599 29.9753 23.5599 29.8892 23.5599C29.8892 23.4763 29.8892 23.3927 29.8892 23.3066C29.7638 23.3066 29.6384 23.3066 29.5092 23.3066C29.5092 23.3902 29.5092 23.4738 29.5092 23.5599C29.0948 23.799 28.7175 23.8894 28.2425 23.9399C28.1171 23.8981 27.9917 23.8563 27.8625 23.8133C27.8344 23.5892 27.8084 23.3648 27.7834 23.1404C27.7687 23.0154 27.754 22.8905 27.7388 22.7618C27.7359 22.4199 27.7359 22.4199 27.9892 22.0399C28.0672 21.877 28.1437 21.7134 28.2188 21.5491C28.4536 21.0724 28.7317 20.7511 29.1292 20.3933C29.205 20.2966 29.2807 20.1999 29.3588 20.1004C29.7825 19.7735 30.1238 19.8516 30.6492 19.8866Z" fill="white"/>
<path d="M37.7427 15.9602C37.8218 16.3954 37.8694 16.7824 37.8694 17.2269C37.7858 17.2269 37.7022 17.2269 37.616 17.2269C37.6421 17.3419 37.6683 17.4568 37.6952 17.5752C37.745 18.0066 37.7271 18.1433 37.4894 18.4936C37.4058 18.5772 37.3222 18.6608 37.236 18.7469C37.1733 18.8566 37.1106 18.9664 37.046 19.0794C36.9833 19.1787 36.9206 19.278 36.856 19.3802C36.7724 19.3802 36.6888 19.3802 36.6027 19.3802C36.6027 19.4638 36.6027 19.5474 36.6027 19.6336C36.4773 19.6336 36.3519 19.6336 36.2227 19.6336C36.2227 19.7172 36.2227 19.8008 36.2227 19.8869C35.8465 19.9287 35.4703 19.9705 35.0827 20.0136C35.0792 19.7339 35.0768 19.4541 35.0748 19.1744C35.0733 19.0186 35.0718 18.8629 35.0703 18.7024C35.0817 18.2783 35.1109 17.8927 35.2093 17.4802C35.2929 17.4384 35.3765 17.3966 35.4627 17.3536C35.494 17.2752 35.5254 17.1968 35.5577 17.1161C35.7818 16.7351 36.0822 16.6518 36.476 16.4669C36.6925 16.2717 36.6925 16.2717 36.856 16.0869C37.168 15.9309 37.3981 15.9512 37.7427 15.9602Z" fill="white"/>
<path d="M37.9956 21.1535C38.2225 21.1501 38.4495 21.1476 38.6764 21.1456C38.8028 21.1441 38.9292 21.1426 39.0594 21.1411C39.3889 21.1535 39.3889 21.1535 39.6423 21.2801C39.6423 21.3637 39.6423 21.4473 39.6423 21.5335C39.7206 21.5074 39.799 21.4812 39.8798 21.4543C40.013 21.4308 40.013 21.4308 40.1489 21.4068C40.2325 21.4904 40.3161 21.574 40.4023 21.6602C40.4859 21.6758 40.5695 21.6915 40.6556 21.7077C40.9089 21.7868 40.9089 21.7868 41.0752 22.0164C41.1761 22.3376 41.1278 22.4836 41.0356 22.8002C40.9639 22.8155 40.8922 22.8308 40.8184 22.8467C40.7255 22.8679 40.6326 22.8891 40.5368 22.911C40.398 22.9418 40.398 22.9418 40.2563 22.9733C39.996 23.0319 39.996 23.0319 39.8956 23.3068C39.5551 23.3137 39.2148 23.3187 38.8743 23.3227C38.7791 23.3248 38.6838 23.3269 38.5856 23.3291C37.8741 23.3352 37.2213 23.282 36.6023 22.8952C36.4076 22.5545 36.5245 22.2865 36.6023 21.9135C36.5605 21.7881 36.5187 21.6627 36.4756 21.5335C36.601 21.4917 36.7264 21.4499 36.8556 21.4068C36.9392 21.4904 37.0228 21.574 37.1089 21.6602C37.4015 21.5347 37.6941 21.4093 37.9956 21.2801C37.9956 21.2383 37.9956 21.1965 37.9956 21.1535Z" fill="white"/>
<path d="M7.97573 8.2334C8.12856 8.26475 8.12856 8.26475 8.28448 8.29673C8.57466 8.36411 8.57466 8.36411 8.73573 8.36007C8.90491 8.40108 9.07383 8.44323 9.24239 8.48673C9.29062 9.34225 9.24983 10.1132 8.86239 10.8934C8.77879 10.9352 8.69519 10.977 8.60906 11.0201C8.34576 11.2614 8.17724 11.4778 7.97573 11.7801C7.52014 11.9319 7.16477 12.0492 6.68531 12.0413C6.44627 12.0374 6.44627 12.0374 6.20239 12.0334C6.07496 11.6369 6.08982 11.4162 6.20239 11.0201C6.22803 10.9259 6.25366 10.8316 6.28008 10.7346C6.4547 10.158 6.55889 9.82914 7.08906 9.50007C7.08906 9.37467 7.08906 9.24927 7.08906 9.12007C7.25626 9.07827 7.42346 9.03647 7.59573 8.9934C7.59573 8.868 7.59573 8.7426 7.59573 8.6134C7.72113 8.6134 7.84653 8.6134 7.97573 8.6134C7.97573 8.488 7.97573 8.3626 7.97573 8.2334Z" fill="white"/>
<path d="M23.9357 24.4466C23.9617 25.1777 23.9612 25.7843 23.6824 26.4732C23.639 26.6418 23.5966 26.8107 23.5557 26.9799C23.3987 27.4509 23.1854 27.5719 22.7957 27.8666C22.7121 27.9502 22.6285 28.0338 22.5424 28.1199C22.417 28.1199 22.2916 28.1199 22.1624 28.1199C22.1624 28.2035 22.1624 28.2871 22.1624 28.3732C21.9534 28.3314 21.7444 28.2896 21.5291 28.2466C21.4873 28.3302 21.4455 28.4138 21.4024 28.4999C21.3188 28.4581 21.2352 28.4163 21.1491 28.3732C21.1257 26.7684 21.1257 26.7684 21.2757 26.0932C21.3593 26.0932 21.4429 26.0932 21.5291 26.0932C21.5682 25.994 21.6074 25.8947 21.6478 25.7924C21.7824 25.4599 21.7824 25.4599 21.9091 25.2066C21.9927 25.2066 22.0763 25.2066 22.1624 25.2066C22.2042 25.123 22.246 25.0394 22.2891 24.9532C22.6187 24.669 22.8769 24.5289 23.3024 24.4466C23.6824 24.3199 23.6824 24.3199 23.9357 24.4466Z" fill="white"/>
<path d="M18.3624 18.2402C18.5868 18.2581 18.8111 18.2767 19.0354 18.2957C19.1603 18.3059 19.2852 18.3162 19.4139 18.3268C19.7558 18.3669 19.7558 18.3669 20.1358 18.4936C20.2402 18.7261 20.2402 18.7261 20.2624 19.0002C20.0189 19.5273 19.6671 19.9294 19.1224 20.1402C19.0336 20.2082 18.9448 20.2761 18.8533 20.3461C18.6158 20.5202 18.6158 20.5202 18.3624 20.5202C18.3206 20.6038 18.2788 20.6874 18.2358 20.7736C17.776 20.7736 17.3162 20.7736 16.8424 20.7736C16.8006 20.8572 16.7588 20.9408 16.7158 21.0269C16.465 20.9433 16.2142 20.8597 15.9558 20.7736C15.8687 20.4886 15.8687 20.4886 15.8291 20.1402C16.0033 19.8632 16.0033 19.8632 16.2091 19.6336C16.2509 19.55 16.2927 19.4664 16.3358 19.3802C16.4194 19.3802 16.503 19.3802 16.5891 19.3802C16.6178 19.3019 16.6466 19.2235 16.6762 19.1427C16.892 18.7934 17.0956 18.7533 17.4758 18.6202C17.5594 18.5366 17.643 18.453 17.7291 18.3669C18.0616 18.3511 18.0616 18.3511 18.3624 18.3669C18.3624 18.3251 18.3624 18.2833 18.3624 18.2402Z" fill="white"/>
<path d="M32.6757 24.9531C32.7175 25.0367 32.7593 25.1203 32.8024 25.2065C33.0532 25.1647 33.304 25.1229 33.5624 25.0798C33.7505 25.3933 33.7505 25.3933 33.9424 25.7131C34.026 25.6713 34.1096 25.6295 34.1957 25.5865C34.2793 25.7955 34.3629 26.0045 34.4491 26.2198C33.7312 26.9376 32.7574 27.0601 31.7891 27.1065C31.4091 27.0431 31.4091 27.0431 31.1557 26.9798C31.0721 27.0216 30.9885 27.0634 30.9024 27.1065C30.6491 26.8531 30.6491 26.8531 30.6491 26.7265C30.2991 26.6508 29.9954 26.5998 29.6357 26.5998C29.6357 25.8788 29.6357 25.8788 29.7624 25.5865C30.0712 25.444 30.0712 25.444 30.3957 25.3331C30.4793 25.2495 30.5629 25.1659 30.6491 25.0798C30.8163 25.0798 30.9835 25.0798 31.1557 25.0798C31.4198 25.0606 31.6837 25.0394 31.9474 25.0165C32.1522 24.9988 32.1522 24.9988 32.3611 24.9808C32.5168 24.9671 32.5168 24.9671 32.6757 24.9531Z" fill="white"/>
<path d="M41.9225 18.1133C42.0296 18.1316 42.1367 18.1499 42.247 18.1687C42.6783 18.2457 42.6783 18.2457 43.102 18.2716C43.7142 18.3961 44.1811 18.6754 44.7091 18.9999C44.7091 19.2507 44.7091 19.5015 44.7091 19.7599C44.3002 19.9802 43.8844 20.1256 43.4425 20.2666C43.3171 20.3084 43.1917 20.3502 43.0625 20.3933C42.0635 20.3726 40.9552 20.2734 40.1491 19.6333C40.0304 19.3087 40.0304 19.3087 40.0225 18.9999C40.4357 18.5867 40.8082 18.4649 41.3841 18.4141C41.536 18.3999 41.536 18.3999 41.6909 18.3854C41.7673 18.3792 41.8437 18.373 41.9225 18.3666C41.9225 18.283 41.9225 18.1994 41.9225 18.1133Z" fill="white"/>
<path d="M8.98939 4.68676C9.29022 4.66301 9.29022 4.66301 9.62272 4.68676C9.87606 5.06676 9.87606 5.06676 9.87606 5.57343C9.79246 5.57343 9.70886 5.57343 9.62272 5.57343C9.62272 5.86603 9.62272 6.15863 9.62272 6.46009C9.53912 6.46009 9.45552 6.46009 9.36939 6.46009C9.35763 6.6286 9.35763 6.6286 9.34564 6.80051C9.21859 7.31849 9.00477 7.50626 8.60939 7.85343C8.52579 7.93703 8.44219 8.02063 8.35606 8.10676C8.27246 8.06496 8.18886 8.02316 8.10272 7.98009C7.8462 8.10017 7.59292 8.22734 7.34272 8.36009C6.94581 8.4924 6.83736 8.47843 6.45605 8.36009C6.45605 8.27649 6.45605 8.19289 6.45605 8.10676C6.53965 8.10676 6.62325 8.10676 6.70939 8.10676C6.70939 7.60516 6.70939 7.10356 6.70939 6.58676C6.62579 6.54496 6.54219 6.50316 6.45605 6.46009C6.66505 6.41829 6.87405 6.37649 7.08939 6.33343C7.04759 6.24983 7.00579 6.16623 6.96272 6.08009C7.00452 5.99649 7.04632 5.91289 7.08939 5.82676C7.16515 5.81108 7.24091 5.79541 7.31897 5.77926C7.68373 5.67504 7.84268 5.46213 8.10272 5.19342C8.18632 5.19342 8.26992 5.19342 8.35606 5.19342C8.39786 5.10982 8.43966 5.02622 8.48272 4.94009C8.56632 4.89829 8.64992 4.85649 8.73606 4.81342C8.81966 4.85522 8.90326 4.89702 8.98939 4.94009C8.98939 4.85649 8.98939 4.77289 8.98939 4.68676Z" fill="white"/>
<path d="M6.58221 28.373C6.91661 28.373 7.25101 28.373 7.59555 28.373C7.7635 29.1288 7.73342 29.8837 7.72221 30.653C7.63861 30.6948 7.55501 30.7366 7.46888 30.7797C7.46888 30.6125 7.46888 30.4453 7.46888 30.273C7.42969 30.3828 7.42969 30.3828 7.38971 30.4947C7.15326 30.8816 6.83375 31.045 6.45554 31.2864C6.41374 31.37 6.37194 31.4536 6.32888 31.5397C6.05724 31.6708 6.05724 31.6708 5.71929 31.801C5.55348 31.8659 5.55348 31.8659 5.38432 31.9321C5.10905 32.0298 4.84012 32.1087 4.55554 32.173C4.31584 31.4539 4.6402 30.6157 4.96672 29.9524C5.36651 29.2976 5.36651 29.2976 5.69554 29.133C5.73734 29.0076 5.77914 28.8822 5.82221 28.753C6.21013 28.6026 6.21013 28.6026 6.58221 28.4997C6.58221 28.4579 6.58221 28.4161 6.58221 28.373Z" fill="white"/>
<path d="M2.3075 7.68705C2.52917 7.8533 2.52917 7.8533 2.65583 8.10663C2.78123 8.14843 2.90663 8.19023 3.03583 8.2333C3.03583 8.3587 3.03583 8.4841 3.03583 8.6133C3.16123 8.6551 3.28663 8.6969 3.41583 8.73996C3.68093 9.32987 3.72422 9.909 3.75625 10.545C3.76221 10.6361 3.76817 10.7272 3.77431 10.8211C3.81269 11.4929 3.81269 11.4929 3.66917 11.78C3.58557 11.78 3.50197 11.78 3.41583 11.78C3.41583 11.8636 3.41583 11.9472 3.41583 12.0333C3.16503 12.0333 2.91423 12.0333 2.65583 12.0333C2.65583 11.9497 2.65583 11.8661 2.65583 11.78C2.57223 11.7382 2.48863 11.6964 2.4025 11.6533C2.4025 11.5697 2.4025 11.4861 2.4025 11.4C2.22286 11.2073 2.02913 11.0354 1.83349 10.8592C1.3522 10.3068 1.33952 9.68115 1.33375 8.97746C1.32959 8.88684 1.32542 8.79622 1.32113 8.70285C1.31841 8.43814 1.31841 8.43814 1.38917 7.97996C1.88432 7.55774 1.88432 7.55774 2.3075 7.68705Z" fill="white"/>
<path d="M2.27606 3.67334C2.72381 3.7483 2.9566 3.91604 3.2894 4.21959C3.37708 4.29943 3.46476 4.37928 3.5551 4.46154C3.67438 4.57298 3.67438 4.57298 3.79607 4.68667C3.89795 4.78072 3.99984 4.87477 4.10482 4.97167C4.57134 5.49418 4.59019 6.25533 4.58575 6.92511C4.54052 7.37439 4.3805 7.70634 4.17607 8.10668C3.88347 8.10668 3.59087 8.10668 3.2894 8.10668C3.2476 7.89768 3.2058 7.68868 3.16273 7.47334C3.03733 7.47334 2.91193 7.47334 2.78273 7.47334C2.59772 7.13801 2.5294 6.98004 2.5294 6.58668C2.4458 6.58668 2.3622 6.58668 2.27606 6.58668C2.23004 6.25958 2.18538 5.93239 2.14148 5.60501C2.12834 5.51259 2.11519 5.42017 2.10165 5.32496C2.04071 4.86265 2.01699 4.49962 2.1494 4.05334C2.233 4.05334 2.3166 4.05334 2.40273 4.05334C2.36093 3.92794 2.31913 3.80254 2.27606 3.67334Z" fill="white"/>
<path d="M22.4164 11.6535C22.6856 11.6501 22.9548 11.6476 23.2239 11.6456C23.3738 11.6441 23.5237 11.6426 23.6782 11.6411C24.0631 11.6535 24.0631 11.6535 24.3164 11.7801C24.4194 12.0018 24.4194 12.0018 24.4431 12.2868C24.2769 12.6352 24.2769 12.6352 24.0631 12.9202C23.9795 12.9202 23.8959 12.9202 23.8098 12.9202C23.768 13.0456 23.7262 13.171 23.6831 13.3002C23.5995 13.3002 23.5159 13.3002 23.4298 13.3002C23.4298 13.3838 23.4298 13.4674 23.4298 13.5535C23.3462 13.5535 23.2626 13.5535 23.1764 13.5535C23.1346 13.6789 23.0928 13.8043 23.0498 13.9335C22.1213 14.3733 21.1265 14.4343 20.1364 14.1868C20.0946 13.936 20.0528 13.6852 20.0098 13.4268C20.0934 13.4268 20.177 13.4268 20.2631 13.4268C20.2631 13.3432 20.2631 13.2596 20.2631 13.1735C20.3362 13.1447 20.4094 13.116 20.4848 13.0864C20.8437 12.877 21.0271 12.6166 21.2764 12.2868C21.5375 11.9545 21.6318 11.9121 22.0602 11.8197C22.2365 11.8001 22.2365 11.8001 22.4164 11.7801C22.4164 11.7383 22.4164 11.6965 22.4164 11.6535Z" fill="white"/>
<path d="M20.009 31.4136C20.1344 31.4972 20.2598 31.5808 20.389 31.6669C20.5144 31.6669 20.6398 31.6669 20.769 31.6669C20.8108 31.5833 20.8526 31.4997 20.8957 31.4136C21.3973 31.4136 21.8989 31.4136 22.4157 31.4136C22.4157 31.4972 22.4157 31.5808 22.4157 31.6669C22.5411 31.6251 22.6665 31.5833 22.7957 31.5402C23.2425 31.7264 23.6388 31.9096 23.9357 32.3002C24.0228 32.5773 24.0228 32.5773 24.0624 32.8069C23.8116 32.8905 23.5608 32.9741 23.3024 33.0602C23.3024 33.1438 23.3024 33.2274 23.3024 33.3136C22.3333 33.5783 21.375 33.6798 20.389 33.4402C19.8449 33.1169 19.4512 32.78 19.249 32.1736C19.3744 32.1736 19.4998 32.1736 19.629 32.1736C19.629 32.09 19.629 32.0064 19.629 31.9202C19.7126 31.9202 19.7962 31.9202 19.8824 31.9202C19.9242 31.753 19.966 31.5858 20.009 31.4136Z" fill="white"/>
<path d="M28.1161 26.7269C28.3193 26.72 28.5225 26.7151 28.7257 26.7111C28.8388 26.7081 28.952 26.7052 29.0686 26.7021C29.3828 26.7269 29.3828 26.7269 29.7628 26.9802C29.8464 26.9384 29.93 26.8966 30.0161 26.8536C30.0579 26.979 30.0997 27.1044 30.1428 27.2336C30.3455 27.4025 30.3455 27.4025 30.5861 27.5502C31.0154 27.8247 31.0154 27.8247 31.1561 28.2469C31.0777 28.2626 30.9994 28.2782 30.9186 28.2944C30.6252 28.3573 30.6252 28.3573 30.3961 28.6269C30.1019 28.6776 29.8062 28.7206 29.5094 28.7536C29.5094 28.8372 29.5094 28.9208 29.5094 29.0069C29.0496 29.0069 28.5898 29.0069 28.1161 29.0069C28.1161 28.9233 28.1161 28.8397 28.1161 28.7536C27.9985 28.7614 27.881 28.7692 27.7599 28.7773C27.3561 28.7536 27.3561 28.7536 27.1582 28.5794C27.0681 28.4775 27.0681 28.4775 26.9761 28.3736C26.6469 28.2228 26.6469 28.2228 26.3428 28.1202C26.3428 27.8276 26.3428 27.535 26.3428 27.2336C26.4185 27.2623 26.4943 27.291 26.5724 27.3206C26.7095 27.3402 26.7095 27.3402 26.8494 27.3602C26.9317 27.2701 26.9317 27.2701 27.0157 27.1781C27.2294 26.9802 27.2294 26.9802 27.6965 26.9565C27.9042 26.9682 27.9042 26.9682 28.1161 26.9802C28.1161 26.8966 28.1161 26.813 28.1161 26.7269Z" fill="white"/>
<path d="M7.34245 24.5733C7.37063 24.7762 7.3966 24.9795 7.42162 25.1829C7.44366 25.3526 7.44366 25.3526 7.46615 25.5257C7.46912 25.8399 7.46912 25.8399 7.21578 26.2199C7.1766 26.327 7.13741 26.4342 7.09703 26.5445C6.96245 26.8533 6.96245 26.8533 6.58245 27.1066C6.49885 27.232 6.41525 27.3574 6.32912 27.4866C6.09557 27.6197 6.09557 27.6197 5.82245 27.7399C5.72971 27.7861 5.63696 27.8324 5.54141 27.88C5.44605 27.9252 5.35069 27.9704 5.25245 28.017C5.15709 28.0632 5.06174 28.1094 4.96349 28.157C4.68245 28.2466 4.68245 28.2466 4.17578 28.1199C4.17578 27.7437 4.17578 27.3675 4.17578 26.9799C4.25938 26.9381 4.34298 26.8963 4.42911 26.8533C4.51215 26.5331 4.51215 26.5331 4.55578 26.2199C4.63938 26.2199 4.72298 26.2199 4.80912 26.2199C4.80912 26.0945 4.80912 25.9691 4.80912 25.8399C5.05986 25.6258 5.31318 25.4145 5.56912 25.2066C5.56912 25.123 5.56912 25.0394 5.56912 24.9533C5.77812 24.9115 5.98712 24.8697 6.20245 24.8266C6.20245 24.743 6.20245 24.6594 6.20245 24.5733C6.59118 24.3789 6.92457 24.5036 7.34245 24.5733Z" fill="white"/>
<path d="M15.3229 11.7798C15.5319 11.8216 15.7409 11.8634 15.9562 11.9065C15.998 12.0319 16.0398 12.1573 16.0829 12.2865C16.1665 12.2865 16.2501 12.2865 16.3362 12.2865C16.3424 12.3764 16.3486 12.4664 16.355 12.5591C16.3645 12.6755 16.374 12.7919 16.3837 12.9119C16.3926 13.028 16.4014 13.1441 16.4105 13.2637C16.4278 13.3592 16.4451 13.4547 16.4629 13.5531C16.5465 13.5949 16.6301 13.6367 16.7162 13.6798C16.6326 13.6798 16.549 13.6798 16.4629 13.6798C16.4786 13.8418 16.4943 14.0037 16.5104 14.1706C16.5192 14.2617 16.528 14.3528 16.5371 14.4467C16.5723 14.7218 16.5723 14.7218 16.8429 14.9465C16.7593 14.9883 16.6757 15.0301 16.5896 15.0731C16.506 15.0313 16.4224 14.9895 16.3362 14.9465C16.3362 15.0301 16.3362 15.1137 16.3362 15.1998C16.2526 15.1998 16.169 15.1998 16.0829 15.1998C16.1038 15.2964 16.1247 15.3931 16.1462 15.4927C16.208 15.8246 16.2096 16.1302 16.2096 16.4665C16.1364 16.4456 16.0633 16.4247 15.9879 16.4031C15.6691 16.3215 15.6691 16.3215 15.1962 16.3398C15.1623 16.2379 15.1283 16.136 15.0933 16.031C15.0437 15.9239 14.994 15.8168 14.9429 15.7065C14.8175 15.6647 14.6921 15.6229 14.5629 15.5798C14.5196 15.1963 14.5196 15.1963 14.4763 14.8129C14.4473 14.5571 14.4473 14.5571 14.3096 14.3131C14.3308 13.9717 14.387 13.6387 14.4362 13.2998C14.5198 13.2998 14.6034 13.2998 14.6896 13.2998C14.7235 13.1404 14.7575 12.9811 14.7925 12.8169C14.8927 12.4088 14.981 12.1706 15.3229 11.9065C15.3229 11.8647 15.3229 11.8229 15.3229 11.7798Z" fill="white"/>
<path d="M8.73573 0C8.98653 0 9.23733 0 9.49573 0C9.52042 0.184599 9.54395 0.369353 9.56698 0.554167C9.58021 0.657034 9.59343 0.759901 9.60706 0.865886C9.6224 1.14 9.6224 1.14 9.49573 1.39333C9.41213 1.39333 9.32853 1.39333 9.2424 1.39333C9.27375 1.46648 9.3051 1.53963 9.3374 1.615C9.35307 1.75608 9.35307 1.75608 9.36906 1.9C9.2059 2.07442 9.03618 2.24282 8.8624 2.40667C8.79578 2.57517 8.79578 2.57517 8.72781 2.74708C8.66903 2.89208 8.66903 2.89208 8.60906 3.04C8.48366 3.0818 8.35826 3.1236 8.22906 3.16667C8.10366 3.25027 7.97826 3.33387 7.84906 3.42C7.51185 3.64481 7.34859 3.74149 6.9624 3.8C6.79258 3.76168 6.62347 3.71991 6.45573 3.67334C6.45232 3.42529 6.44986 3.17723 6.44781 2.92917C6.44634 2.79103 6.44487 2.6529 6.44336 2.51057C6.45573 2.15333 6.45573 2.15333 6.5824 1.9C6.666 1.9 6.7496 1.9 6.83573 1.9C6.83573 1.81118 6.83573 1.72235 6.83573 1.63083C7.07853 0.932795 7.79361 0.604229 8.41906 0.269167C8.52356 0.222142 8.62806 0.175117 8.73573 0.126667C8.73573 0.0848667 8.73573 0.0430667 8.73573 0Z" fill="white"/>
<path d="M19.5024 26.98C19.8824 27.1066 19.8824 27.1066 20.009 27.36C19.9978 27.6111 19.9782 27.8619 19.9536 28.1121C19.9166 28.4981 19.8824 28.872 19.8824 29.26C19.8824 29.3854 19.8824 29.5108 19.8824 29.64C19.804 29.653 19.7256 29.6661 19.6449 29.6796C19.2537 29.8061 19.1605 30.0725 18.9799 30.4237C18.925 30.5374 18.925 30.5374 18.869 30.6533C18.7854 30.6115 18.7018 30.5697 18.6157 30.5266C18.5177 30.6129 18.5177 30.6129 18.4178 30.7008C18.0365 30.955 17.6645 31.0494 17.2224 31.16C17.1806 30.7838 17.1388 30.4076 17.0957 30.02C17.1793 30.02 17.2629 30.02 17.349 30.02C17.3072 29.7692 17.2654 29.5184 17.2224 29.26C17.306 29.26 17.3896 29.26 17.4757 29.26C17.4339 29.1346 17.3921 29.0092 17.349 28.88C17.3908 28.7964 17.4326 28.7128 17.4757 28.6266C17.5593 28.6266 17.6429 28.6266 17.729 28.6266C17.729 28.5012 17.729 28.3758 17.729 28.2466C17.8126 28.2466 17.8962 28.2466 17.9824 28.2466C17.9824 28.163 17.9824 28.0794 17.9824 27.9933C18.1486 27.7875 18.1486 27.7875 18.3624 27.6133C18.4878 27.6133 18.6132 27.6133 18.7424 27.6133C18.7842 27.5297 18.826 27.4461 18.869 27.36C19.1936 27.2808 19.1936 27.2808 19.5024 27.2333C19.5024 27.1497 19.5024 27.0661 19.5024 26.98Z" fill="white"/>
<path d="M26.5957 21.9136C26.9092 21.9763 26.9092 21.9763 27.2291 22.0402C27.2709 22.5418 27.3127 23.0434 27.3557 23.5602C27.2721 23.5602 27.1885 23.5602 27.1024 23.5602C27.1311 23.6282 27.1599 23.6961 27.1895 23.7661C27.247 24.2031 27.0615 24.4511 26.8491 24.8269C26.8073 24.9105 26.7655 24.9941 26.7224 25.0802C26.6388 25.0802 26.5552 25.0802 26.4691 25.0802C26.4691 25.1638 26.4691 25.2474 26.4691 25.3336C26.3985 25.3466 26.328 25.3597 26.2553 25.3732C25.9072 25.4766 25.6386 25.6529 25.3291 25.8402C25.2454 25.8402 25.1618 25.8402 25.0757 25.8402C25.0757 25.9238 25.0757 26.0074 25.0757 26.0936C24.9085 26.0518 24.7413 26.01 24.569 25.9669C24.5272 25.4653 24.4854 24.9637 24.4424 24.4469C24.526 24.4469 24.6096 24.4469 24.6957 24.4469C24.667 24.3711 24.6382 24.2954 24.6086 24.2173C24.5956 24.1259 24.5825 24.0345 24.569 23.9402C24.6919 23.8099 24.8195 23.6839 24.949 23.5602C25.0902 23.3685 25.23 23.1758 25.3686 22.9823C25.7305 22.508 25.9865 22.2709 26.5957 22.1669C26.5957 22.0833 26.5957 21.9997 26.5957 21.9136Z" fill="white"/>
<path d="M20.0254 34.2711C20.4404 34.5065 20.4404 34.5065 20.8962 34.5798C20.9589 35.0187 20.9589 35.0187 21.0229 35.4665C20.0825 36.0238 19.1863 36.0962 18.1096 35.9732C17.4906 35.8088 16.8641 35.6125 16.4629 35.0865C16.4629 34.9193 16.4629 34.7521 16.4629 34.5798C16.7083 34.3661 16.7083 34.3661 16.9696 34.1998C17.0114 34.158 17.0532 34.1162 17.0962 34.0732C17.2749 34.0466 17.4546 34.0265 17.6346 34.0098C17.9631 33.9776 18.2697 33.9391 18.5925 33.8673C19.138 33.7738 19.5499 34.022 20.0254 34.2711Z" fill="white"/>
<path d="M7.34297 20.1401C7.45959 20.8165 7.51419 21.2707 7.21631 21.9135C7.09091 21.9762 7.09091 21.9762 6.96297 22.0401C6.87755 22.2509 6.79323 22.462 6.70964 22.6735C6.42387 23.1409 6.13258 23.3077 5.63297 23.5206C5.51149 23.5733 5.39001 23.626 5.26485 23.6804C5.0317 23.7748 4.79495 23.8606 4.5563 23.9401C4.3663 23.7897 4.3663 23.7897 4.1763 23.5601C4.13033 23.1234 4.1856 22.716 4.30297 22.2935C4.38657 22.2517 4.47017 22.2099 4.5563 22.1668C4.64838 21.9161 4.7334 21.6627 4.80964 21.4068C4.89324 21.4068 4.97684 21.4068 5.06297 21.4068C5.10477 21.2814 5.14657 21.156 5.18964 21.0268C5.3163 20.7656 5.3163 20.7656 5.56964 20.5201C5.94391 20.3994 6.32288 20.3345 6.70964 20.2668C7.2208 20.1401 7.2208 20.1401 7.34297 20.1401Z" fill="white"/>
<path d="M36.1912 23.2039C36.4371 23.2184 36.4371 23.2184 36.688 23.2331C37.1131 23.3074 37.241 23.3481 37.4896 23.6868C37.5523 23.7495 37.5523 23.7495 37.6162 23.8135C37.8374 24.1453 37.9186 24.325 37.9962 24.7002C37.8839 24.7367 37.7716 24.7733 37.6558 24.811C37.2085 24.9629 36.7723 25.1221 36.3496 25.3335C35.5383 25.328 34.7985 25.1917 34.0414 24.9055C33.8161 24.8129 33.8161 24.8129 33.5629 24.8268C33.5629 24.7014 33.5629 24.576 33.5629 24.4468C33.4793 24.405 33.3957 24.3632 33.3096 24.3202C33.3737 24.0455 33.4362 23.8135 33.5629 23.5602C33.8152 23.5121 34.0688 23.4711 34.3229 23.4335C34.4578 23.3899 34.5926 23.3463 34.7316 23.3014C35.2498 23.17 35.6593 23.1671 36.1912 23.2039Z" fill="white"/>
<path d="M33.4359 17.7334C33.8121 17.7961 33.8121 17.7961 34.1959 17.8601C34.2552 19.8648 34.2552 19.8648 33.7764 20.4805C33.7058 20.5353 33.6353 20.5902 33.5626 20.6467C33.4581 20.7303 33.3536 20.8139 33.2459 20.9001C33.1414 20.9837 33.0369 21.0673 32.9293 21.1534C32.8666 21.2213 32.8039 21.2893 32.7393 21.3592C32.3326 21.732 31.9494 21.7867 31.4093 21.7867C31.3722 19.7394 31.3722 19.7394 31.9159 18.8734C32.193 18.6992 32.193 18.6992 32.4226 18.6201C32.4226 18.5365 32.4226 18.4529 32.4226 18.3667C32.5036 18.3511 32.5846 18.3354 32.668 18.3192C32.7542 18.2931 32.8404 18.267 32.9293 18.2401C32.9711 18.1565 33.0129 18.0729 33.0559 17.9867C33.1813 17.9449 33.3067 17.9031 33.4359 17.8601C33.4359 17.8183 33.4359 17.7765 33.4359 17.7334Z" fill="white"/>
<path d="M0.756092 28.7534C0.850142 28.8161 0.944192 28.8788 1.04109 28.9434C1.39743 29.1739 1.39743 29.1739 1.89609 29.1334C1.93006 29.2327 1.96402 29.332 1.99901 29.4343C2.13019 29.8024 2.13019 29.8024 2.52943 30.0201C2.94004 30.9926 2.89191 32.1718 2.65609 33.1868C2.44234 33.2897 2.44234 33.2897 2.14943 33.3134C1.82484 33.0284 1.82484 33.0284 1.51609 32.6801C1.44033 32.6095 1.36457 32.539 1.28651 32.4663C1.13609 32.3001 1.13609 32.3001 1.13609 32.0468C1.05249 32.005 0.968892 31.9632 0.882759 31.9201C0.404164 31.0353 0.402781 29.9845 0.502759 29.0068C0.586359 28.9232 0.669959 28.8396 0.756092 28.7534Z" fill="white"/>
<path d="M14.9432 25.7134C15.194 25.7134 15.4448 25.7134 15.7032 25.7134C15.7032 25.7552 15.7032 25.797 15.7032 25.84C16.0167 25.9027 16.0167 25.9027 16.3365 25.9667C16.3741 26.3086 16.3741 26.3086 16.3365 26.7267C16.0773 27.0459 16.0773 27.0459 15.7349 27.3363C15.5673 27.4825 15.5673 27.4825 15.3964 27.6317C15.1 27.845 14.9191 27.9427 14.5632 27.9934C14.5632 28.077 14.5632 28.1606 14.5632 28.2467C14.1193 28.3947 13.8169 28.3643 13.352 28.3259C13.1323 28.3087 13.1323 28.3087 12.9081 28.2912C12.5365 28.2467 12.5365 28.2467 12.2832 28.12C12.3067 28.026 12.3302 27.9319 12.3545 27.835C12.4089 27.4931 12.391 27.3035 12.2832 26.98C12.3668 26.98 12.4504 26.98 12.5365 26.98C12.5365 26.8964 12.5365 26.8128 12.5365 26.7267C12.6175 26.6875 12.6985 26.6483 12.782 26.608C13.0351 26.4943 13.0351 26.4943 13.1699 26.3467C13.7519 26.1146 14.3083 25.9053 14.9432 25.9667C14.9432 25.8831 14.9432 25.7995 14.9432 25.7134Z" fill="white"/>
<path d="M0.756283 15.5801C1.61128 15.8017 1.61128 15.8017 1.89628 16.0867C1.89628 16.1285 1.89628 16.1703 1.89628 16.2134C2.02168 16.2134 2.14708 16.2134 2.27628 16.2134C2.29196 16.3075 2.30763 16.4015 2.32378 16.4984C2.39787 16.8244 2.50023 17.0608 2.65628 17.3534C2.79894 17.7814 2.8337 18.1625 2.87003 18.6122C2.88359 18.7674 2.89714 18.9227 2.9111 19.0827C2.90968 19.4899 2.87528 19.6786 2.65628 20.0134C2.27628 20.0134 2.27628 20.0134 2.09519 19.8422C2.02955 19.7733 1.96391 19.7044 1.89628 19.6334C1.72419 19.5296 1.54989 19.4294 1.37378 19.3326C0.897966 19.0408 0.897966 19.0408 0.772116 18.6992C0.766891 18.5895 0.761666 18.4798 0.756283 18.3667C0.689664 18.1747 0.689664 18.1747 0.621699 17.9788C0.430913 17.329 0.436366 16.6298 0.502949 15.9601C0.586549 15.8347 0.670149 15.7093 0.756283 15.5801Z" fill="white"/>
<path d="M16.8425 21.6602C17.0302 21.6924 17.2175 21.7272 17.4045 21.7631C17.561 21.7917 17.561 21.7917 17.7207 21.821C17.8503 21.8668 17.8503 21.8668 17.9825 21.9135C18.0452 22.1016 18.0452 22.1016 18.1091 22.2935C18.0255 22.2935 17.9419 22.2935 17.8558 22.2935C17.844 22.4659 17.844 22.4659 17.832 22.6418C17.7044 23.1523 17.5217 23.2693 17.0958 23.5602C17.0122 23.6438 16.9286 23.7274 16.8425 23.8135C16.0485 24.2899 15.1441 24.5645 14.2299 24.336C14.0889 24.289 13.9478 24.2419 13.8024 24.1935C13.7606 23.9845 13.7188 23.7755 13.6758 23.5602C13.843 23.4766 14.0102 23.393 14.1824 23.3068C14.1824 23.1814 14.1824 23.056 14.1824 22.9268C14.3078 22.9686 14.4332 23.0104 14.5624 23.0535C14.6669 22.9333 14.7714 22.8131 14.8791 22.6893C14.9379 22.6217 14.9967 22.5541 15.0572 22.4845C15.2206 22.2986 15.2206 22.2986 15.1958 22.0402C16.0109 21.9775 16.0109 21.9775 16.8425 21.9135C16.8425 21.8299 16.8425 21.7463 16.8425 21.6602Z" fill="white"/>
<path d="M8.6097 12.4133C8.61658 12.6349 8.62147 12.8566 8.62554 13.0783C8.62847 13.2017 8.63141 13.3251 8.63444 13.4523C8.6024 13.9112 8.48957 14.1854 8.15845 14.5033C7.95194 14.679 7.95194 14.679 7.95509 14.9372C7.8497 15.1999 7.8497 15.1999 7.47168 15.3835C7.31428 15.4353 7.15687 15.487 6.9947 15.5403C6.8386 15.5931 6.68251 15.6458 6.52168 15.7002C6.16165 15.8078 5.81273 15.8957 5.44303 15.9599C5.43958 15.7805 5.43714 15.601 5.43512 15.4216C5.43365 15.3217 5.43218 15.2217 5.43066 15.1188C5.44255 14.8317 5.4896 14.5883 5.5697 14.3133C5.6533 14.3133 5.7369 14.3133 5.82303 14.3133C5.82303 14.1461 5.82303 13.9789 5.82303 13.8066C6.07121 13.5894 6.32448 13.3779 6.58303 13.1733C6.58303 13.0897 6.58303 13.0061 6.58303 12.9199C6.68231 12.8807 6.78158 12.8415 6.88387 12.8012C7.17503 12.6833 7.43296 12.5627 7.69929 12.3974C8.05029 12.257 8.24831 12.3284 8.6097 12.4133Z" fill="white"/>
<path d="M8.229 27.6135C9.06816 27.5818 9.06816 27.5818 9.49566 27.8668C9.45386 28.1594 9.41206 28.452 9.369 28.7535C9.4526 28.7535 9.5362 28.7535 9.62233 28.7535C9.5829 29.0543 9.54329 29.3551 9.50358 29.656C9.49256 29.7402 9.48154 29.8245 9.47018 29.9113C9.40366 30.4139 9.3287 30.9139 9.24233 31.4135C9.15873 31.4135 9.07513 31.4135 8.989 31.4135C8.9472 31.6225 8.9054 31.8315 8.86233 32.0468C8.38733 32.1893 8.38733 32.1893 8.10233 32.0468C8.02316 31.7222 8.02316 31.7222 7.97566 31.4135C7.89206 31.4135 7.80846 31.4135 7.72233 31.4135C7.40183 30.3889 7.42714 29.0768 7.91233 28.1201C8.0138 27.9488 8.11779 27.7787 8.229 27.6135Z" fill="white"/>
<path d="M24.8231 28.6265C24.9067 28.6265 24.9903 28.6265 25.0765 28.6265C25.0765 28.7101 25.0765 28.7937 25.0765 28.8798C25.2367 28.8891 25.2367 28.8891 25.4001 28.8986C25.6083 28.9128 25.6083 28.9128 25.8206 28.9273C25.9588 28.9361 26.0969 28.9449 26.2392 28.954C26.5965 29.0065 26.5965 29.0065 26.8498 29.2598C26.9752 29.3434 27.1006 29.427 27.2298 29.5131C27.3802 29.909 27.3802 29.909 27.4831 30.2731C27.3577 30.2731 27.2323 30.2731 27.1031 30.2731C27.0195 30.3567 26.9359 30.4403 26.8498 30.5265C26.0518 30.8874 25.2447 31.0916 24.3976 30.8055C23.9067 30.5969 23.4552 30.3723 23.0498 30.0198C23.0894 29.7744 23.0894 29.7744 23.1765 29.5131C23.3019 29.4713 23.4273 29.4295 23.5565 29.3865C23.5565 29.2193 23.5565 29.0521 23.5565 28.8798C23.9745 28.838 24.3925 28.7962 24.8231 28.7531C24.8231 28.7113 24.8231 28.6695 24.8231 28.6265Z" fill="white"/>
<path d="M14.3091 15.4535C14.602 15.5881 14.602 15.5881 14.8157 15.7068C14.7883 15.8127 14.7883 15.8127 14.7603 15.9206C14.6264 16.4713 14.5571 16.9361 14.5941 17.5039C14.6047 18.2876 14.3497 18.8554 13.9291 19.5069C13.8455 19.5905 13.7619 19.6741 13.6757 19.7602C13.4244 19.7439 13.4244 19.7439 13.1691 19.6335C12.6442 18.9224 12.5496 18.0809 12.6624 17.2269C12.7657 16.7953 12.8931 16.3779 13.0424 15.9602C13.126 15.9602 13.2096 15.9602 13.2957 15.9602C13.2539 15.8348 13.2121 15.7094 13.1691 15.5802C13.5956 15.3116 13.8297 15.3097 14.3091 15.4535Z" fill="white"/>
<path d="M16.7489 30.1334C16.8216 30.1796 16.8943 30.2258 16.9691 30.2734C16.9691 30.8809 16.9318 31.4438 16.8425 32.0467C16.6753 32.0467 16.5081 32.0467 16.3358 32.0467C16.3569 32.1866 16.3569 32.1866 16.3783 32.3293C16.3358 32.6801 16.3358 32.6801 16.0399 32.9636C15.9129 33.0503 15.7858 33.137 15.655 33.2263C15.5286 33.3146 15.4022 33.403 15.272 33.494C14.9425 33.6934 14.9425 33.6934 14.6891 33.6934C14.6891 33.777 14.6891 33.8606 14.6891 33.9467C14.4801 33.9885 14.2711 34.0303 14.0558 34.0734C13.9672 33.5613 13.9057 33.1769 14.0558 32.6801C14.0906 32.5646 14.1253 32.4492 14.1612 32.3302C14.2022 32.2079 14.2431 32.0856 14.2854 31.9596C14.3254 31.8364 14.3654 31.7131 14.4066 31.5861C14.5625 31.2867 14.5625 31.2867 14.8331 31.1813C14.9499 31.1708 14.9499 31.1708 15.0691 31.1601C15.0691 31.0765 15.0691 30.9929 15.0691 30.9067C15.1527 30.9067 15.2363 30.9067 15.3225 30.9067C15.3643 30.7813 15.4061 30.6559 15.4491 30.5267C15.6653 30.3699 15.6653 30.3699 15.932 30.2338C16.0191 30.1873 16.1061 30.1407 16.1958 30.0928C16.4625 30.0201 16.4625 30.0201 16.7489 30.1334Z" fill="white"/>
<path d="M7.84964 16.3398C7.88127 17.0673 7.86662 17.8087 7.59631 18.4932C7.32031 18.7673 7.04807 18.926 6.70964 19.1265C6.70964 19.2101 6.70964 19.2937 6.70964 19.3798C6.62604 19.3798 6.54244 19.3798 6.45631 19.3798C6.45631 19.4634 6.45631 19.547 6.45631 19.6332C5.95471 19.675 5.45311 19.7168 4.93631 19.7598C4.84002 19.2891 4.78844 18.9516 4.93631 18.4932C4.97945 18.2823 5.02188 18.0712 5.06297 17.8598C5.14657 17.8598 5.23017 17.8598 5.31631 17.8598C5.44171 17.609 5.56711 17.3582 5.69631 17.0998C5.77991 17.0998 5.86351 17.0998 5.94964 17.0998C5.94964 16.9744 5.94964 16.849 5.94964 16.7198C6.01495 16.7042 6.08027 16.6885 6.14756 16.6723C6.40001 16.6076 6.65026 16.5343 6.89964 16.4586C7.34297 16.3398 7.34297 16.3398 7.84964 16.3398Z" fill="white"/>
<path d="M25.5829 4.05322C25.946 4.06474 26.3053 4.08333 26.6675 4.10864C26.7696 4.11525 26.8718 4.12187 26.977 4.12868C27.2301 4.14515 27.4832 4.16245 27.7362 4.17989C27.8629 4.55989 27.8629 4.55989 27.7442 4.85281C27.157 5.61795 26.2626 6.2082 25.3296 6.45989C24.8195 6.49804 24.3198 6.49097 23.8096 6.45989C23.8096 5.85808 23.928 5.74152 24.3004 5.28822C24.3915 5.17523 24.4826 5.06224 24.5765 4.94583C24.6578 4.86027 24.7391 4.77471 24.8229 4.68656C24.9065 4.68656 24.9901 4.68656 25.0762 4.68656C25.0762 4.60296 25.0762 4.51936 25.0762 4.43322C25.1598 4.43322 25.2434 4.43322 25.3296 4.43322C25.3714 4.34962 25.4132 4.26602 25.4562 4.17989C25.498 4.13809 25.5398 4.09629 25.5829 4.05322Z" fill="white"/>
<path d="M22.1627 15.3266C22.0156 15.9517 21.8764 16.3861 21.4027 16.8466C20.999 16.997 20.999 16.997 20.6427 17.0999C20.6009 17.1835 20.5591 17.2671 20.516 17.3533C19.8056 17.5044 18.7741 17.6856 18.1094 17.3533C18.3136 16.8427 18.6746 16.4971 19.0594 16.1183C19.1226 16.0541 19.1858 15.9899 19.2509 15.9238C19.7239 15.4533 19.7239 15.4533 20.0094 15.4533C20.0094 15.3697 20.0094 15.2861 20.0094 15.1999C20.8664 14.9242 21.3462 14.9406 22.1627 15.3266Z" fill="white"/>
<path d="M14.8158 15.7065C14.8942 15.8084 14.9726 15.9103 15.0533 16.0153C15.2898 16.3448 15.2898 16.3448 15.5758 16.4665C15.6176 16.3829 15.6594 16.2993 15.7025 16.2132C15.8697 16.2968 16.0369 16.3804 16.2092 16.4665C16.1674 16.3411 16.1256 16.2157 16.0825 16.0865C16.1661 16.0447 16.2497 16.0029 16.3358 15.9599C16.415 16.2607 16.415 16.2607 16.4625 16.5932C16.3789 16.6768 16.2953 16.7604 16.2092 16.8465C16.1674 16.9537 16.1256 17.0608 16.0825 17.1711C15.9558 17.4799 15.9558 17.4799 15.7025 17.6065C15.6104 17.8572 15.5254 18.1106 15.4492 18.3665C15.1984 18.3247 14.9476 18.2829 14.6892 18.2399C14.6914 18.0589 14.6914 18.0589 14.6936 17.8742C14.6948 17.7154 14.6959 17.5565 14.6971 17.3928C14.6986 17.2356 14.7 17.0783 14.7015 16.9163C14.691 16.5346 14.6522 16.2027 14.5625 15.8332C14.6461 15.7914 14.7297 15.7496 14.8158 15.7065Z" fill="white"/>
<path d="M11.1425 25.8398C11.3275 26.1752 11.3958 26.3331 11.3958 26.7265C11.3122 26.7265 11.2286 26.7265 11.1425 26.7265C11.1843 26.8519 11.2261 26.9773 11.2691 27.1065C11.1524 27.4061 11.0263 27.7024 10.8891 27.9932C10.8473 27.9096 10.8055 27.826 10.7625 27.7398C10.6789 27.7398 10.5953 27.7398 10.5091 27.7398C10.5797 27.8848 10.5797 27.8848 10.6516 28.0328C10.6882 28.1451 10.7248 28.2574 10.7625 28.3732C10.6789 28.4986 10.5953 28.624 10.5091 28.7532C10.4213 28.9629 10.3363 29.1739 10.2558 29.3865C10.0886 29.3029 9.92141 29.2193 9.74914 29.1332C9.74914 29.2168 9.74914 29.3004 9.74914 29.3865C9.83274 29.3865 9.91634 29.3865 10.0025 29.3865C10.0443 29.5537 10.0861 29.7209 10.1291 29.8932C9.96194 29.8932 9.79474 29.8932 9.62247 29.8932C9.47997 29.0382 9.47997 29.0382 9.62247 28.7532C9.53887 28.7532 9.45527 28.7532 9.36914 28.7532C9.41094 28.5024 9.45274 28.2516 9.49581 27.9932C9.70481 27.9932 9.91381 27.9932 10.1291 27.9932C10.1709 27.9096 10.2127 27.826 10.2558 27.7398C10.214 27.698 10.1722 27.6562 10.1291 27.6132C10.2914 27.3969 10.4607 27.1858 10.6358 26.9798C10.7194 26.9798 10.803 26.9798 10.8891 26.9798C10.8604 26.8623 10.8317 26.7447 10.8021 26.6236C10.7625 26.2198 10.7625 26.2198 10.9446 25.9823C11.0099 25.9353 11.0752 25.8883 11.1425 25.8398Z" fill="white"/>
<path d="M16.7162 30.3999C16.7998 30.5253 16.8834 30.6507 16.9696 30.7799C17.0532 30.7799 17.1368 30.7799 17.2229 30.7799C17.2647 30.8635 17.3065 30.9471 17.3496 31.0332C17.9455 30.7849 17.9455 30.7849 18.5212 30.4949C18.7429 30.3999 18.7429 30.3999 19.1229 30.5266C19.02 30.8353 19.02 30.8353 18.8696 31.1599C18.4896 31.2866 18.4896 31.2866 18.2362 31.1599C18.278 31.2853 18.3198 31.4107 18.3629 31.5399C17.9908 31.7328 17.6134 31.8947 17.2229 32.0466C17.3065 32.1302 17.3901 32.2138 17.4762 32.2999C16.8746 32.8066 16.8746 32.8066 16.5896 32.8066C16.5104 32.4503 16.5104 32.4503 16.4629 32.0466C16.5465 31.9212 16.6301 31.7958 16.7162 31.6666C16.758 31.7084 16.7998 31.7502 16.8429 31.7932C16.8011 31.6678 16.7593 31.5424 16.7162 31.4132C16.7 31.0745 16.7107 30.7392 16.7162 30.3999Z" fill="white"/>
<path d="M2.90987 23.6865C3.11756 24.053 3.19605 24.3212 3.20359 24.7414C3.20611 24.849 3.20862 24.9566 3.21122 25.0675C3.21268 25.1836 3.21414 25.2997 3.21565 25.4193C3.2181 25.5413 3.22056 25.6633 3.22308 25.789C3.23065 26.1807 3.2365 26.5723 3.24237 26.964C3.24721 27.2188 3.25216 27.4737 3.25721 27.7285C3.28149 29.015 3.2955 30.3016 3.30076 31.5884C3.30164 31.7073 3.30252 31.8263 3.30343 31.9489C3.30359 32.058 3.30375 32.1672 3.30391 32.2796C3.30427 32.3756 3.30463 32.4716 3.305 32.5705C3.28987 32.8065 3.28987 32.8065 3.1632 33.0599C3.0796 33.0599 2.996 33.0599 2.90987 33.0599C2.90987 32.6001 2.90987 32.1403 2.90987 31.6665C2.95167 31.6665 2.99347 31.6665 3.03654 31.6665C3.03654 31.4157 3.03654 31.1649 3.03654 30.9065C2.95294 30.8647 2.86934 30.8229 2.7832 30.7799C2.80385 30.6846 2.82449 30.5893 2.84576 30.4911C2.93354 29.8459 2.9254 29.2106 2.92224 28.5602C2.92206 28.4207 2.92188 28.2812 2.9217 28.1375C2.92099 27.6936 2.9194 27.2496 2.91779 26.8057C2.91715 26.504 2.91657 26.2024 2.91605 25.9007C2.91466 25.1626 2.91254 24.4246 2.90987 23.6865Z" fill="white"/>
<path d="M3.66936 20.7734C3.71116 20.7734 3.75296 20.7734 3.79602 20.7734C3.83782 21.5258 3.87962 22.2782 3.92269 23.0534C3.83909 23.0534 3.75549 23.0534 3.66936 23.0534C3.68301 24.1447 3.69728 25.2359 3.71234 26.3271C3.71931 26.8338 3.72608 27.3406 3.73235 27.8473C3.73842 28.3368 3.74505 28.8263 3.75206 29.3158C3.75464 29.5021 3.75701 29.6884 3.75917 29.8747C3.76225 30.1366 3.76606 30.3985 3.77002 30.6604C3.77199 30.8092 3.77396 30.958 3.77598 31.1113C3.79679 31.5564 3.85786 31.9862 3.92269 32.4268C3.90735 32.8182 3.90735 32.8182 3.86727 33.1789C3.85438 33.3002 3.84148 33.4215 3.82819 33.5465C3.81757 33.6368 3.80696 33.7271 3.79602 33.8201C3.75422 33.8201 3.71242 33.8201 3.66936 33.8201C3.56848 32.4447 3.52366 31.0784 3.52587 29.6995C3.52578 29.5056 3.52566 29.3117 3.5255 29.1178C3.52532 28.7151 3.52558 28.3123 3.52618 27.9095C3.5269 27.3994 3.52648 26.8894 3.52572 26.3793C3.52526 25.98 3.52542 25.5807 3.52574 25.1814C3.52582 24.9936 3.52573 24.8058 3.52543 24.618C3.52382 23.3317 3.57526 22.0563 3.66936 20.7734Z" fill="white"/>
<path d="M20.0098 15.4532C19.9155 15.5316 19.9155 15.5316 19.8193 15.6115C19.1867 16.1493 18.6446 16.7181 18.1098 17.3532C18.7786 17.3532 19.4474 17.3532 20.1364 17.3532C19.6945 17.6478 19.5095 17.6372 18.9885 17.6303C18.7865 17.629 18.7865 17.629 18.5803 17.6278C18.2364 17.6065 18.2364 17.6065 17.9831 17.4798C17.9315 17.1858 17.8888 16.89 17.8564 16.5932C18.0236 16.5514 18.1908 16.5096 18.3631 16.4665C18.3631 16.3411 18.3631 16.2157 18.3631 16.0865C18.5303 16.0447 18.6975 16.0029 18.8698 15.9598C18.8698 15.8344 18.8698 15.709 18.8698 15.5798C18.9482 15.5616 19.0265 15.5433 19.1073 15.5244C19.7295 15.3597 19.7295 15.3597 20.0098 15.4532Z" fill="white"/>
<path d="M24.6961 4.43311C24.8215 4.51671 24.9469 4.60031 25.0761 4.68644C24.9925 4.68644 24.9089 4.68644 24.8227 4.68644C24.7891 4.76057 24.7555 4.8347 24.7208 4.91107C24.5199 5.28536 24.2517 5.56666 23.9667 5.87889C23.7834 6.07048 23.7834 6.07048 23.8094 6.33311C24.8608 6.39814 25.6485 6.29602 26.5961 5.82644C26.6379 5.91004 26.6797 5.99364 26.7227 6.07977C26.6208 6.09545 26.519 6.11112 26.414 6.12727C26.3069 6.1534 26.1998 6.17952 26.0894 6.20644C26.0476 6.29004 26.0058 6.37364 25.9627 6.45977C25.4886 6.77583 25.1103 6.75512 24.5615 6.75269C24.4222 6.75575 24.4222 6.75575 24.2802 6.75888C24.0108 6.75912 24.0108 6.75912 23.5561 6.71311C23.4725 6.58771 23.3889 6.46231 23.3027 6.33311C23.4385 5.75985 23.7723 5.46371 24.1894 5.06644C24.3611 4.85761 24.5309 4.64717 24.6961 4.43311Z" fill="white"/>
<path d="M6.96227 15.3267C7.04587 15.3685 7.12947 15.4103 7.2156 15.4533C7.1738 15.6205 7.132 15.7877 7.08893 15.96C7.40442 16.047 7.64359 16.0867 7.9756 16.0867C8.12798 16.7533 8.20408 17.2542 7.84893 17.86C7.80713 17.9436 7.76533 18.0272 7.72227 18.1133C7.57821 17.6822 7.61588 17.3819 7.71435 16.9417C7.73901 16.8287 7.76366 16.7157 7.78906 16.5993C7.80882 16.5137 7.82858 16.4281 7.84893 16.34C7.76958 16.3612 7.69022 16.3824 7.60846 16.4043C7.50494 16.4301 7.40142 16.4559 7.29477 16.4825C7.14047 16.5222 7.14047 16.5222 6.98305 16.5627C6.89259 16.5728 6.80213 16.5829 6.70893 16.5933C6.62533 16.5097 6.54173 16.4261 6.4556 16.34C6.5392 16.2982 6.6228 16.2564 6.70893 16.2133C6.66713 16.0879 6.62533 15.9625 6.58227 15.8333C6.33147 15.8751 6.08067 15.9169 5.82227 15.96C6.16143 15.6208 6.51634 15.4939 6.96227 15.3267Z" fill="white"/>
<path d="M14.4362 16.4668C14.5616 16.4668 14.687 16.4668 14.8162 16.4668C14.7744 17.052 14.7326 17.6372 14.6895 18.2401C14.8149 18.2819 14.9403 18.3237 15.0695 18.3668C15.012 18.4138 14.9546 18.4608 14.8954 18.5093C14.6231 18.8234 14.5346 19.105 14.4362 19.5068C14.4842 19.7838 14.4842 19.7838 14.5629 20.0135C14.5211 20.0971 14.4793 20.1807 14.4362 20.2668C14.3944 20.1414 14.3526 20.016 14.3095 19.8868C14.0169 19.9286 13.7243 19.9704 13.4229 20.0135C13.4229 19.9299 13.4229 19.8463 13.4229 19.7601C13.5195 19.6687 13.6162 19.5773 13.7158 19.483C14.5058 18.6562 14.4737 17.9285 14.4495 16.8235C14.4429 16.647 14.4429 16.647 14.4362 16.4668Z" fill="white"/>
<path d="M16.3361 32.0469C16.4197 32.0887 16.5033 32.1305 16.5895 32.1735C16.5895 32.3825 16.5895 32.5915 16.5895 32.8069C16.6731 32.8487 16.7567 32.8905 16.8428 32.9335C16.6053 33.0681 16.6053 33.0681 16.3361 33.1869C16.2525 33.1451 16.1689 33.1033 16.0828 33.0602C16.041 33.2692 15.9992 33.4782 15.9561 33.6935C15.7053 33.7353 15.4545 33.7771 15.1961 33.8202C15.1961 33.9038 15.1961 33.9874 15.1961 34.0735C15.0289 33.9899 14.8617 33.9063 14.6895 33.8202C14.7757 33.7523 14.8619 33.6844 14.9507 33.6144C15.0735 33.5151 15.1963 33.4158 15.3228 33.3135C15.4003 33.2525 15.4779 33.1914 15.5578 33.1285C15.6766 33.032 15.6766 33.032 15.7978 32.9335C15.9105 32.8434 15.9105 32.8434 16.0254 32.7515C16.2392 32.5215 16.286 32.3531 16.3361 32.0469Z" fill="white"/>
<path d="M12.4088 25.8398C12.4506 25.9652 12.4924 26.0906 12.5355 26.2198C12.3666 26.4732 12.1977 26.7265 12.0288 26.9798C12.1392 27.3483 12.1392 27.3483 12.298 27.6211C12.3346 27.7021 12.3712 27.7831 12.4088 27.8665C12.367 27.9501 12.3252 28.0337 12.2822 28.1198C12.742 28.1616 13.2018 28.2034 13.6755 28.2465C13.6755 28.2883 13.6755 28.3301 13.6755 28.3732C12.5336 28.453 12.5336 28.453 12.013 28.1198C11.9346 28.0362 11.8563 27.9526 11.7755 27.8665C11.7337 27.9919 11.6919 28.1173 11.6488 28.2465C11.5652 28.1629 11.4816 28.0793 11.3955 27.9932C11.4419 27.2276 11.8391 26.351 12.4088 25.8398Z" fill="white"/>
<path d="M14.9431 22.1665C15.0267 22.2919 15.1103 22.4173 15.1965 22.5465C15.1155 22.5805 15.0345 22.6144 14.9511 22.6494C14.6478 22.7855 14.6478 22.7855 14.5631 23.1798C14.5213 23.0962 14.4795 23.0126 14.4365 22.9265C14.3529 22.9265 14.2693 22.9265 14.1831 22.9265C14.2249 23.1355 14.2667 23.3445 14.3098 23.5598C14.1844 23.5598 14.059 23.5598 13.9298 23.5598C13.9298 23.4344 13.9298 23.309 13.9298 23.1798C13.6602 23.406 13.6602 23.406 13.6131 23.6865C13.5498 23.9398 13.5498 23.9398 13.2965 24.1932C13.1402 23.8238 13.1667 23.6943 13.3202 23.3144C13.5412 22.9411 13.7642 22.6137 14.0565 22.2932C14.1401 22.2932 14.2237 22.2932 14.3098 22.2932C14.3098 22.4186 14.3098 22.544 14.3098 22.6732C14.3934 22.6732 14.477 22.6732 14.5631 22.6732C14.5631 22.5896 14.5631 22.506 14.5631 22.4198C14.6467 22.4198 14.7303 22.4198 14.8165 22.4198C14.8583 22.3362 14.9001 22.2526 14.9431 22.1665Z" fill="white"/>
<path d="M8.83306 51.1309H5.03521V53.2852H8.10878V54.0467H5.03521V56.9995H4.19949V50.3695H8.83306V51.1309ZM10.874 51.1774H9.96396V50.2488H10.874V51.1774ZM10.809 52.3195V56.9995H10.0197V52.3195H10.809ZM14.6802 52.1988C15.8502 52.1988 16.5188 52.9324 16.5188 54.0559V56.9995H15.7295V54.1952C15.7295 53.3409 15.3209 52.9045 14.5317 52.9045C13.6959 52.9045 13.1481 53.6381 13.1481 54.4552V56.9995H12.3588V52.3195H13.1202V52.8302H13.2967C13.5381 52.4774 14.0395 52.1988 14.6802 52.1988ZM17.9629 50.2488H18.7522V56.9995H17.9629V50.2488ZM23.256 56.9995V56.4981H23.0702C22.7824 56.8602 22.2717 57.1202 21.6031 57.1202C20.5167 57.1202 19.9131 56.3959 19.9131 55.5974C19.9131 54.8452 20.396 54.0467 21.7052 54.0467H23.2281V53.8609C23.2281 53.2945 22.8938 52.8859 22.086 52.8859C21.3988 52.8859 21.0367 53.1459 20.9995 53.5359H20.2102C20.266 52.6909 21.0181 52.1988 22.0674 52.1988C23.2374 52.1988 23.9988 52.7652 23.9988 53.8145V56.9995H23.256ZM21.7888 56.4331C22.5781 56.4331 23.2281 55.8574 23.2281 55.1238V54.7059H21.826C21.0645 54.7059 20.7024 55.0309 20.7024 55.5788C20.7024 56.1081 21.1017 56.4331 21.7888 56.4331ZM26.6698 52.3195H27.9326V53.0067H26.6698V55.6624C26.6698 56.1174 26.874 56.2938 27.4869 56.2938H27.9326V56.9995H27.4126C26.3912 56.9995 25.8805 56.7767 25.8805 55.7924V53.0067H24.9333V52.3195H25.8805V50.9081H26.6698V52.3195ZM30.1074 51.1774H29.1974V50.2488H30.1074V51.1774ZM30.0424 52.3195V56.9995H29.2531V52.3195H30.0424ZM34.7586 55.6067H35.5479C35.3808 56.5167 34.6658 57.1202 33.5793 57.1202C32.1215 57.1202 31.3043 56.0524 31.3043 54.6595C31.3043 53.2574 32.1215 52.1988 33.5793 52.1988C34.6843 52.1988 35.3622 52.7931 35.5201 53.6567H34.7308C34.5822 53.1831 34.2201 52.8859 33.5793 52.8859C32.5208 52.8859 32.0936 53.7031 32.0936 54.6409C32.0936 55.5881 32.5301 56.4331 33.5793 56.4331C34.2479 56.4331 34.6379 56.1267 34.7586 55.6067ZM38.0433 54.1581L38.944 54.3067C39.7983 54.4367 40.3276 54.8545 40.3276 55.6717C40.3276 56.4238 39.6497 57.1202 38.3962 57.1202C37.1055 57.1202 36.4369 56.5445 36.3347 55.6531H37.124C37.2076 56.1824 37.709 56.4331 38.359 56.4331C39.0555 56.4331 39.5383 56.1917 39.5383 55.6902C39.5383 55.3095 39.2876 55.0959 38.7397 55.0124L37.8205 54.8638C37.0497 54.7431 36.5112 54.3438 36.5112 53.5917C36.5112 52.8209 37.124 52.1988 38.3683 52.1988C39.4455 52.1988 40.1047 52.7374 40.1976 53.5359H39.4176C39.3619 53.0902 38.8605 52.8859 38.3219 52.8859C37.7369 52.8859 37.3005 53.1181 37.3005 53.5452C37.3005 53.8888 37.5326 54.0745 38.0433 54.1581Z" fill="white"/>
</svg>
